<svg xmlns="http://www.w3.org/2000/svg" viewBox="0 0 231.31 49.29"><defs><style>.cls-1{fill:#fff;}.cls-2{fill:#682673;}.cls-3{fill:#414042;}</style></defs><g id="Layer_2" data-name="Layer 2"><g id="Layer_1-2" data-name="Layer 1"><rect class="cls-1" width="231.31" height="49.29"/><path class="cls-2" d="M24.64,0A24.65,24.65,0,1,0,49.29,24.64,24.64,24.64,0,0,0,24.64,0Zm0,42.75A18.11,18.11,0,1,1,34.19,9.26L31.89,15h0L26.27,28.88l-5.79-2.34L26.1,12.65a11.68,11.68,0,0,0-1.46-.09,12.07,12.07,0,1,0,11.25,7.65l2.81-7A18.1,18.1,0,0,1,24.64,42.75Z"/><path class="cls-3" d="M186.16,21.8H181.8c.08-11.4,21.06-11.53,20.86.17.12,4.67,0,9.34.07,14,0,1.59,1.39,1.59,2.64,1.32-.13.83.38,3.25-.39,3.51-2.87,1.34-6.56,0-6.53-3.56-3.42,5.14-11.81,6-16,1.42a8.05,8.05,0,0,1,3.27-12.89c4-1.4,8.25-.92,12.46-1.37.22-2.7,0-6.3-3.18-7C191.46,16.27,186.37,17.39,186.16,21.8Zm12,6.2c-3.47.29-8.36-.28-11.26,1.66s-2.29,6.71,1,7.68C194,39.6,199.1,34,198.18,28Z"/><path class="cls-3" d="M89.16,29H70.09c-.13,6,5.45,10.68,11.12,7.83,2.84-1.13,2.44-4.06,3.54-3.9,1.28,0,2.55,0,3.9,0-1.4,9.34-15.13,12.54-21.19,2.91-3-5.41-3-12.78.63-17.89,5.17-7.36,17.55-5.71,20.2,3C89.36,23.54,89.17,26.22,89.16,29ZM70.3,25H84.48C85.2,14.33,69.69,15.11,70.3,25Z"/><path class="cls-3" d="M231.26,40.89h-4.49c0-5.88,0-11.76,0-17.65a6,6,0,0,0-1.5-4.28c-2.19-2.28-6.52-2-8.81.52-3.9,4-1.8,15.57-2.34,21.39h-4.51V14h3.92c.12,1.19.24,2.41.36,3.68,3.52-5.63,13-6.23,16.29-.07a10.82,10.82,0,0,1,1.14,5C231.27,28.73,231.38,34.82,231.26,40.89Z"/><path class="cls-3" d="M138.61,14V40.87h-4l-.37-3.73a9.81,9.81,0,0,1-14.51,2.15c-2.17-2-2.67-5-2.65-7.87,0-5.8,0-11.6,0-17.4h4.53c.25,6.64-.55,13.41.41,20,2,5.86,10.87,3.8,11.63-2.45.76-5.79.18-11.69.35-17.52Z"/><path class="cls-3" d="M161.84,31.89h4.55c-1,13.67-21.85,12.28-22.71-.88C140.09,10.77,163.9,7.2,166.4,23.09h-4.59a6.53,6.53,0,0,0-10.42-4.54c-4.1,3.24-3.78,9.73-2.52,14.31C151,39.59,161.14,39.07,161.84,31.89Z"/><path class="cls-3" d="M98.74,40.88H94.27V2.57h4.47Z"/><path class="cls-3" d="M111,40.89h-4.47V2.58H111Z"/><path class="cls-3" d="M175.88,14V40.86h-4.6V14Z"/><path class="cls-3" d="M171.12,10.1V5.49H176V10.1Z"/></g></g></svg>