<svg xmlns="http://www.w3.org/2000/svg" viewBox="0 0 409.41 121.84"><defs><style>.cls-1{fill:#bf0001;}</style></defs><g id="Layer_2" data-name="Layer 2"><g id="Layer_1-2" data-name="Layer 1"><polygon class="cls-1" points="329.58 102.11 81.88 102.11 101.61 121.84 329.58 102.11"/><path class="cls-1" d="M104.83,22.3v3c-4.6-2.93-8.73-4.63-14.37-4.63-17.36,0-30.54,15.83-30.54,35.26S73.1,91.16,90.46,91.16c5.64,0,9.77-1.69,14.37-4.63v3h15.25V22.3ZM90.46,75c-8.56,0-14.83-8.43-14.83-19.07S81.9,36.85,90.46,36.85s14.6,8.42,14.6,19.06S99,75,90.46,75"/><path class="cls-1" d="M227,22.3V61.78c0,7.41-5.09,13.67-12.5,13.67S202,69.19,202,61.78V22.3H186.77V61.78c0,16.2,11.08,29.38,27.29,29.38A23.39,23.39,0,0,0,227,87v2.5h15.26V22.3Z"/><path class="cls-1" d="M369.16,89.51V50c0-7.41,5.08-13.66,12.5-13.66S394.15,42.62,394.15,50V89.51h15.26V50c0-16.2-11.09-29.38-27.29-29.38a23.39,23.39,0,0,0-13,4.15V22.3H353.9V89.51Z"/><path class="cls-1" d="M16,89.51v-26H27.24l19.53,26h20L43.14,58.09A28.94,28.94,0,0,0,26.37,5.55H0v84Zm0-68H26.37a13,13,0,1,1,0,26H16Z"/><path class="cls-1" d="M283.39,73.61a9.06,9.06,0,0,1-5.1,1.65c-2.49,0-7.19-1.9-7.19-8.24V38.25h13V22.3h-13V5.55H255.84V22.3h-8.07v16h8.07v29c0,15,11.3,24,22.68,24A31.44,31.44,0,0,0,293.44,87Z"/><polygon class="cls-1" points="158 53.81 184.17 22.3 162.79 22.3 144.49 45.72 144.49 0 128.78 0 128.78 89.51 144.49 89.51 144.49 61.9 166.98 89.51 188.36 89.51 158 53.81"/><path class="cls-1" d="M318.62,20.6C301,20.6,288.3,36.11,288.3,55.91c0,20.81,15.9,35.31,31.84,35.31,8,0,18.35-2.76,27-15L333.68,68.4c-10.42,15.36-27.79,7.56-29.79-7.8h43.94c3.76-24.14-11.85-40-29.21-40m13.32,26.63H304.47c3.21-15.74,24.5-16.64,27.47,0"/></g></g></svg>