<svg xmlns="http://www.w3.org/2000/svg" viewBox="0 0 395.16 186.86"><defs><style>.cls-1{fill:#fff;}.cls-2{fill:#f4a89b;}.cls-3{fill:#f17f6d;}.cls-4{fill:#c55a5e;}.cls-5{fill:#c75034;}.cls-6{fill:#c04757;}.cls-7{fill:#d95036;}.cls-8{fill:#9d1c20;}.cls-9{fill:#dba7ac;}.cls-10{fill:#9d1c1f;}.cls-11{fill:#d18988;}</style></defs><g id="Layer_2" data-name="Layer 2"><g id="pg_1_front" data-name="pg 1 front"><path class="cls-1" d="M35.28,99.11q-13.2,0-20.5-9.49H13.9q.88,8.8.88,10.69V128.8H0V28.3H12c.33,1.3,1,4.4,2.08,9.31h.75Q21.7,27,35.53,27q13,0,20.29,9.44T63.08,63q0,17-7.39,26.61T35.28,99.11Zm-3.58-60q-8.81,0-12.86,5.15T14.78,60.75V63q0,12.7,4,18.4T32,87a13.35,13.35,0,0,0,11.82-6.29q4.15-6.28,4.15-17.92T43.8,45.12Q39.69,39.12,31.7,39.12Z"/><path class="cls-1" d="M84.72,97.86H69.94V0H84.72Z"/><path class="cls-1" d="M139.07,97.86l-3-9.69h-.5q-5,6.36-10.12,8.65T112.4,99.11q-10.25,0-16-5.53T90.64,77.92q0-10.76,8-16.23t24.34-6l12-.38V51.63q0-6.66-3.11-10t-9.65-3.3A33.59,33.59,0,0,0,112,39.93a76.53,76.53,0,0,0-9.44,3.72L97.75,33.08a51.48,51.48,0,0,1,12.39-4.5A57.45,57.45,0,0,1,122.84,27q13.28,0,20,5.79T149.64,51V97.86Zm-22-10.07q8.06,0,12.92-4.49t4.88-12.61v-6l-8.93.38q-10.44.38-15.19,3.49T106,78.05a9.28,9.28,0,0,0,2.77,7.2Q111.52,87.79,117.06,87.79Z"/><path class="cls-1" d="M221.15,97.86H206.31V55.09q0-8-3.24-12t-10.28-4q-9.37,0-13.71,5.53T174.74,63.2V97.86H160V28.3h11.57l2.08,9.12h.75a20.57,20.57,0,0,1,8.93-7.67A29.82,29.82,0,0,1,196.12,27q25,0,25,25.47Z"/><path class="cls-1" d="M261.79,99.11q-16.23,0-25.38-9.46t-9.15-26.07q0-17,8.49-26.79T259.08,27q13.79,0,21.76,8.37t8,23v8H242.48Q242.8,76.54,248,82t14.53,5.44A53.41,53.41,0,0,0,274,86.25a59.39,59.39,0,0,0,11.41-3.87v12a45.55,45.55,0,0,1-10.94,3.65A67.36,67.36,0,0,1,261.79,99.11Zm-2.71-60.87a14.9,14.9,0,0,0-11.29,4.46q-4.24,4.47-5.06,13H274.3q-.12-8.61-4.15-13T259.08,38.24Z"/><path class="cls-1" d="M311.54,39.49h19.81V28.3H311.54V12.83h-9.12l-5,14.72L287.21,33v6.54h9.49V77q0,18.58,14.84,21.55Z"/><rect class="cls-1" x="296.68" y="34.35" width="14.88" height="151.47"/><circle class="cls-1" cx="344.87" cy="136.58" r="50.28"/><path class="cls-2" d="M329.52,124.6l2.74.31,8.17,1a92.32,92.32,0,0,0,12.32.67,44,44,0,0,0,16.08-3,29.45,29.45,0,0,0,10.82-7.38,1.64,1.64,0,0,1,.2.26q1.35,2.79,2.68,5.6a.68.68,0,0,1,.05.44,10.32,10.32,0,0,1-3.38,4.88,5.47,5.47,0,0,1-4.89.85,11.22,11.22,0,0,0-2.56-.37A4.55,4.55,0,0,0,367.8,130c-.42.66-.74,1.37-1.12,2.05a1.24,1.24,0,0,1-1.74.65,14.12,14.12,0,0,1-1.78-1,4.36,4.36,0,0,0-2.06-.72,2.75,2.75,0,0,0-2.62,1.45c-.24.41-.39.87-.59,1.3a8.79,8.79,0,0,1-.41.81.87.87,0,0,1-1.1.45,12.08,12.08,0,0,1-1.42-.64c-.6-.32-1.16-.71-1.78-1a3.05,3.05,0,0,0-4.34,1.7c-.25.58-.47,1.18-.71,1.77-.38.9-.74,1-1.54.41a25.14,25.14,0,0,0-2.1-1.44,2.86,2.86,0,0,0-4,1,15.07,15.07,0,0,0-1.25,2.17c-1.52,3.15-4.11,4.29-7.47,4.14a28.38,28.38,0,0,0-23.57,9.9l-.18.19c-.21-.5-.42-1-.61-1.43a37.8,37.8,0,0,1-2.16-7.3.71.71,0,0,1,.14-.51,16.45,16.45,0,0,1,6.2-4.4c2.35-1,4.75-1.8,7.12-2.71a22.86,22.86,0,0,0,6.43-3.51,11.48,11.48,0,0,0,4.34-7.21A11.1,11.1,0,0,0,329.52,124.6Z"/><path class="cls-3" d="M383.61,125.19a39.13,39.13,0,0,1,1.55,8.62c-.48-.15-.89-.3-1.32-.41a3.3,3.3,0,0,0-4,1.82c-.22.45-.38.93-.56,1.4s-.25.68-.41,1a1.54,1.54,0,0,1-2.11.87c-.52-.19-1-.43-1.56-.64a4.33,4.33,0,0,0-5.54,1.68c-.46.7-.85,1.44-1.31,2.14a2.24,2.24,0,0,1-1.88,1.28,4.85,4.85,0,0,1-1.57-.4c-.8-.29-1.55-.7-2.35-.94a3.57,3.57,0,0,0-3.63,1,11.17,11.17,0,0,0-1.92,3,8.79,8.79,0,0,1-.7,1.09,2,2,0,0,1-2.48.7,26.73,26.73,0,0,1-2.53-1.22,5.27,5.27,0,0,0-2.67-.77,3.81,3.81,0,0,0-3.21,1.91,18,18,0,0,0-.87,1.69c-.15.3-.28.61-.44.9a2,2,0,0,1-2.78,1c-.64-.25-1.26-.57-1.89-.84a3.34,3.34,0,0,0-2-.32,2.91,2.91,0,0,0-2.32,2.15c-.25.78-.39,1.59-.61,2.39a4.65,4.65,0,0,1-.34,1,1.1,1.1,0,0,1-1.34.63c-.59-.16-1.16-.43-1.75-.61a12.17,12.17,0,0,0-2.19-.57,2.35,2.35,0,0,0-2.48,1.52,9.6,9.6,0,0,0-.56,2.2c-.12.67-.14,1.35-.27,2a.89.89,0,0,1-1.31.76c-.72-.23-1.41-.57-2.14-.82a5.63,5.63,0,0,0-1.29-.3,2.44,2.44,0,0,0-2.69,1.94,24.62,24.62,0,0,0-.28,2.57c-.06.57-.14,1.13-.2,1.7l-.15,0c-.78-.79-1.57-1.57-2.33-2.38a41.31,41.31,0,0,1-6-8.4.56.56,0,0,1,.06-.75,26.68,26.68,0,0,1,15.49-9.32,29.65,29.65,0,0,1,7.29-.43,8.82,8.82,0,0,0,8.7-4.72c.4-.72.77-1.45,1.19-2.16.57-1,1.12-1.09,2.06-.46.43.3.81.66,1.24,1a6.83,6.83,0,0,0,1.23.7,2.41,2.41,0,0,0,3-1,12.16,12.16,0,0,0,.79-1.67c.13-.28.2-.58.33-.85.44-1,1-1.17,1.94-.68.62.32,1.19.72,1.81,1a7,7,0,0,0,1.85.69,2.82,2.82,0,0,0,3.12-1.68c.26-.5.46-1,.69-1.53.39-.84.84-1,1.66-.59.62.32,1.19.71,1.8,1a4.21,4.21,0,0,0,2.53.55,2.87,2.87,0,0,0,2.15-1.38,18.85,18.85,0,0,0,.93-1.71,3.15,3.15,0,0,1,3.76-1.81c.75.15,1.5.34,2.25.44a7.18,7.18,0,0,0,6.58-2.55C382.37,126.94,383,126.06,383.61,125.19Z"/><path class="cls-4" d="M306.85,122.91c.27-.68.53-1.37.82-2a.64.64,0,0,1,.36-.3,51.16,51.16,0,0,1,7.73-1.66c4.11-.58,8.26-.71,12.39-1,3.32-.2,6.63-.38,9.93-.7a46.26,46.26,0,0,0,14.44-3.54A26.93,26.93,0,0,0,364.4,104c.44-.66.82-1.35,1.22-2,3.22,1.23,10.39,8.08,13,12.43-.74.74-1.48,1.53-2.28,2.24a30.77,30.77,0,0,1-13.72,6.77,50.7,50.7,0,0,1-12.94,1.17c-4.44-.12-8.84-.62-13.25-1.14-3.94-.47-7.88-.94-11.83-1.29a64.28,64.28,0,0,0-12.25,0C310.51,122.34,308.71,122.65,306.85,122.91Z"/><path class="cls-5" d="M323.81,171.12a33.19,33.19,0,0,1,5-5.68,36.13,36.13,0,0,1,16.08-8.6,43.18,43.18,0,0,1,7.67-1.07c3.55-.2,7.1-.3,10.64-.55A32.85,32.85,0,0,0,375,152.49a24.62,24.62,0,0,0,9-7.13c.06-.07.11-.14.17-.2l.13-.11c-.11.49-.21.92-.32,1.35s-.22.86-.35,1.29a39.61,39.61,0,0,1-7.85,14.8c-.95,1.14-2,2.18-3,3.25a1.19,1.19,0,0,1-.52.28,21.47,21.47,0,0,1-5.23.65c-2.25,0-4.5,0-6.75-.13-4.41-.19-8.8-.52-13.21-.28a33.33,33.33,0,0,0-13.48,3.3,20.26,20.26,0,0,0-5.06,3.6c-.17.16-.31.26-.56.13C326.61,172.56,325.22,171.85,323.81,171.12Z"/><path class="cls-6" d="M308.88,118.25a37.12,37.12,0,0,1,3.35-5.45c.8-1.06,1.65-2.07,2.5-3.09a1.12,1.12,0,0,1,.54-.33,17.21,17.21,0,0,1,5.23-.86c2.6-.06,5.2,0,7.8-.1A19.51,19.51,0,0,0,341.44,103a29.23,29.23,0,0,0,5.05-6.35.6.6,0,0,1,.64-.36,39.47,39.47,0,0,1,15,3.8c.59.28,1.18.58,1.8.89a18.47,18.47,0,0,1-2.1,3.36,26,26,0,0,1-10,7.56,40.12,40.12,0,0,1-9.82,2.88A117.86,117.86,0,0,1,328.5,116q-5.72.31-11.41.8a49.1,49.1,0,0,0-7.79,1.39Z"/><path class="cls-7" d="M322.17,170l-3.08-2.32a8.83,8.83,0,0,0,.77-3.92,6.46,6.46,0,0,1,.15-1.16c.11-.52.38-.71.88-.56a21.49,21.49,0,0,1,2,.77,4.05,4.05,0,0,0,2.4.35,2.92,2.92,0,0,0,2.25-2.66c.14-.92.2-1.86.36-2.79s.6-1.29,1.61-.95c.71.25,1.39.57,2.1.82a3.34,3.34,0,0,0,4.7-2.53c.21-.84.37-1.69.61-2.52a1,1,0,0,1,1.54-.76c.3.11.59.25.88.38.51.23,1,.5,1.54.68a3.79,3.79,0,0,0,4.72-1.77c.45-.77.79-1.6,1.19-2.4a2.15,2.15,0,0,1,1.64-1.33,2.87,2.87,0,0,1,1.69.4c.7.36,1.39.76,2.1,1.11a5.49,5.49,0,0,0,2.55.59,3.92,3.92,0,0,0,3.3-2c.55-.88,1-1.82,1.52-2.72a2.16,2.16,0,0,1,1.82-1.3,3.91,3.91,0,0,1,1.45.32c.75.29,1.44.73,2.2,1a4.18,4.18,0,0,0,4.87-2c.37-.63.74-1.27,1.12-1.9a2.54,2.54,0,0,1,3.47-1.17c.54.21,1.06.47,1.6.66a3.39,3.39,0,0,0,4.38-1.75c.28-.56.47-1.17.71-1.76.13-.29.24-.59.39-.87a1.35,1.35,0,0,1,1.68-.7c.57.16,1.13.35,1.69.56a.44.44,0,0,1,.23.33c0,1.24,0,2.48-.1,3.72a1.53,1.53,0,0,1-.23.6,22.91,22.91,0,0,1-15.64,11.91,46.23,46.23,0,0,1-8.19,1c-3.44.17-6.88.28-10.3.54a37.61,37.61,0,0,0-24.43,11.15c-1.41,1.42-2.61,3-3.91,4.57C322.34,169.78,322.28,169.87,322.17,170Z"/><path class="cls-8" d="M330.21,174.22a20.32,20.32,0,0,1,4.91-3.25,29.65,29.65,0,0,1,10.12-2.64,81.64,81.64,0,0,1,11.17,0c2.81.13,5.62.28,8.44.35,1.55,0,3.11-.08,4.72-.13a39.73,39.73,0,0,1-18.88,8A40.22,40.22,0,0,1,330.21,174.22Z"/><path class="cls-9" d="M314.21,124c2.12-.33,12.35,0,13.61.46-.21,4.21-2.65,6.89-6.1,8.87a44.63,44.63,0,0,1-6.76,2.86,44,44,0,0,0-6.24,2.67,18.88,18.88,0,0,0-3.58,2.57c-.09.09-.19.16-.33.28-.08-.67-.17-1.28-.2-1.89-.06-1-.08-2-.1-3a1,1,0,0,1,.17-.52,15.22,15.22,0,0,1,2.69-3,41.38,41.38,0,0,0,4.75-4.61,9.54,9.54,0,0,0,2-4.08A5.59,5.59,0,0,0,314.21,124Z"/><path class="cls-10" d="M317.59,106.78a39.88,39.88,0,0,1,26.83-10.5c-.48.69-.95,1.4-1.46,2.07a21,21,0,0,1-7.58,6.46,16.76,16.76,0,0,1-6.55,1.61c-2.27.1-4.54,0-6.81.12C320.56,106.58,319.1,106.69,317.59,106.78Z"/><path class="cls-11" d="M312.22,124.17a8.18,8.18,0,0,1-2.25,4c-1.1,1.12-2.28,2.16-3.42,3.24l-1.9,1.8a14,14,0,0,1,.13-1.56c.4-2,.83-4.1,1.27-6.15a.63.63,0,0,1,.37-.38c1.89-.34,3.78-.65,5.66-1A.43.43,0,0,1,312.22,124.17Z"/><path class="cls-1" d="M387.21,136.59a42.34,42.34,0,1,1-41.85-42.34A42.32,42.32,0,0,1,387.21,136.59Zm-57.69-12a11.1,11.1,0,0,1,0,1.53,11.48,11.48,0,0,1-4.34,7.21,22.86,22.86,0,0,1-6.43,3.51c-2.37.91-4.77,1.74-7.12,2.71a16.45,16.45,0,0,0-6.2,4.4.71.71,0,0,0-.14.51,37.8,37.8,0,0,0,2.16,7.3c.19.47.4.93.61,1.43l.18-.19a28.38,28.38,0,0,1,23.57-9.9c3.36.15,5.95-1,7.47-4.14a15.07,15.07,0,0,1,1.25-2.17,2.86,2.86,0,0,1,4-1,25.14,25.14,0,0,1,2.1,1.44c.8.58,1.16.49,1.54-.41.24-.59.46-1.19.71-1.77a3.05,3.05,0,0,1,4.34-1.7c.62.27,1.18.66,1.78,1a12.08,12.08,0,0,0,1.42.64.87.87,0,0,0,1.1-.45,8.79,8.79,0,0,0,.41-.81c.2-.43.35-.89.59-1.3A2.75,2.75,0,0,1,361.1,131a4.36,4.36,0,0,1,2.06.72,14.12,14.12,0,0,0,1.78,1,1.24,1.24,0,0,0,1.74-.65c.38-.68.7-1.39,1.12-2.05a4.55,4.55,0,0,1,3.95-2.19,11.22,11.22,0,0,1,2.56.37,5.47,5.47,0,0,0,4.89-.85,10.32,10.32,0,0,0,3.38-4.88.68.68,0,0,0-.05-.44q-1.33-2.8-2.68-5.6a1.64,1.64,0,0,0-.2-.26,29.45,29.45,0,0,1-10.82,7.38,44,44,0,0,1-16.08,3,92.32,92.32,0,0,1-12.32-.67l-8.17-1Zm54.09.59c-.66.87-1.24,1.75-1.95,2.52a7.18,7.18,0,0,1-6.58,2.55c-.75-.1-1.5-.29-2.25-.44a3.15,3.15,0,0,0-3.76,1.81,18.85,18.85,0,0,1-.93,1.71,2.87,2.87,0,0,1-2.15,1.38,4.21,4.21,0,0,1-2.53-.55c-.61-.34-1.18-.73-1.8-1-.82-.43-1.27-.25-1.66.59-.23.51-.43,1-.69,1.53a2.82,2.82,0,0,1-3.12,1.68,7,7,0,0,1-1.85-.69c-.62-.3-1.19-.7-1.81-1-.94-.49-1.5-.28-1.94.68-.13.27-.2.57-.33.85a12.16,12.16,0,0,1-.79,1.67,2.41,2.41,0,0,1-3,1,6.83,6.83,0,0,1-1.23-.7c-.43-.29-.81-.65-1.24-1-.94-.63-1.49-.51-2.06.46-.42.71-.79,1.44-1.19,2.16a8.82,8.82,0,0,1-8.7,4.72,29.65,29.65,0,0,0-7.29.43,26.68,26.68,0,0,0-15.49,9.32.56.56,0,0,0-.06.75,41.31,41.31,0,0,0,6,8.4c.76.81,1.55,1.59,2.33,2.38l.15,0c.06-.57.14-1.13.2-1.7a24.62,24.62,0,0,1,.28-2.57,2.44,2.44,0,0,1,2.69-1.94,5.63,5.63,0,0,1,1.29.3c.73.25,1.42.59,2.14.82a.89.89,0,0,0,1.31-.76c.13-.67.15-1.35.27-2a9.6,9.6,0,0,1,.56-2.2,2.35,2.35,0,0,1,2.48-1.52,12.17,12.17,0,0,1,2.19.57c.59.18,1.16.45,1.75.61a1.1,1.1,0,0,0,1.34-.63,4.65,4.65,0,0,0,.34-1c.22-.8.36-1.61.61-2.39a2.91,2.91,0,0,1,2.32-2.15,3.34,3.34,0,0,1,2,.32c.63.27,1.25.59,1.89.84a2,2,0,0,0,2.78-1c.16-.29.29-.6.44-.9a18,18,0,0,1,.87-1.69,3.81,3.81,0,0,1,3.21-1.91,5.27,5.27,0,0,1,2.67.77,26.73,26.73,0,0,0,2.53,1.22,2,2,0,0,0,2.48-.7,8.79,8.79,0,0,0,.7-1.09,11.17,11.17,0,0,1,1.92-3,3.57,3.57,0,0,1,3.63-1c.8.24,1.55.65,2.35.94a4.85,4.85,0,0,0,1.57.4,2.24,2.24,0,0,0,1.88-1.28c.46-.7.85-1.44,1.31-2.14a4.33,4.33,0,0,1,5.54-1.68c.52.21,1,.45,1.56.64a1.54,1.54,0,0,0,2.11-.87c.16-.32.27-.66.41-1s.34-1,.56-1.4a3.3,3.3,0,0,1,4-1.82c.43.11.84.26,1.32.41A39.13,39.13,0,0,0,383.61,125.19Zm-76.76-2.28c1.86-.26,3.66-.57,5.48-.76a64.28,64.28,0,0,1,12.25,0c3.95.35,7.89.82,11.83,1.29,4.41.52,8.81,1,13.25,1.14a50.7,50.7,0,0,0,12.94-1.17,30.77,30.77,0,0,0,13.72-6.77c.8-.71,1.54-1.5,2.28-2.24-2.59-4.35-9.76-11.2-13-12.43-.4.68-.78,1.37-1.22,2a26.93,26.93,0,0,1-11.88,9.69,46.26,46.26,0,0,1-14.44,3.54c-3.3.32-6.61.5-9.93.7-4.13.25-8.28.38-12.39,1a51.16,51.16,0,0,0-7.73,1.66.64.64,0,0,0-.36.3C307.38,121.54,307.12,122.23,306.85,122.91Zm17,48.21c1.41.73,2.8,1.44,4.17,2.17.25.13.39,0,.56-.13a20.26,20.26,0,0,1,5.06-3.6,33.33,33.33,0,0,1,13.48-3.3c4.41-.24,8.8.09,13.21.28,2.25.1,4.5.15,6.75.13a21.47,21.47,0,0,0,5.23-.65,1.19,1.19,0,0,0,.52-.28c1-1.07,2.1-2.11,3-3.25a39.61,39.61,0,0,0,7.85-14.8c.13-.43.24-.86.35-1.29s.21-.86.32-1.35l-.13.11c-.06.06-.11.13-.17.2a24.62,24.62,0,0,1-9,7.13,32.85,32.85,0,0,1-11.87,2.73c-3.54.25-7.09.35-10.64.55a43.18,43.18,0,0,0-7.67,1.07,36.13,36.13,0,0,0-16.08,8.6A33.19,33.19,0,0,0,323.81,171.12Zm-14.93-52.87.42-.08a49.1,49.1,0,0,1,7.79-1.39q5.7-.5,11.41-.8A117.86,117.86,0,0,0,342,114.76a40.12,40.12,0,0,0,9.82-2.88,26,26,0,0,0,10-7.56,18.47,18.47,0,0,0,2.1-3.36c-.62-.31-1.21-.61-1.8-.89a39.47,39.47,0,0,0-15-3.8.6.6,0,0,0-.64.36,29.23,29.23,0,0,1-5.05,6.35,19.51,19.51,0,0,1-13.14,5.44c-2.6.08-5.2,0-7.8.1a17.21,17.21,0,0,0-5.23.86,1.12,1.12,0,0,0-.54.33c-.85,1-1.7,2-2.5,3.09A37.12,37.12,0,0,0,308.88,118.25ZM322.17,170c.11-.15.17-.24.25-.33,1.3-1.53,2.5-3.15,3.91-4.57A37.61,37.61,0,0,1,350.76,154c3.42-.26,6.86-.37,10.3-.54a46.23,46.23,0,0,0,8.19-1,22.91,22.91,0,0,0,15.64-11.91,1.53,1.53,0,0,0,.23-.6c.06-1.24.09-2.48.1-3.72a.44.44,0,0,0-.23-.33c-.56-.21-1.12-.4-1.69-.56a1.35,1.35,0,0,0-1.68.7c-.15.28-.26.58-.39.87-.24.59-.43,1.2-.71,1.76a3.39,3.39,0,0,1-4.38,1.75c-.54-.19-1.06-.45-1.6-.66a2.54,2.54,0,0,0-3.47,1.17c-.38.63-.75,1.27-1.12,1.9a4.18,4.18,0,0,1-4.87,2c-.76-.25-1.45-.69-2.2-1a3.91,3.91,0,0,0-1.45-.32,2.16,2.16,0,0,0-1.82,1.3c-.51.9-1,1.84-1.52,2.72a3.92,3.92,0,0,1-3.3,2,5.49,5.49,0,0,1-2.55-.59c-.71-.35-1.4-.75-2.1-1.11a2.87,2.87,0,0,0-1.69-.4,2.15,2.15,0,0,0-1.64,1.33c-.4.8-.74,1.63-1.19,2.4a3.79,3.79,0,0,1-4.72,1.77c-.53-.18-1-.45-1.54-.68-.29-.13-.58-.27-.88-.38a1,1,0,0,0-1.54.76c-.24.83-.4,1.68-.61,2.52a3.34,3.34,0,0,1-4.7,2.53c-.71-.25-1.39-.57-2.1-.82-1-.34-1.42-.11-1.61.95s-.22,1.87-.36,2.79a2.92,2.92,0,0,1-2.25,2.66,4.05,4.05,0,0,1-2.4-.35,21.49,21.49,0,0,0-2-.77c-.5-.15-.77,0-.88.56a6.46,6.46,0,0,0-.15,1.16,8.83,8.83,0,0,1-.77,3.92Zm8,4.2a40.22,40.22,0,0,0,20.48,2.33,39.73,39.73,0,0,0,18.88-8c-1.61.05-3.17.17-4.72.13-2.82-.07-5.63-.22-8.44-.35a81.64,81.64,0,0,0-11.17,0A29.65,29.65,0,0,0,335.12,171,20.32,20.32,0,0,0,330.21,174.22Zm-16-50.23a5.59,5.59,0,0,1-.08.59,9.54,9.54,0,0,1-2,4.08,41.38,41.38,0,0,1-4.75,4.61,15.22,15.22,0,0,0-2.69,3,1,1,0,0,0-.17.52c0,1,0,2,.1,3,0,.61.12,1.22.2,1.89.14-.12.24-.19.33-.28a18.88,18.88,0,0,1,3.58-2.57,44,44,0,0,1,6.24-2.67,44.63,44.63,0,0,0,6.76-2.86c3.45-2,5.89-4.66,6.1-8.87C326.56,124,316.33,123.66,314.21,124Zm3.38-17.21c1.51-.09,3-.2,4.43-.24,2.27-.07,4.54,0,6.81-.12a16.76,16.76,0,0,0,6.55-1.61A21,21,0,0,0,343,98.35c.51-.67,1-1.38,1.46-2.07A39.88,39.88,0,0,0,317.59,106.78Zm-5.37,17.39a.43.43,0,0,0-.14,0c-1.88.32-3.77.63-5.66,1a.63.63,0,0,0-.37.38c-.44,2-.87,4.1-1.27,6.15a14,14,0,0,0-.13,1.56l1.9-1.8c1.14-1.08,2.32-2.12,3.42-3.24A8.18,8.18,0,0,0,312.22,124.17Z"/></g></g></svg>