<svg xmlns="http://www.w3.org/2000/svg" viewBox="0 0 95.75 94.2"><defs><style>.cls-1{fill:#fff;}</style></defs><title>breaking cad</title><g id="Layer_2" data-name="Layer 2"><g id="Layer_1-2" data-name="Layer 1"><g id="pg_1_front" data-name="pg 1 front"><path class="cls-1" d="M0,11.78c.65-1.46,1.47-2.87,3.16-3.12a29.15,29.15,0,0,1,5.2-.17A1.24,1.24,0,0,1,9.49,9.82s0,0,0,.06a1.29,1.29,0,0,1-1.24,1.34H4.82c-1.42,0-2,.6-2,2V61.86H19.56V57.28H17.33a2.55,2.55,0,0,1-2.72-2.36,2.81,2.81,0,0,1,0-.41v-17A2.57,2.57,0,0,1,17,34.75h2.59V11.24H15c-1.14,0-1.73-.47-1.75-1.36S13.84,8.43,15,8.43h4.64V3.48a3.24,3.24,0,0,1,3-3.47H72.42c2.42,0,3.69,1.26,3.7,3.67v1.2H78.8c2.16,0,3.06.89,3.1,3v.51h9.22A4.37,4.37,0,0,1,95.74,13V72a4.31,4.31,0,0,1-4.12,4.5h-.24c-1.77,0-3.55,0-5.32,0-1,0-1.53-.53-1.54-1.38a1.41,1.41,0,0,1,1.59-1.43H91c1.36,0,2-.58,2-1.91v-7H57.06v3a2.2,2.2,0,0,1-1.89,2.47,2,2,0,0,1-.59,0H41.21a2.23,2.23,0,0,1-2.53-1.9,2.29,2.29,0,0,1,0-.64V64.78H2.86c0,.27-.06.53-.06.8v6c0,1.6.53,2.13,2.12,2.13H78.59a4.18,4.18,0,0,1,1,0,1.33,1.33,0,0,1,1.14,1.48,1.3,1.3,0,0,1-1.25,1.28,8.34,8.34,0,0,1-1,0H58.81V82.8h5c2.43,0,3.69,1.25,3.71,3.67v4.3a3.25,3.25,0,0,1-3.07,3.43H31.72a3.25,3.25,0,0,1-3.52-3,4.51,4.51,0,0,1,0-.52V86.22a3.24,3.24,0,0,1,3.05-3.42h5.69V76.52H35.81c-10.09,0-20.19,0-30.29,0C2.83,76.58,1,75.7,0,73.12Zm22.43,23h10.2a2.29,2.29,0,0,0,2-.85c.33-.43.79-.66.46-1.4a1.17,1.17,0,0,0-1.36-.78,13.35,13.35,0,0,1-2,0,1.68,1.68,0,0,1-1.68-1.7v0q-.09-2.85,0-5.7A1.68,1.68,0,0,1,31.7,22.6h2.43A1.32,1.32,0,0,0,35,22a1.06,1.06,0,0,0-.06-1.5.8.8,0,0,0-.21-.15A11.51,11.51,0,0,1,33.29,19a1.68,1.68,0,0,1-.12-2.38l.12-.13c1.27-1.32,2.57-2.63,3.9-3.9a1.74,1.74,0,0,1,2.44-.17,1.45,1.45,0,0,1,.21.22c.5.47,1,1,1.45,1.45s.57.59,1.1.32,1-.43.91-1.18a14,14,0,0,1,0-2.24A1.67,1.67,0,0,1,45,9.31H50.7a1.64,1.64,0,0,1,1.71,1.55v.07a11.7,11.7,0,0,1,0,2.05,1.22,1.22,0,0,0,.87,1.41c.7.31.95-.13,1.31-.48s.94-.9,1.41-1.37a1.67,1.67,0,0,1,2.35-.09l.09.09c1.38,1.3,2.72,2.65,4,4a1.66,1.66,0,0,1,.09,2.35l-.16.15a18.12,18.12,0,0,1-1.58,1.58.84.84,0,0,0-.23,1.05c.25.67.57,1,1.35.92a10.46,10.46,0,0,1,1.77,0,1.77,1.77,0,0,1,2,1.52,2,2,0,0,1,0,.42v5.24a1.82,1.82,0,0,1-1.62,2,1.21,1.21,0,0,1-.38,0H61.53a1.11,1.11,0,0,0-.76.48A1.93,1.93,0,0,0,62,34.68a1.55,1.55,0,0,0,.31.07C64.3,35,65,35.82,65,37.81V53.87c0,2.58-.82,3.41-3.4,3.41H22.49v4.56H73.31V4.09c0-1.26,0-1.26-1.32-1.26H23.74c-1.31,0-1.31,0-1.31,1.28V34.78ZM81.9,11.25v6a3,3,0,0,1-1.25,2.56c-1.3,1-2.56,2-3.87,2.94a1.52,1.52,0,0,0-.69,1.39V61.86H92.87a1.55,1.55,0,0,0,.07-.31V13a1.59,1.59,0,0,0-1.4-1.76h-.25C88.21,11.22,85.13,11.25,81.9,11.25ZM17.5,54.4H62.11V37.64H17.5ZM57.17,15.24c-.54.58-1.05,1.18-1.59,1.72a1.84,1.84,0,0,1-2.52.43c-.62-.29-1.25-.55-1.9-.79a2,2,0,0,1-1.57-2.23V12.21H46.1c.26,2.21.31,4.29-2.53,4.75-2.43,1.83-3.66-.31-4.91-1.5L36,17.86c.58.54,1.15,1,1.67,1.56a1.86,1.86,0,0,1,.45,2.52c-.29.64-.57,1.31-.82,2a2,2,0,0,1-2.09,1.5H32.94v3.44H34.5c2.07,0,2.29.15,3,2.06a4.34,4.34,0,0,0,.36.86A2.48,2.48,0,0,1,38,34.66H57.76c-1.16-1.8.34-3.07.8-4.49.7-2.16,2.78-1,4.23-1.43V25.35c-2.24.29-4.29.29-4.76-2.53-1.82-2.44.36-3.65,1.62-5Zm-9.3,70.41H32.16c-.91,0-1.22.28-1.16,1.18.07,1.08,0,2.18,0,3.27,0,1.33,0,1.33,1.33,1.33H64c.55,0,.79-.22.78-.78V86.91c0-1.25,0-1.24-1.24-1.25Zm-8-9.08v6.2h16v-6.2Zm14.3-11.78H41.55v2.53H54.19Zm24.91-57h-2.9V19.65c1-.74,1.83-1.39,2.66-2.07a.87.87,0,0,0,.25-.65c0-3,0-6,0-9.13Z"/><path class="cls-1" d="M47.89,46V41.56c0-1.46.5-1.83,1.87-1.85h1.68c3.45,0,5.52,1.82,5.92,5.28a7.48,7.48,0,0,1-.68,4.27,4.9,4.9,0,0,1-4.21,3c-1,.07-2,.09-3,.07A1.47,1.47,0,0,1,47.87,51a1.29,1.29,0,0,1,0-.34V46Zm2.89,3.39c1.27.13,2.5.25,3.19-1a4.58,4.58,0,0,0-.07-4.8c-.74-1.19-1.95-1-3.12-.85Z"/><path class="cls-1" d="M46,51.21c-.27.31-.55.91-1,1a3,3,0,0,1-1.49-.2.61.61,0,0,1-.29-.45C43,49.94,42,49.78,40.68,50a2.62,2.62,0,0,1-.56,0,1.62,1.62,0,0,0-2,1,2.05,2.05,0,0,0-.07.34,1.35,1.35,0,0,1-1.56,1.1,1.19,1.19,0,0,1-.32-.1,1.45,1.45,0,0,1-.77-1.9l0-.1q1.76-4.77,3.6-9.51a1.65,1.65,0,0,1,1.59-1.21,1.57,1.57,0,0,1,1.57,1.1c1.23,3.24,2.45,6.5,3.68,9.75C45.88,50.62,45.92,50.81,46,51.21Zm-4.49-4.1-1-2.47-.93,2.47Z"/><path class="cls-1" d="M29.31,39.56a23.8,23.8,0,0,1,2.61.93,1.39,1.39,0,0,1,.92,1.74,1.19,1.19,0,0,1-.11.26,1.44,1.44,0,0,1-2.17.49,3.58,3.58,0,0,0-5,4.84,3.42,3.42,0,0,0,3.63,1.72,3.5,3.5,0,0,0,1.44-.78c.81-.64,1.57-.72,2.16-.14a1.48,1.48,0,0,1-.18,2.22c-2.24,2.33-6.47,2.09-8.74-.55a6.09,6.09,0,0,1-1-6.95C24,40.86,26,39.66,29.31,39.56Z"/><path class="cls-1" d="M53.68,27.1a5.73,5.73,0,1,1,0-.1Zm-5.79,3a3,3,0,1,0-3-3A3,3,0,0,0,47.89,30.1Z"/></g></g></g></svg>