<svg id="Layer_1" data-name="Layer 1" xmlns="http://www.w3.org/2000/svg" viewBox="0 0 292.01 57.73"><defs><style>.cls-1{fill:#fff;}</style></defs><title>call of duty</title><path class="cls-1" d="M-307.61,347.73c-7.82,8.53-16.83,8.95-26.33,6.31-5.38-1.49-8.86-5.08-9.61-10.91-1.37-10.79-.9-21.6-.36-32.4.19-3.84,2.41-6.84,5.47-9.16,6.82-5.2,20.66-5.08,27.35.22,4.24,3.36,7.22,15.15,5.12,19.88a2.71,2.71,0,0,1-2.8,1.62c-3.33,0-6.66,0-10,0-2.39,0-3.15-1.51-3.22-3.57-.1-2.82-.09-5.66-.21-8.48-.07-1.66-.73-2.93-2.64-3a2.51,2.51,0,0,0-2.93,2.66q-.06,15.74,0,31.46a2.6,2.6,0,0,0,2.45,2.71A2.64,2.64,0,0,0-322,342.7a59.81,59.81,0,0,0,.68-7.43c.05-2.51,1.12-3.67,3.63-3.6,1.5.05,3,0,4.49,0,7.29,0,7.29,0,7.75,7.16,1.75-11.86,3.57-23.53,5.15-35.22.47-3.48,2-5,5.51-4.83,4.66.18,9.33.19,14,0,3.58-.15,4.9,1.4,5.43,4.85,2.1,13.64,4.46,27.25,6.73,40.87a13.76,13.76,0,0,0,1.74,5.27c0-13.2-.05-26.39,0-39.58.07-13.37-1.34-11.16,11.92-11.52,3.84-.1,5,1.6,4.94,5-.06,10.66.1,21.32-.07,32-.07,4.19.78,6.66,5.72,6.45s3.48,3.78,3.7,6.53c.24,2.94-.19,5.36-4,5.36-11.14,0-22.27.12-33.41.16-1.5,0-3.49,0-3.79-1.72a33.77,33.77,0,0,0-5.14-12.95c-1.4-2.15-2.76-5.94,1-8.41,1.07-.7.36-2.17.22-3.3-.51-4.13-1-8.26-1.85-12.42-1.3,10.13-2.69,20.25-3.87,30.4-1,8.56-.9,8.33-9.57,8.53C-305.48,354.37-307.67,353-307.61,347.73Z" transform="translate(344.45 -297.74)"/><path class="cls-1" d="M-70.66,317.16c1.87-5.6,3.3-10.2,5-14.71,1.14-3.11,10.45-5,12.65-2.7,1.12,1.19.44,2.56.07,3.77-1.53,4.92-3,9.89-4.82,14.7-3.71,9.75-6.17,19.67-5.08,30.2.42,4-1.21,5.63-5.38,5.67-10.08.09-10.57.22-9.92-9.9.69-10.78-3.79-20.12-6.71-29.94-1.12-3.76-4.09-3.33-6.91-3.15-3.24.2-2.82,2.71-2.83,4.83,0,10.66-.2,21.32.07,32,.12,4.51-1.29,6.2-5.91,6.2-10.68,0-10.66.16-10.61-10.61,0-9-.07-18,.07-27,.06-3.6-.81-5.75-4.95-5.58-5.47.22-4-4-4.29-7.08-.31-3.44,1.26-4.82,4.63-4.81q17.24.06,34.47-.07c3.1,0,4.93,1.1,5.82,4.21C-74.09,307.49-72.51,311.7-70.66,317.16Z" transform="translate(344.45 -297.74)"/><path class="cls-1" d="M-197.95,326.39c0-7.49.09-15,0-22.45-.06-3.7,1.15-5.52,5.19-5.3,7.29.39,14.64-.51,21.89.94s9.74,4.54,10.3,11.85a210.72,210.72,0,0,1,0,31.88c-.47,6.33-3.14,9.17-9.49,10-7.62,1-15.28.52-22.91.69-3.72.08-5-1.73-4.94-5.19C-197.88,341.35-197.94,333.87-197.95,326.39Zm16.2.19c0,4.31,0,8.62,0,12.93,0,1.77-.32,3.95,2.44,4,2.39.05,3.14-1.63,3.15-3.63q.07-13.68,0-27.36c0-1.86-.78-3.23-2.92-3.24-2.32,0-2.65,1.57-2.66,3.36C-181.75,317.29-181.74,321.94-181.75,326.58Z" transform="translate(344.45 -297.74)"/><path class="cls-1" d="M-158.3,322.15c0-5.82.13-11.66,0-17.48-.11-3.54,1-5.13,4.81-5.07,12.85.23,10.74-1.05,10.89,10.41.12,8.66,0,17.32,0,26a19.54,19.54,0,0,0,.23,4c.38,1.81-.08,4.56,2.78,4.53s2.4-2.76,2.41-4.59c.08-10.66,0-21.32.1-32,0-2.66-1.45-6.55,1.69-7.7,4-1.45,8.55-1,12.78-.07,1.67.39,1.55,2.44,1.54,3.89-.17,12.65.7,25.31-.57,37.94a14.66,14.66,0,0,1-1,4.33c-2.82,6.46-11.49,9.9-20.71,8.35-9.74-1.63-14.13-5.78-14.85-14,0-.5-.07-1-.07-1.5v-17Z" transform="translate(344.45 -297.74)"/><path class="cls-1" d="M-222.65,320.46c0,5.67.11,11.33,0,17-.09,3.16,1.06,4.82,4.31,4.48,5.63-.6,5.45,3,5.58,7,.15,4.54-2.3,5.22-6,5.13-5.33-.14-10.66-.1-16-.05-3.11,0-4.48-1.3-4.46-4.51q.12-23.24,0-46.47c0-3.22,1.42-4.39,4.56-4.35,14.41.17,11.67-1.43,12,11.3C-222.59,313.47-222.66,317-222.65,320.46Z" transform="translate(344.45 -297.74)"/><path class="cls-1" d="M-208.59,321.57a46.78,46.78,0,0,1-.42,5.94c-.59,2.94-2.8,3.92-5.59,3.75s-4.49-1.45-4.64-4.22c-.19-3.47-.1-7-.1-10.44,0-3.26,1.72-4.85,4.93-4.92s5.18,1.22,5.55,4.42a47.33,47.33,0,0,1,0,5.46Z" transform="translate(344.45 -297.74)"/><path class="cls-1" d="M-208.09,321.24c0-1.82-.11-3.65,0-5.46.25-3.61,3.29-5.3,6.65-3.88,1.42.6,1.94,2,1,2.65-3,1.92-.15,4.36-.5,5.25-1.36,3.47-1.41,7.16-2.69,10.55-.16.45-1.43.67-2.19.67a2.13,2.13,0,0,1-2.09-2.33c-.11-2.48,0-5,0-7.45Z" transform="translate(344.45 -297.74)"/></svg>