<svg id="Layer_1" data-name="Layer 1" xmlns="http://www.w3.org/2000/svg" viewBox="0 0 1024 1024"><defs><style>.cls-1{fill:#fff;}</style></defs><path class="cls-1" d="M777,771.42c-2.06-1.49-3.76-2.66-5.4-3.93-34.4-26.76-68.74-53.62-103.27-80.22-4.28-3.3-5.82-6.72-5.81-12.09q.56-247.11.84-494.23c0-10-1.57-7.61,7.34-13.32,33.53-21.47,67.15-42.78,100.59-64.38,4.11-2.66,6.92-2.9,11.14-.09q34.79,23.19,70,45.66c4.77,3,6.62,6.29,6.61,12q-.27,198.08-.14,396.14c0,47.16-.08,94.32.12,141.48,0,5.1-1.39,8.43-5.44,11.64-23.82,18.86-47.41,38-71.09,57.06C780.88,768.49,779.19,769.72,777,771.42Z"/><path class="cls-1" d="M246.88,771.2c-1.9-1.42-3.6-2.59-5.2-3.88-24-19.32-47.93-38.72-72-57.91-3.49-2.78-4.69-5.72-4.69-10.1q.15-270.09,0-540.19c0-4.48,1.29-7.19,5.13-9.66,24.14-15.52,48.12-31.31,72.17-47,1.39-.91,2.86-1.71,4.57-2.73,1.94,1.19,3.91,2.34,5.83,3.57,33.72,21.55,67.38,43.2,101.23,64.56,4.78,3,6.7,6.25,6.69,12q-.19,128.92.06,257.84.08,118.85.25,237.7c0,5.13-1.47,8.37-5.57,11.54-34.35,26.5-68.51,53.24-102.74,79.91C250.78,768.28,248.94,769.63,246.88,771.2Z"/><path class="cls-1" d="M378,183.42,511.3,268.5l133.14-84.82c2.38,2.23,1.58,4.66,1.58,6.79q0,54.38-.17,108.77-.3,111-.54,221.93c0,5-1.36,7.8-6,10.1q-61.44,30.29-122.6,61.09c-3.5,1.76-6.29,2-9.93.22Q445,561.5,383.1,530.81c-4-2-5.23-4.36-5.23-8.69q0-165.66-.26-331.33C377.6,188.78,377.79,186.76,378,183.42Z"/><path class="cls-1" d="M231,809.4h4.36q23.05,0,33.15,16,3.21,8.5,3.2,23.85v10.47H239.43V841.39q0-12.79-2.91-12.8a2.36,2.36,0,0,0-1.17-.29h-2.61q-4.65,0-4.65,8.72v59.61c0,5,1,7.85,2.9,8.44a15.68,15.68,0,0,0,2.62.29h.87q5,0,5-9.89V877.73H271.7v4.66q0,23.11-5.52,28.78-11.28,13.1-30.83,13.09h-3.19q-20.94,0-30.83-12.22-5.81-5.22-5.81-38.09V862.32q0-32.28,2.62-35.18Q203,816.9,215.87,812A47.19,47.19,0,0,1,231,809.4Z"/><path class="cls-1" d="M295.25,810.93h46.24q.72,0,1.74,9.3,1.17,4.8,16.87,101.48H330.44c-.49,0-1-3.2-1.46-9.59q-.28,0-1.45-11H316.77v-.29q.87-10.69,2-18.32h6.39q0-1.17-5.52-45.94h-.29q0,2.18-10.18,85.19H279Q279,920.41,295.25,810.93Z"/><path class="cls-1" d="M366.93,811.22h32v88.1H418.4v22.39H367.22l-.58-.29.29-.58Z"/><path class="cls-1" d="M425.81,811.22h32v88.1h19.48v22.39H426.1l-.58-.29.29-.58Z"/><path class="cls-1" d="M506.24,811.22h38.09a.25.25,0,0,1,.29.29.25.25,0,0,0,.29-.29q19,1.15,21.81,3.49a20.13,20.13,0,0,1,11,8.72Q581,827.72,581,849v39.84q0,21.87-4.36,25-5.16,7.86-26.75,7.85H506.24Zm32.57,18.9v72.4h1.74q7.56,0,7.56-6.69a103,103,0,0,0,.58-13.08V847.57q0-15.42-2-15.42Q546.66,830.71,538.81,830.12Z"/><path class="cls-1" d="M587.73,810.93h32v83.74q0,10.19,3.48,10.18h.88c2.9,0,4.36-2.33,4.36-7a60.25,60.25,0,0,0,.29-7.56V810.93h32V887.4q0,15.2-2.32,19.77-8.94,16.58-32.86,16.58h-.29q-27.84-.66-35.47-17.74-2-3.78-2-20.64Z"/><path class="cls-1" d="M668.42,810.93h69.2c.39.05.59.24.59.58v21.81h-18.9v88.39h-32a.51.51,0,0,1-.58-.58V833.32h-18.9V811.51C667.89,811.12,668.08,810.93,668.42,810.93Z"/><path class="cls-1" d="M746.78,810.06h28.5q.87,0,8.43,25.29,13.08,39.4,14.83,46.24v39.54a.51.51,0,0,1-.58.58H769.17a.51.51,0,0,1-.58-.58V881.88a.25.25,0,0,1,.29-.29L746.2,810.35Zm74.44,0c.39,0,.58.24.58.58q-13.66,40.71-20.35,62.22h-.58q-2.32-7.85-13.38-41.58,2.63-12.21,4.94-21.22Z"/><path class="cls-1" d="M474,845.53h.61q6.49,0,8.84,5,.62,1.17.61,7.68v5.23q0,7.52-1,8.53a9,9,0,0,1-8.14,4.15h-1.38a9.37,9.37,0,0,1-7.92-3.69q-1.23-1.59-1.23-6.69v-9.22q0-5.35.92-6.76Q467.84,845.54,474,845.53ZM472.87,868q0,3,.69,3l.46.07h.31c.72,0,1.08-.77,1.08-2.3a22.5,22.5,0,0,0,.07-2.38v-12c0-2.41-.15-3.61-.46-3.61,0-.16-.28-.26-.84-.31-.87,0-1.31.79-1.31,2.38Z"/><path class="cls-1" d="M485.68,846.08h14.37V852h-5.84v5.53h5.23V863c0,.1-.05.15-.16.15h-5.07v12.29h-8.53Z"/></svg>