<svg id="Layer_1" data-name="Layer 1" xmlns="http://www.w3.org/2000/svg" viewBox="0 0 241.99 242.26"><defs><style>.cls-1{fill:#fff;}</style></defs><title>Fractured pixel</title><path class="cls-1" d="M-339.07,640.25c-12.65-11.3-13.93-26.19-13.24-41.88a279.76,279.76,0,0,0,0-30.92c-1.65-25,16.3-42.36,36.84-47.11,16.89-3.9,33.83-4,49.75,3.86,17.18,8.5,26.78,22.07,26.2,42-.33,11.44-.51,22.93.05,34.36.73,15.09-1.63,28.91-13.78,40.24,7.58,2,14.38,3.54,21.08,5.45,14.44,4.11,28.06,9.93,39.55,19.9s17.54,22.41,17.62,37.63,0,30.56,0,45.83c0,7.75-2.57,10.39-10.21,10.4h-224c-7,0-7.57-.58-7.58-7.49,0-15.27.23-30.56-.08-45.83-.45-22.47,10.51-37.94,29.14-48.91,13.48-8,28.24-12.35,43.43-15.55,1.3-.27,2.62-.49,3.91-.81C-340.08,641.32-339.84,640.93-339.07,640.25Zm91.74-53.63h-.08c0-7.45,0-14.89,0-22.33,0-12.91-5.73-22.73-16.25-29.78-15.6-10.45-32.88-9.92-50.18-6.37-15.44,3.16-31.79,16.56-30.77,39.2.6,13.33.11,26.71.11,40.07,0,16.67,8.36,29.29,23.83,35.63,14.51,6,29.54,6.17,44.3,1.87,17.4-5.06,30.26-18.59,29.09-39.41C-247.63,599.23-247.33,592.91-247.33,586.62Zm-48,84.59v-.08c-18.51,0-37,0-55.55,0-3.4,0-5.68.1-5.64,4.73.23,23.86.17,47.73.07,71.59,0,3.33.74,4.62,4.42,4.61q56.13-.21,112.26,0c3.68,0,4.4-1.3,4.38-4.64-.12-23.87-.15-47.73,0-71.6,0-4-1.45-4.67-5-4.64C-258.66,671.29-277,671.21-295.32,671.21Zm-.9-7.7h60.71c7.59,0,7.86.27,7.88,7.61,0,13.55.13,27.11,0,40.66,0,3.56,1.64,4,4.53,4.06,3.12.1,4-1.25,3.86-4.09-.14-3.62,0-7.26,0-10.88,0-2.7-.53-5.22,3.8-5.28s4,2.22,3.93,5c-.09,3.43,0,6.87,0,10.31,0,11.91,0,12-12.09,12.47-2.83.11-4.14.74-4.05,3.87.18,6.87.21,13.75,0,20.61-.1,3.35,1.14,4.18,4.31,4.14,11.83-.16,23.67-.25,35.5.05,4.27.11,5-1.5,4.91-5.27q-.28-20.61,0-41.23c.2-15.34-6.21-27.22-18.33-36.25-17.73-13.22-38.61-17.63-59.74-21.33-1.85-.32-3.29.74-4.86,1.38-20,8.1-40,8.25-60,0-1.77-.73-3.36-1.64-5.43-1.31-16.62,2.69-33,6.22-48.06,14.14C-393.81,669.76-405.95,679.7-408,697c-2.08,17.45-.43,35.07-.74,52.62-.05,2.67,1.94,2.34,3.61,2.34,12.41,0,24.82-.08,37.23.07,3.18,0,3.86-1.26,3.76-4.07-.17-4.58,0-9.16,0-13.74,0-10.49.05-10.63-10.25-10.7-4.1,0-6-1.36-5.88-5.62.17-6.11.21-12.23,0-18.33-.11-3,.82-4,3.85-3.94s4.1,1.07,4,4c-.16,3.62,0,7.26-.09,10.88-.11,3.2.17,5.44,4.46,5.36,4.09-.09,4-2.28,3.95-5.18-.07-13.36.21-26.73-.1-40.09-.13-5.64,2-7.26,7.38-7.2C-336.69,663.63-316.46,663.5-296.22,663.51Z" transform="translate(416.89 -517.74)"/><path class="cls-1" d="M-195.07,526.23c-5.53,0-11.07-.18-16.6.07-3.4.15-3.46-1.6-3.56-4.19-.1-2.91.66-4,3.77-4q16.31.24,32.62,0c3,0,3.9.89,3.92,3.88s-.77,4.43-4.13,4.27C-184.38,526.05-189.73,526.23-195.07,526.23Z" transform="translate(416.89 -517.74)"/><path class="cls-1" d="M-199.33,598.56c-5.54,0-11.07-.11-16.61.06-3,.09-3.38-1.38-3.39-3.87s.52-4,3.42-3.94q16.6.13,33.21,0c2.94,0,3.37,1.52,3.38,4s-.41,3.91-3.41,3.8C-188.25,598.42-193.79,598.56-199.33,598.56Z" transform="translate(416.89 -517.74)"/><path class="cls-1" d="M-217.25,550.32c-4.74,0-9.49-.12-14.23,0-2.79.09-4.2-.57-4-3.76.17-2.6.39-4.31,3.68-4.26,9.68.15,19.36.17,29,0,3.31-.05,3.51,1.57,3.63,4.2.14,3.05-.94,4-3.88,3.83C-207.75,550.17-212.5,550.32-217.25,550.32Z" transform="translate(416.89 -517.74)"/><path class="cls-1" d="M-215.1,615.14c4,0,8,.09,11.94,0,2.8-.08,4,.78,4,3.87s-1.25,3.82-4.06,3.78c-8.15-.12-16.31-.16-24.46,0-3.23.07-3.63-1.46-3.69-4.14-.06-2.84,1.12-3.59,3.71-3.5,4.17.13,8.34,0,12.52,0Z" transform="translate(416.89 -517.74)"/><path class="cls-1" d="M-187.19,574.44c-2.48,0-4.95-.07-7.42,0-2.67.09-4.64.16-4.63-3.72s1.69-4.33,4.84-4.2c4.94.2,9.9.24,14.84,0,3.37-.15,4.64.8,4.66,4.42,0,4.13-2.5,3.42-4.87,3.45S-184.72,574.43-187.19,574.44Z" transform="translate(416.89 -517.74)"/><path class="cls-1" d="M-241.89,526.22c-3.48.45-5.72.1-5.55-4.49.21-6.1,4.51-2.88,7-3.43,2.69-.61,4.86-.35,5,3.78C-235.33,527.84-239.19,525.85-241.89,526.22Z" transform="translate(416.89 -517.74)"/><path class="cls-1" d="M-225,574.48c-2.86-.38-6.39,1.47-6.34-3.91,0-5.75,4-3.58,6.69-4,3.16-.47,5.24,0,5.24,4.27C-219.44,576.06-223,573.9-225,574.48Z" transform="translate(416.89 -517.74)"/><path class="cls-1" d="M-175.11,546.12c.69,3.32-.7,4.41-3.94,4.29-2.6-.09-4.32-.25-4.07-3.59.2-2.6-.14-4.87,3.75-4.51C-176.68,542.55-174.22,542.32-175.11,546.12Z" transform="translate(416.89 -517.74)"/><path class="cls-1" d="M-175.07,619.11c.66,3.31-1.32,3.62-3.94,3.67s-4.08-.49-4.13-3.69c-.06-3.5,1.51-3.94,4.44-4C-175.54,615-174.61,616.24-175.07,619.11Z" transform="translate(416.89 -517.74)"/><path class="cls-1" d="M-280.89,557.59c-.5,1.26-1,2.51-1.47,3.74-5.39,13-10.83,26-16.17,39-1.05,2.56-2,4.19-5.3,2.65-2.86-1.31-3.61-2.35-2.27-5.46,5.9-13.59,11.52-27.31,17.21-41,.79-1.9,1.6-3.66,4.1-2.29C-283.27,555-280.82,554.89-280.89,557.59Z" transform="translate(416.89 -517.74)"/><path class="cls-1" d="M-274.2,602c-1-1.52-2-3.14-3.09-4.72-1.26-1.85.27-2.81,1.26-3.84,2.77-2.87,5.52-5.78,8.49-8.45,1.94-1.75,1.66-3-.06-4.6-2.76-2.62-5.31-5.45-8.08-8.06-1.85-1.74-3.17-3.06-.47-5.39,2.08-1.8,3.41-3.26,5.92-.5,4,4.36,8.3,8.38,12.44,12.58,2.14,2.18,2.81,4.52.36,7q-6.84,6.88-13.69,13.74A36.47,36.47,0,0,1-274.2,602Z" transform="translate(416.89 -517.74)"/><path class="cls-1" d="M-313.88,569.77c-1.11,1.16-2.26,2.41-3.46,3.61-9.27,9.36-9.28,9.36-.08,18.44a20.41,20.41,0,0,0,1.64,1.59c2.73,2.11,1.3,3.68-.43,5.56s-3,2.41-5.06.27c-4.18-4.44-8.55-8.71-12.91-13-2.4-2.36-2.34-4.71-.11-7,4.41-4.51,8.91-8.91,13.36-13.36,1-1,2.11-1.92,3.4-.66S-314.48,567.54-313.88,569.77Z" transform="translate(416.89 -517.74)"/><path class="cls-1" d="M-275.86,707.38a20.26,20.26,0,0,1-19.69,20.33A20.15,20.15,0,0,1-316,707.57a19.79,19.79,0,0,1,20-19.9A19.77,19.77,0,0,1-275.86,707.38ZM-296,695.49a11.93,11.93,0,0,0-11.94,12,12.24,12.24,0,0,0,11.78,12.31c6.33.2,12.08-5.37,12.23-11.84A12,12,0,0,0-296,695.49Z" transform="translate(416.89 -517.74)"/></svg>