<svg id="Layer_1" data-name="Layer 1" xmlns="http://www.w3.org/2000/svg" viewBox="0 0 251.27 250.35"><defs><style>.cls-1{fill:#fff;}</style></defs><title>Fractured pixel</title><path class="cls-1" d="M-155.36,385.16c5.33,5.35,8.11,12,9.78,19.22-1.72.92-3.76,1.56-4,4.35,2.74-.63,2.76-3,4-4.3a39.48,39.48,0,0,1,1.7,12.23c-.06,15.39,0,30.78,0,46.17,0,9.49-2.48,11.94-11.73,11.94h-229.1c-9.15,0-9.15,0-9.16-9.39,0-14.8.32-29.61-.11-44.39a57.06,57.06,0,0,1,10.86-36.07c5-5.63,10.92-10.13,16.77-14.75,6.77-2.82,12.69-7.48,20-9.1,2.75,1.09,4.07,5.51,8.15,3.51l1.2,1.18-1.17,1.22a10.6,10.6,0,0,0-6.07,2,35.65,35.65,0,0,0-10.64,4.73l-3,1.65H-358c-12.53,6.83-22.71,15.67-26,30.38-.09,1.09-.17,2.18-.26,3.27l.15,0c-3,8.33-.92,16.93-1.31,25.4l0,3.6v3.52q0,8.9,0,17.77c.83,2.27-2.7,5.9,2.15,6.92l3.59,0,18.92,0h9.51l10.65-.07c.69.08,1.1-.11.86-.91l0-11.84,0-4.47c.15-13.9,2.62-12.11-11.6-11.76-2.54-.23-4.35-1.39-5.06-4l0-21.61.52-2.74h.35l0-.35,1.24-.52c6.24-1,6.3,3.25,6.42,7.48l0,3.53a23.26,23.26,0,0,0,0,8.32c1.72,3,4.55,1.82,6.76,1.33,2.66-.58,1.37-3.22,1.51-5a36.69,36.69,0,0,0-.18-4.68V396.6l0-5.67c.08-3.45.3-6.92.19-10.37s1.39-5.43,4.88-5.78h17.77l10.66,0,3.51,0h2.48l9.36.05,2.48,0,2.32-.08,10.6.06,4.87,0,5.78,0,4.88,0,14.09,0,3.68-.06,8.23,0,5.92,0h10.66c4.69.09,9.39.21,14.08.25,3.38,0,5,1.62,5,5.05,0,3.91.16,7.83.25,11.74l0,4.81q0,10.63,0,21.27c-.07,2.71-.1,5.41-.24,8.11s1.08,3.84,3.8,3.78,4.67-.69,4.71-3.75c0-2.31-.19-4.63-.3-6.94.14-1.76.62-3.57.34-5.27-.73-4.53,1.31-6.07,5.49-5.7a2.71,2.71,0,0,1,2.81,2.72q0,11.25-.05,22.48c-.17.76-.33,1.52-.49,2.28-3.34,2.32-7.17,1.61-10.73,1.32-4.81-.4-6.29,1.51-5.61,5.93.18,1.14.16,2.31.24,3.47l0,10.71v8.28c-.22.76.15,1,.84.92l14.22.07h7.14c7.05.07,14.11,0,21.16.29,2.31.11,2.73-.51,2.33-2.46,0-.8,0-1.6,0-2.4v-22.5c0-1.18,0-2.36,0-3.54.12-8.34.91-16.7-.46-25-.25-2.41-.29-4.86-1.71-7a16.87,16.87,0,0,0-4.5-9.83l-1.51-2.93Zm-51.3,81.46c.06-.41.11-.82.17-1.24q-.1-13.08-.2-26.16c0-1.58,0-3.16,0-4.73V404.87c.1-5.42,0-10.85.33-16.25.26-4.8-1.74-6.43-6.28-5.27a9.88,9.88,0,0,0-5.92-.07,22.07,22.07,0,0,0-8.3,0,6.49,6.49,0,0,0-4.73,0,43.64,43.64,0,0,0-13,0l-2.5,0a151,151,0,0,0-24.89,0,7.29,7.29,0,0,0-4.57,0,174.65,174.65,0,0,0-26.18,0l-2.29,0c-5-.83-10.12-.52-15.19-.17h-2.93c-8.33-.52-8.36-.52-8.3,7.69,0,4.27.19,8.55.29,12.83a23.41,23.41,0,0,0,0,8.47v22.34l0,2.36q0,13,0,26.07c-1.25,4.86,2.67,3.12,4.75,3.72.25.85,0,2.21,1.46,1.95.41-.07.62-1.26.92-1.94l2.38-.37h20.11l1.2.37c.13,2.31.67,4.32,3.56,4.32s3.42-2,3.55-4.32l1.2-.38,20.11,0,8.32,0,20.12,0,4.76,0H-215l7.17.38c.24.78-.21,2,1.23,2.05Z" transform="translate(394.02 -224.43)"/><path class="cls-1" d="M-155.36,385.16l-5.25,5.76c-5.22-5.61-10.51-11.15-17.69-14.34-1.86-2.18-4.44-3-7.06-3.77-11.06-6.21-23.21-9.05-35.51-11.45l-5.59-1.08c-3.22-.23-6.37-2.43-9.63-.65-4.63,2.54-9.7,3.86-14.58,5.71H-255l-2.8-7a7.71,7.71,0,0,1,.1-.84,34.45,34.45,0,0,0,17.91-5.71c8.49-4,14.85-10,18-19,4-7.15,3.17-14.9,2.81-22.6,0-1.19.07-2.38.1-3.57s0-2.56,0-3.84a.68.68,0,0,0,0-.79l0-27.38c.34-4.89.2-9.7-2.09-14.21a2.47,2.47,0,0,0-1-2.39,12.46,12.46,0,0,0-4.29-7.29l-1.38-1.63a30.57,30.57,0,0,0-15.69-11.32,4.66,4.66,0,0,0-3.44-1.46C-251,234-255.45,234-260,234.13c-3.42-2.15-7.12-.72-10.71-.85A42.37,42.37,0,0,0-292,236.75c-6.2,1.08-10.6,5.38-15.58,8.65l-6.95-1.66-1.15-1.2c0-.26-.05-.52-.08-.79l.12-.17c22.52-23.23,71.31-21.94,91.29-1.68,4.94,5,8.35,10.85,11.64,16.89l1.77,7.15.54,23.66a16.59,16.59,0,0,0,0,7v22.57c0,1.56,0,3.12,0,4.68a54.48,54.48,0,0,1-6.1,20.08l-8.08,9.82,19,4.33a4.78,4.78,0,0,0,3.63.95L-190,361l.18.26.31-.05,18.39,9.21a1.2,1.2,0,0,0,.83.76l14.6,12.36Z" transform="translate(394.02 -224.43)"/><path class="cls-1" d="M-184.19,233.27c-2.82-7.34-2.12-8.49,5.24-8.49q15.33,0,30.65,0c2,0,4.65-.77,4.4,2.85-.17,2.53.72,4.68-3.5,5.87-4.42,1.24-7.95-1.05-12-.57-5,.6-10.19.25-15.29.32h-9.5Z" transform="translate(394.02 -224.43)"/><path class="cls-1" d="M-161.67,299.48c3.27.11,6.53.33,9.8.3,2.3,0,3.67.75,3.79,3.18.32,3.86-1.49,5.54-5.29,5.18h-3.54l-4.79.06-4.65-.06h-6l-13.25,0c-.64-.1-1.35-.34-1.41.72l-1.89-.7c-.38-1.72-.75-3.43-1.12-5.15.18-1.57.62-3,2.33-3.53l3.53.11a82.75,82.75,0,0,0,15.42-.09A16.4,16.4,0,0,0-161.67,299.48Z" transform="translate(394.02 -224.43)"/><path class="cls-1" d="M-168.65,250.85c.73,5.53-1.32,8.34-7.22,7.39H-183l-23.51-.6,0,0c-1.28-7.45-1.28-7.45,10.45-8.12h5.94l21.22.41A1,1,0,0,0-168.65,250.85Z" transform="translate(394.02 -224.43)"/><path class="cls-1" d="M-158.15,283.19l-10.61-.41c-.1-.78-.19-1.56-.29-2.34l.62-5.81.31-.13,6.45,0h2.37c2.55.09,5.1.2,7.65.25,8.42.18,7.84-1.37,7.7,7.93l-2.34.4-9.43.07Z" transform="translate(394.02 -224.43)"/><path class="cls-1" d="M-212.68,233.1c-2.83-.23-6.19,1.23-6.15-4.24,0-6.15,4.12-3.7,6.83-4,2.9-.34,5.64-.72,5.59,4.12C-206.46,234.34-209.84,232.91-212.68,233.1Z" transform="translate(394.02 -224.43)"/><path class="cls-1" d="M-152.18,257.92c.87-2.66-2.29-6.71,2.06-8,1.71-.48,5.47-2.06,6.14,2,.57,3.42.47,6.82-4.64,6.24Z" transform="translate(394.02 -224.43)"/><path class="cls-1" d="M-143.87,325.39l.18,2.46v3.56c-7,3.34-8.5,2.26-8.5-5.92h0A16.63,16.63,0,0,1-143.87,325.39Z" transform="translate(394.02 -224.43)"/><path class="cls-1" d="M-146.29,283.12l2.34-.4C-144.49,284.24-145.18,284.93-146.29,283.12Z" transform="translate(394.02 -224.43)"/><path class="cls-1" d="M-205.55,235.47l.07-.07Z" transform="translate(394.02 -224.43)"/><path class="cls-1" d="M-143.69,330.21v-2.36C-142.14,328.63-142.78,329.42-143.69,330.21Z" transform="translate(394.02 -224.43)"/><path class="cls-1" d="M-257.78,358.3l2.8,7-5,1.2a76.89,76.89,0,0,0-15.32-.08h-3.83l-4.55-.6-2.23-.43c-3.08-1.47-6.75-1.27-9.62-3.35-.17-1,.06-2.35-1.21-2.75s-1.45.79-1.95,1.5c-4.4-2.95-9-1.43-13.54-.55L-337,365.76l-1.2-1.18q-.33-3-.68-5.94l5.4-2.44,4.8-1.09,3.13-.38,4.13-1.43,5.87-.52c1.19-.44,4-.12,1.12-2.43l-1.22-1.22c-.44-2.11-1.44-4.28-1.21-6.31.63-5.44-2.44-6.42-6.74-6.38a20,20,0,0,1-2.71-9.77l8.05,1.09,1.32,2.5a9.62,9.62,0,0,0,2.57,5.89c3.18,6.87,8.43,11.65,15.09,15l6.13,3.91c2,5.5,4.6,6.18,9.47,2.47,2.78-.44,5.47,1.37,8.27.3C-269.57,359.17-263.66,358-257.78,358.3Z" transform="translate(394.02 -224.43)"/><path class="cls-1" d="M-346.37,361.07a15.56,15.56,0,0,1,7.47-2.43q.34,3,.68,5.94C-342.3,366.58-343.62,362.16-346.37,361.07Z" transform="translate(394.02 -224.43)"/><path class="cls-1" d="M-145.56,404.43c-1.28,1.28-1.3,3.67-4,4.3.26-2.79,2.3-3.43,4-4.35Z" transform="translate(394.02 -224.43)"/><path class="cls-1" d="M-322.18,251.81a28.12,28.12,0,0,1,6.51-9.27l1.15,1.2c-.15,2.56-1.47,5.64,2.83,6.15l-1.87,2.46-3.31-.32-1.2-1.21h-1.17Z" transform="translate(394.02 -224.43)"/><path class="cls-1" d="M-311.69,249.89c-4.3-.51-3-3.59-2.83-6.15l6.95,1.66-1,1.85a4.23,4.23,0,0,0-2.29,2.62Z" transform="translate(394.02 -224.43)"/><path class="cls-1" d="M-327.43,297l.69-2.29a3.89,3.89,0,0,0,4-3.54,4.34,4.34,0,0,1,3.41-3.63q.22,10.67.46,21.33l-.46,5.91a13.86,13.86,0,0,0-7.37,0l-.72-1.13A92.15,92.15,0,0,0-327.43,297Z" transform="translate(394.02 -224.43)"/><path class="cls-1" d="M-327.29,266.33l.84-1.28,7.22,2.38q.15,2.94.32,5.88l0,5.07-.43,4.44c-3,0-4.4,3.5-7.42,3.49l-.7-2.28Q-327.36,275.18-327.29,266.33Z" transform="translate(394.02 -224.43)"/><path class="cls-1" d="M-326.7,314.78a13.86,13.86,0,0,1,7.37,0v2.38c-4.5,3.4-4.43,4.73.44,8.31l.62,2.25-8.05-1.09-1-2.39-.15-2.35v-4.75Z" transform="translate(394.02 -224.43)"/><path class="cls-1" d="M-326.72,286.31c3,0,4.39-3.51,7.42-3.49l0,4.76a4.34,4.34,0,0,0-3.41,3.63,3.89,3.89,0,0,1-4,3.54l-.77-1.25c0-1.19,0-2.37,0-3.56Z" transform="translate(394.02 -224.43)"/><path class="cls-1" d="M-187,308.83l-1.89-.71Z" transform="translate(394.02 -224.43)"/><path class="cls-1" d="M-168.88,332.55l-21.3.55-4.67.11c-5.89.65-8.18-2.09-7.35-7.78l17.95-.78c3.18.84,6.39.55,9.6.22,5.26-.82,6.2,2.33,6,6.53A2.17,2.17,0,0,0-168.88,332.55Z" transform="translate(394.02 -224.43)"/><path class="cls-1" d="M-190.42,274.67c.78,2.69.51,5.44.37,8.18l-10.67.29-1.25-.3c.58-2.83-2.11-6.61,2.38-8.32h2.38l4.73-.08Z" transform="translate(394.02 -224.43)"/><path class="cls-1" d="M-275.41,400.49a34.43,34.43,0,0,1,15.11.69l2.57,1.54a25.75,25.75,0,0,1,8.8,11.59c.33,1.2.67,2.4,1,3.61v4.71c-1.71,9.16-7,15.23-15.77,18.34l-5.78.7-4-.43a27,27,0,0,1-14.06-10.69l-1.8-4.92q-.07-5-.16-10.06C-286.78,408.7-282.38,403.4-275.41,400.49Zm6.59,32.71a12.74,12.74,0,0,0,12.35-12.54,12.38,12.38,0,0,0-12.78-12.58,12.36,12.36,0,0,0-12,12.69A12.68,12.68,0,0,0-268.82,433.2Z" transform="translate(394.02 -224.43)"/><path class="cls-1" d="M-320.52,343.29q-1.56-3.42-3.1-6.85c4.3,0,7.37.94,6.74,6.38-.23,2,.77,4.2,1.21,6.31l-3.48-3.52A2.26,2.26,0,0,0-320.52,343.29Z" transform="translate(394.02 -224.43)"/><path class="cls-1" d="M-293.17,355.07l2.37-.06,7.1,2.53C-288.57,361.25-291.18,360.57-293.17,355.07Z" transform="translate(394.02 -224.43)"/><path class="cls-1" d="M-295.54,362.08c-1.32.25-2.24-.48-3.16-1.25.5-.71.83-1.85,1.95-1.5S-295.71,361.05-295.54,362.08Z" transform="translate(394.02 -224.43)"/><path class="cls-1" d="M-328.7,355.11c.89-1.41,1.83-2.37,3.13-.38Z" transform="translate(394.02 -224.43)"/><path class="cls-1" d="M-315.57,352.78l1.12-2.43C-311.54,352.66-314.38,352.34-315.57,352.78Z" transform="translate(394.02 -224.43)"/><path class="cls-1" d="M-263.51,276.39c2.53-2.67,4.8-.44,6.82.65,2.57,1.4.38,3.41,0,5.13-.25,1.14-.68,2.23-1,3.34a19.58,19.58,0,0,0-3.18,7.5,82.78,82.78,0,0,0-6.26,15.33c-3.55,6-5.6,12.55-8.19,18.93-7.73-2.43-7.72-2.43-4.91-10.08a27.68,27.68,0,0,0,.73-2.85,57.67,57.67,0,0,0,5.48-13l1.63-3.37q3.36-8.31,6.71-16.63A8.37,8.37,0,0,0-263.51,276.39Z" transform="translate(394.02 -224.43)"/><path class="cls-1" d="M-251.2,310.39c10.31-8.33,10.32-8.34,1.22-17.61-1.63-1.66-3.33-3.26-5-4.89l.2-1.21,2.16-2.1,2.6-2.11c7.24,4,12,10.8,17.59,16.57,1.45,1.5,1,3.64-.57,5.28s-2.85,3.17-4.28,4.75a74.43,74.43,0,0,0-10.46,10.54c-3.36,1.3-4.69-1.65-6-3.44C-255.77,313.4-251.65,312.54-251.2,310.39Z" transform="translate(394.02 -224.43)"/><path class="cls-1" d="M-294.57,301.76c2.74,4.67,8.54,6.79,10.27,12.31l-4.56,4.38c-4.82-2.26-7.27-7.23-11.58-10.07l-1.31-1.1c-6.48-8.22-6.48-8.22-1.36-14.29a13.79,13.79,0,0,0,4.71-4.65c1.72-1.6,3.26-3.47,5.21-4.69,1.42-.9,1.44-4.51,4.19-2.69,2.1,1.39,5.13,2.46,4.32,6.07-3.55,3.4-7.06,6.85-10.66,10.19C-297.53,299.24-296.66,300.56-294.57,301.76Z" transform="translate(394.02 -224.43)"/><path class="cls-1" d="M-322.18,251.81l2.94-1h1.17l1.2,1.21,2.68,1.17-4.15,10.65c-3.38-.35-5.93-1-3.33-5.33,1.21-2-.59-2.64-2.25-2.94Z" transform="translate(394.02 -224.43)"/><path class="cls-1" d="M-323.92,255.58c1.66.3,3.46.93,2.25,2.94-2.6,4.3-.05,5,3.33,5.33-.08,1.11-.15,2.22-.23,3.33a3.74,3.74,0,0,0-.66.25l-7.22-2.38A16.32,16.32,0,0,1-323.92,255.58Z" transform="translate(394.02 -224.43)"/><path class="cls-1" d="M-314.19,253.2l-2.68-1.17,3.31.32A.84.84,0,0,1-314.19,253.2Z" transform="translate(394.02 -224.43)"/><path class="cls-1" d="M-318.07,250.82h0Z" transform="translate(394.02 -224.43)"/><path class="cls-1" d="M-319.34,317.2q.22,4.16.44,8.31C-323.77,321.93-323.84,320.6-319.34,317.2Z" transform="translate(394.02 -224.43)"/><path class="cls-1" d="M-297.71,471c3.21,0,3.22-5,0-5s-3.22,5,0,5Z" transform="translate(394.02 -224.43)"/><path class="cls-1" d="M-297.71,471c3.21,0,3.22-5,0-5s-3.22,5,0,5Z" transform="translate(394.02 -224.43)"/><path class="cls-1" d="M-293.6,472.39c3.21,0,3.22-5,0-5s-3.23,5,0,5Z" transform="translate(394.02 -224.43)"/><path class="cls-1" d="M-293.6,472.39c3.21,0,3.22-5,0-5s-3.23,5,0,5Z" transform="translate(394.02 -224.43)"/><path class="cls-1" d="M-323.74,472.39c3.22,0,3.22-5,0-5s-3.22,5,0,5Z" transform="translate(394.02 -224.43)"/><path class="cls-1" d="M-323.74,472.39c3.22,0,3.22-5,0-5s-3.22,5,0,5Z" transform="translate(394.02 -224.43)"/><path class="cls-1" d="M-293.6,469.65c3.21,0,3.22-5,0-5s-3.23,5,0,5Z" transform="translate(394.02 -224.43)"/><path class="cls-1" d="M-293.6,469.65c3.21,0,3.22-5,0-5s-3.23,5,0,5Z" transform="translate(394.02 -224.43)"/><path class="cls-1" d="M-325.11,469.65c3.22,0,3.22-5,0-5s-3.22,5,0,5Z" transform="translate(394.02 -224.43)"/><path class="cls-1" d="M-325.11,469.65c3.22,0,3.22-5,0-5s-3.22,5,0,5Z" transform="translate(394.02 -224.43)"/></svg>