<svg xmlns="http://www.w3.org/2000/svg" viewBox="0 0 301.32 301.99"><defs><style>.cls-1{fill:#fff;}</style></defs><g id="Layer_2" data-name="Layer 2"><g id="Layer_1-2" data-name="Layer 1"><path class="cls-1" d="M80.64,9.74c20.21-16.9,73.67-11,107.17,11.71C237.16,55,250.63,108.08,227.1,177.32c11,1,20.6,3.37,18.45,18.09-.25,1.76,3.72,4.41,6,6.23,22.34,17.5,41.11,37.67,48.37,66.1,6.09,23.86-9,39.51-32.58,32.61-11.78-3.45-22.66-10.22-33.63-16.07-2.82-1.51-4.45-5.24-6.62-7.95l2.37-3.16c3.77,1.79,7.46,3.74,11.31,5.32,11.8,4.82,23.31,11.05,35.59,13.76,10.44,2.31,16.38-4.28,15.54-15.08a66.33,66.33,0,0,0-5.56-21.32c-8.85-19.87-28.57-40.59-45.51-49.56l-35.88,36c4.65,5.74,10.23,12.18,15.22,19.05,1.45,2,1.23,5.2,1.77,7.86-2.67-.6-6-.38-7.84-2a75,75,0,0,1-10-11.51c-4.17-5.52-7.69-9.77-16.26-10.49-5-.41-9.15-10.07-14.58-16.64-28.11,13.45-60,17.15-92.66,5.24C32.88,216.37,5.4,181.43.65,131.54-4,82.52,16.75,44,58.49,17.27c1-.63,2-1.56,3.08-1.64,3.37-.26,6.76-.17,10.15-.21-1.78,2.56-3.1,5.66-5.41,7.6-9.56,8-20.48,14.7-29,23.69C6.14,79.74,0,131.9,21.57,172.6S89.25,237.19,134.65,231c46.36-6.33,84.78-41.9,93.94-87C245.14,62.55,174.11-6.28,92.87,12.41c-3.92.91-8.07.78-12.12,1.13C80.72,12.27,80.68,11,80.64,9.74ZM189.73,239.09c19.74-13.37,36.05-28.64,49.47-50.77-26.2-4.1-31.93,19.51-46.46,28.68C186.78,220.77,183.28,229.3,189.73,239.09Z"/><path class="cls-1" d="M28,120C28.13,69,69,28.51,120.23,28.56c51.54,0,92,41.12,91.76,93.12-.25,50.8-41.37,91-92.83,90.85C68.2,212.34,27.9,171.44,28,120Zm23.9,46.88c0-19.95.2-36.73-.09-53.5-.12-7,2.4-10.13,9.61-9.72,6.55.37,13.14.08,21,.08,0-10.52.4-19.86-.11-29.15-.47-8.35,2.92-11,11-10.76,17.66.45,35.36.52,53,0,8.63-.27,11.88,2.33,11.57,11.29-.59,17.14-.17,34.31-.17,52.51,4.73,0,8.17,0,11.6,0,19.44.08,18.78-2.7,18.72,19.36,0,5.66,0,11.32,0,18.42,19.56-20.56,23-72.77-9.48-104.08-30.72-29.64-79.24-32.2-111.44-5C34.38,84,26.74,131.65,51.92,166.91Zm54.5,36.72c11.25-.51,20.9-.73,30.52-1.45,8.79-.65,12.22-5,12-14.52-.69-30.55-.26-61.12-.26-91.68V73.92H92.6v29.2l13.82,1.57ZM61.08,113.24c0,21.35-.08,42,.12,62.71,0,2.05,1.23,4.92,2.83,6,10.41,6.92,21.08,13.45,33.43,21.22V113.24Zm97.13,79,3.21,2.66c5.84-6.53,15-12.26,16.77-19.77,2.85-11.76.76-24.71.76-37.51H158.21Z"/><path class="cls-1" d="M122.22,158.09l-6.73,9.34c-1.43-3.59-4.06-7.22-3.94-10.76.11-3.37,3.08-6.64,4.79-10Z"/><path class="cls-1" d="M141.25,99l-7.94,11.43c-1.28-3.31-3.59-6.62-3.55-9.9,0-3.66,2.21-7.29,3.46-10.93Z"/><path class="cls-1" d="M118.41,115.9v23.17l-4.73.49c-.77-5.34-2.15-10.7-2-16C111.71,121.46,115.13,119.45,118.41,115.9Z"/><path class="cls-1" d="M140.92,127.76,134.24,139c-1.58-3.37-4.33-6.71-4.44-10.12s2.36-7.09,3.7-10.64Z"/><path class="cls-1" d="M140.94,156.86,134,167.44c-1.5-3.42-4.16-6.82-4.19-10.24s2.55-7,4-10.47Z"/><path class="cls-1" d="M122.24,185.63,116,195.94c-1.6-3.41-4.44-6.82-4.45-10.24s2.73-7,4.27-10.5C117.78,178.39,119.75,181.57,122.24,185.63Z"/><path class="cls-1" d="M140.93,186.35l-7.4,9.59c-1.35-3.53-3.83-7.09-3.73-10.58s2.83-6.79,4.4-10.19Z"/><path class="cls-1" d="M118.4,110.54c-10.18-9.62-8.89-18.16,0-20.25Z"/><path class="cls-1" d="M79.8,163.77l-6.87,10.52c-1.55-3.48-4.3-7-4.31-10.46s2.77-6.86,4.32-10.3Z"/><path class="cls-1" d="M79.77,129.91l-7.26,9.31c-1.41-3.57-4-7.19-3.89-10.72.12-3.37,3-6.66,4.74-10C75.24,121.85,77.12,125.19,79.77,129.91Z"/><path class="cls-1" d="M80,129.89l5.78-11.35c1.59,3.33,4.34,6.61,4.44,10,.1,3.54-2.33,7.15-3.66,10.73Z"/><path class="cls-1" d="M83.5,174.54c-.33-6.25-.78-12.5-.81-18.76,0-.76,2.32-2.17,3.52-2.12s3.26,1.52,3.3,2.46c.3,6.07.16,12.17.16,18.27Z"/></g></g></svg>