<svg xmlns="http://www.w3.org/2000/svg" viewBox="0 0 94.56 91.52"><defs><style>.cls-1{fill:#fff;}</style></defs><title>hashitout_1</title><g id="Layer_2" data-name="Layer 2"><g id="Layer_1-2" data-name="Layer 1"><g id="pg_1_front" data-name="pg 1 front"><path class="cls-1" d="M0,67.36V5.12c.2-.48.37-1,.59-1.42C1.92,1,4.19,0,7.07,0h80.8c4.13.1,6.69,2.73,6.69,6.85V65.76a7.81,7.81,0,0,1-.14,1.74,6.24,6.24,0,0,1-6.48,5H56.88A12.73,12.73,0,0,0,58,78a6.09,6.09,0,0,0,5.22,3.84c1.47.13,3,.1,4.43.15a4.75,4.75,0,0,1,4.1,7.25A5.12,5.12,0,0,1,67,91.5H26.87A4.82,4.82,0,0,1,22.25,88a4.48,4.48,0,0,1,1.81-5.11A8.25,8.25,0,0,1,27.17,82c1.67-.21,3.41,0,5-.34,3.65-.75,5.47-4.73,5.41-9.12H6.8A6.06,6.06,0,0,1,2,70.73,19.06,19.06,0,0,1,0,67.36ZM45.62,9.58h-36v47h36Zm3.34,0V56.63h36.1V9.58ZM3.17,60c0,2.2-.08,4.32,0,6.44a3.09,3.09,0,0,0,3.1,3H87.82c2.32,0,3.58-1.28,3.6-3.61V60.7a2.52,2.52,0,0,0-.07-.71Zm88.25-3.34V7.18c0-2.19-1.09-3.93-3.86-3.93Q47.29,3.28,7,3.2A3.52,3.52,0,0,0,3.12,6.32a3.66,3.66,0,0,0,0,.74q.06,24.29,0,48.57v1H6.28V8.44c0-1.58.57-2.15,2.16-2.18h1.94l75.44.07c2,0,2.46.44,2.46,2.42v47.9ZM41,72.59c-.27,3.37-1,6.57-3.2,9.3h19c-2.29-2.76-2.92-6-3.24-9.3Zm6.32,15.68h20c1.32,0,2-.51,2-1.53s-.65-1.54-2-1.55H29.18a21.65,21.65,0,0,0-2.67.08,1.4,1.4,0,0,0-1.24,1.54v0c0,1,.68,1.44,2,1.44Z"/><path class="cls-1" d="M16.35,47.31c1.11,1.08,2.1,2,3.08,3a6.55,6.55,0,0,1,.58.6,1.58,1.58,0,0,1,0,2.23h0a1.52,1.52,0,0,1-2.15.08.6.6,0,0,1-.08-.08C16.18,51.59,14.58,50,13,48.4a1.46,1.46,0,0,1-.11-2.06,1.29,1.29,0,0,1,.17-.16c1.53-1.56,3.07-3.1,4.64-4.62A1.61,1.61,0,0,1,20,43.8c-.57.61-1.17,1.19-1.76,1.76S17,46.66,16.35,47.31Z"/><path class="cls-1" d="M38.78,47.3l-3.54-3.46a1.49,1.49,0,0,1-.44-1.76,2,2,0,0,1,1.21-1,2,2,0,0,1,1.46.5c1.58,1.47,3.09,3,4.59,4.54a1.54,1.54,0,0,1,.19,2.17,1.7,1.7,0,0,1-.19.19C40.55,50,39,51.53,37.52,53a1.59,1.59,0,0,1-2.22.29l-.16-.15a1.61,1.61,0,0,1,0-2.29l.1-.09C36.4,49.64,37.55,48.53,38.78,47.3Z"/><path class="cls-1" d="M29.94,19.71V25c0,1.16-.65,1.89-1.58,1.89s-1.57-.75-1.57-1.9V14.53c0-1.18.6-1.86,1.59-1.85s1.55.66,1.56,1.86C30,16.26,29.94,18,29.94,19.71Z"/><path class="cls-1" d="M25.56,53.66a1.66,1.66,0,0,1-1.7-2.41c.62-1.37,1.33-2.7,2-4,.86-1.73,1.72-3.46,2.6-5.18a1.58,1.58,0,0,1,1.71-1,1.41,1.41,0,0,1,1.29,1.25,2.33,2.33,0,0,1-.22,1.22c-1.48,3-3,6.06-4.53,9.06A4.46,4.46,0,0,1,25.56,53.66Z"/><path class="cls-1" d="M29.93,33.2v1.57A1.59,1.59,0,0,1,28.4,36.3a1.56,1.56,0,0,1-1.57-1.41,34.24,34.24,0,0,1,0-3.51A1.5,1.5,0,0,1,28.4,30a1.53,1.53,0,0,1,1.52,1.43V33.2Z"/><path class="cls-1" d="M61.43,41.05h-7.1a2.22,2.22,0,0,1-1.17-.14,3,3,0,0,1-1.07-1.32,1.24,1.24,0,0,1,.84-1.54h0a3.37,3.37,0,0,1,1.26-.21H68.75a3.57,3.57,0,0,1,1.17.17,1.53,1.53,0,0,1-.12,2.91,4.35,4.35,0,0,1-1.19.13C66.22,41.06,63.82,41.05,61.43,41.05Z"/><path class="cls-1" d="M72.49,47.37H65c-1.57,0-2.42-1.21-1.75-2.39a1.92,1.92,0,0,1,1.91-.84H79.93c1.28,0,2.06.66,2,1.64s-.78,1.57-2,1.58C77.47,47.38,75,47.37,72.49,47.37Z"/><path class="cls-1" d="M72.49,53.66H65.21A4.11,4.11,0,0,1,64,53.49a1.54,1.54,0,0,1,.14-2.92,5.42,5.42,0,0,1,1.27-.12h14.7c1.16.07,1.88.71,1.86,1.63s-.76,1.56-1.92,1.58H72.49Z"/><path class="cls-1" d="M72.45,34.72H64.8c-1.39,0-2.22-1.24-1.53-2.28a2.17,2.17,0,0,1,1.49-.85c5.16-.06,10.32,0,15.48,0A1.63,1.63,0,0,1,82,33.08v0a1.58,1.58,0,0,1-1.58,1.58H72.48Z"/><path class="cls-1" d="M61.44,28.41H54c-1.26,0-2-.58-2-1.57s.72-1.57,2-1.57H69.11a1.63,1.63,0,0,1,1.79,1.26,1.49,1.49,0,0,1-.9,1.72,2.83,2.83,0,0,1-1.08.15Z"/><path class="cls-1" d="M72.52,19h7.83A1.58,1.58,0,0,1,82,20.51v0a1.63,1.63,0,0,1-1.61,1.57H64.88A1.59,1.59,0,1,1,64.32,19a1.75,1.75,0,0,1,.56,0h7.65Z"/><path class="cls-1" d="M61.43,15.82H53.87a1.65,1.65,0,0,1-1.75-1.07,1.52,1.52,0,0,1,.85-2,1.64,1.64,0,0,1,.49-.1c.91-.06,1.84,0,2.76,0H69.3a1.56,1.56,0,0,1,1.62,1.5v0a1.58,1.58,0,0,1-1.55,1.61H61.43Z"/><path class="cls-1" d="M78,37.84h2.21A1.67,1.67,0,0,1,82,39.36v.06A1.61,1.61,0,0,1,80.36,41H80.3c-1.5.06-3,.06-4.51,0a1.61,1.61,0,0,1-1.71-1.51v-.14c0-.9.74-1.5,1.84-1.54H78Z"/><path class="cls-1" d="M56,44.14h2.12c1.11.06,1.76.66,1.78,1.58a1.59,1.59,0,0,1-1.54,1.64H53.75A1.6,1.6,0,0,1,52,45.91a.66.66,0,0,1,0-.14,1.63,1.63,0,0,1,1.63-1.63h.11C54.5,44.1,55.24,44.14,56,44.14Z"/><path class="cls-1" d="M55.92,53.66H53.8A1.63,1.63,0,0,1,52,52.21a.66.66,0,0,1,0-.14,1.56,1.56,0,0,1,1.52-1.6h.14q2.25-.09,4.5,0a1.53,1.53,0,0,1,1.67,1.38,1.31,1.31,0,0,1,0,.28,1.6,1.6,0,0,1-1.66,1.53H58.1C57.39,53.69,56.65,53.66,55.92,53.66Z"/><path class="cls-1" d="M55.87,22.1h-2.3A1.52,1.52,0,0,1,52,20.63v-.14A1.5,1.5,0,0,1,53.51,19h4.82a1.49,1.49,0,0,1,1.54,1.44v.15a1.52,1.52,0,0,1-1.5,1.52h0C57.52,22.13,56.7,22.1,55.87,22.1Z"/><path class="cls-1" d="M78.05,15.82h-2.3a1.61,1.61,0,0,1-1.67-1.55v0a1.56,1.56,0,0,1,1.56-1.56h4.64A1.6,1.6,0,0,1,82,14.16v.08a1.65,1.65,0,0,1-1.71,1.58Z"/><path class="cls-1" d="M78,28.39H75.61a1.56,1.56,0,0,1,0-3.12h4.78a1.56,1.56,0,0,1-.08,3.12H78Z"/><path class="cls-1" d="M55.94,34.69c-.82,0-1.65.05-2.48,0A1.48,1.48,0,0,1,52,33.19v0a1.46,1.46,0,0,1,1.34-1.57h0c1.71-.08,3.43-.08,5.14,0a1.55,1.55,0,0,1-.11,3.08C57.6,34.74,56.77,34.69,55.94,34.69Z"/><path class="cls-1" d="M47.28,63.09H51.8c1.12,0,1.76.6,1.76,1.56A1.56,1.56,0,0,1,52,66.24H42.8A1.56,1.56,0,0,1,41,64.91a1.06,1.06,0,0,1,0-.25c0-.95.65-1.55,1.76-1.56C44.27,63.08,45.78,63.09,47.28,63.09Z"/></g></g></g></svg>