<svg xmlns="http://www.w3.org/2000/svg" viewBox="0 0 352.39 352.31"><defs><style>.cls-1{fill:#fff;}</style></defs><g id="Layer_2" data-name="Layer 2"><g id="Layer_1-2" data-name="Layer 1"><path class="cls-1" d="M.32,164.2c0-49.46.32-98.93-.24-148.38C0,4.23,2.5-.12,15.13,0Q112,1,208.86,0c12-.11,14.47,4,14.39,15-.45,59.08,0,118.16-.45,177.23-.08,10.39,2,14.07,13.29,13.81,34.33-.82,68.7,0,103-.5,10.3-.16,13.34,3.17,13.21,13.38-.52,39.84-.6,79.69,0,119.52.18,11.21-3.54,13.91-14.22,13.84q-103.73-.63-207.46,0c-9.2,0-14.27-2.12-12.81-12.12,1.29-9-2.08-12.51-11.36-11.67-8.18.75-16.48.38-24.72.1-9.38-.33-17.53-1.08-18.87,12.55C62.2,348.57,54.26,352.63,46,352c-7.48-.57-14.42-4.59-14.89-11.84-.73-11-6.2-12.77-15-11.5C3.47,330.45-.19,325.34,0,312.57.77,263.12.32,213.66.32,164.2Zm11.43.25q0,70,0,140c0,6.08-2,12.5,8.81,12.48,10.1,0,9.47-5.22,9.44-12-.12-38.89.52-77.79-.37-116.67C29.34,174.5,35,163.67,41,152.51c3.52-6.54,8.45-7.19,12.15-.54C59.25,163,65.31,173.84,65,187.67c-.78,38.88,0,77.79-.48,116.67-.11,9.14,1.61,13.35,11.79,12.41a185.31,185.31,0,0,1,30.17,0c8.8.64,11.82-1.84,11.61-11.19-.63-28.35.24-56.74-.46-85.09-.28-11.08,2.45-15.37,14.31-14.89,22.39.91,44.84-.1,67.25.45,9,.22,12.78-1.41,12.69-11.73q-.78-85.78,0-171.58c.08-9.51-3.25-11.18-11.79-11.14q-88.54.5-177.08,0c-9.08-.06-11.55,2.56-11.47,11.54C12,70.19,11.75,117.32,11.75,164.45ZM129.46,241c0,31.95.16,61.6-.12,91.24-.07,6.49,1.81,8.59,8.48,8.57q96.74-.35,193.49-.08c5.59,0,9.59-.22,9.51-7.77-.31-29.94-.13-59.88-.13-93-15,13.73-31,12.91-47,12.86-41.63-.12-83.26-.24-124.88.08C155.26,253,142.59,251.12,129.46,241Zm.85-23.59c4.52,15.46,14.07,22.72,28.27,22.8,50.82.3,101.64.12,152.46.11a27.86,27.86,0,0,0,23.5-11.92c1.8-2.46,4.09-6,3.51-8.47-1.17-4.9-6.13-2.38-9.31-2.39q-82.41-.25-164.83-.13ZM41.55,235.31c0,12.75,0,25.51,0,38.26,0,4.24-.42,8.11,6,7.86,5.71-.21,5.15-3.74,5.16-7.35q0-39.63,0-79.26c0-3.66.3-7.11-5.34-7.29-6.75-.21-5.78,4.2-5.79,8.16C41.52,208.89,41.55,222.1,41.55,235.31Zm11.29,92.41c-1.84-3.37,3.76-10.39-5.13-11.07s-6,6.12-6,10.32c-.07,4.95-2.48,12.61,5.61,12.79C54.51,339.92,52.3,332.76,52.84,327.72ZM52.67,300c.36-3.57-.16-6.35-4.81-6.11-3.23.17-6.45-.28-6.36,4.64.08,4,.12,7.1,5.59,6.87C51,305.2,53.15,304.19,52.67,300Z"/><path class="cls-1" d="M294.34,193.6c-16,0-32-.34-48,.13-8.94.26-12.22-3.17-12-12q.58-28.8,0-57.6c-.16-8.57,2.62-12.59,11.72-12.51q47.32.41,94.64,0c8.92-.08,11.91,3.27,11.64,12.18-.57,19.19-.68,38.42,0,57.59.38,10-3.53,12.7-12.75,12.39C324.52,193.23,309.42,193.6,294.34,193.6Zm-1.17-11.81c12.77,0,25.56-.34,38.32.14,7,.25,9.7-1.62,9.37-9.07-.58-13.21-.49-26.47,0-39.69.24-6.84-1.31-9.69-8.91-9.56-25.55.44-51.11.37-76.66,0-6.53-.09-8.7,1.79-8.48,8.42.47,13.67.61,27.39,0,41.05-.36,7.72,2.79,9,9.47,8.81C268.51,181.49,280.85,181.79,293.17,181.79Z"/><path class="cls-1" d="M294,99.7c-11,0-22,.14-33-.08-3.16-.07-7.79,2-8.33-4.1-.43-4.89.66-7.27,6.49-7.51,8.17-.33,5.3-5,2.37-9-5.25-7.13-8.66-14.8-8.82-23.93-.35-18.81,9.75-34.62,26.49-40.69a41.19,41.19,0,0,1,45.87,12.49c11.4,13.69,12.48,32.7,2.74,48.47-3.57,5.77-11.89,12.75,3.76,13.21,3.95.12,3.11,3.72,3.24,6.32.25,4.83-3.26,4.77-6.49,4.79C316.92,99.73,305.47,99.69,294,99.7Zm-1.35-75.51c-10.75-.14-19.41,5.12-24.88,15.08S262.86,59.5,269.25,69c3,4.48,7.33,8.12,6.4,14.42-.72,4.83,2.89,4.68,6.22,4.83,3.9.17,5.37-1.27,5.95-5.4,1.3-9.2-4.43-14.19-9.95-19.77-2.33-2.36-7.79-4.08-2.78-9.56,4.74-5.18,7.64-2.88,10.76,1.09,4.67,6,9.08,8.55,14.85.88,2.27-3,4.82-8.39,10.46-2.46,5.44,5.71.44,8.15-2.59,10.84-6.06,5.4-10.5,11-9,19.93.6,3.66,2.11,4.64,5.24,4.39,2.48-.19,6.4.9,5.94-3.27-.82-7.38,4.4-11.49,7.58-16.88,5.75-9.75,5.8-20.1.17-29.9C313.06,28.75,304.45,24.16,292.67,24.19Z"/><path class="cls-1" d="M24.18,52.66c.2-16.19,12.53-28.43,28.74-28.52S83,37.66,82.61,53.63c-.33,15.25-14,28.77-29.22,28.95C37.38,82.77,24,69,24.18,52.66Zm28.14,17.9c10,.2,18.75-7.73,18.16-17.14C69.85,43.2,64.63,36,53.41,36c-10.87,0-17,5.85-17.38,16.77C35.69,64,42.7,68.9,52.32,70.56Z"/><path class="cls-1" d="M149.82,47.09c-14.16,0-28.32,0-42.48,0-4.33,0-8.14.22-7.84-6.19.27-5.75,4-5.13,7.53-5.13q42.48-.06,85,0c4.36,0,8.2-.1,7.91,6.24-.26,5.76-4,5.08-7.6,5.09Q171.07,47.13,149.82,47.09Z"/><path class="cls-1" d="M138.13,71q-15,0-30.07,0c-4.15,0-8.32.42-8.51-5.86-.17-5.9,3.13-6.63,7.78-6.62,20.49.08,41,.12,61.49,0,4.79,0,7.62.7,7.53,6.58-.09,6.35-3.93,6-8.16,6C158.17,71,148.15,71,138.13,71Z"/><path class="cls-1" d="M207.74,305.31h-30c-3.68,0-7.07.43-7.26-5.23-.21-6.11,3-6.4,7.61-6.37,20.47.12,40.94,0,61.41.07,3.65,0,7.29-.31,7.52,5.27.25,6.19-3.41,6.33-7.86,6.29C228.67,305.24,218.2,305.31,207.74,305.31Z"/><path class="cls-1" d="M196.83,316.56c6.82,0,13.64.1,20.46,0,3.8-.08,5.87.89,5.78,5.29-.07,4.2-.7,6.89-5.84,6.82q-20.44-.28-40.91,0c-5.14.07-5.74-2.69-5.81-6.87-.08-4.45,2.13-5.3,5.86-5.23C183.19,316.65,190,316.56,196.83,316.56Z"/><path class="cls-1" d="M146.56,293.84c4.85-.4,6.15,1.61,6.25,5.62.13,5.12-2.45,6-6.77,5.93s-5.34-1.78-5.44-5.76C140.48,294.57,142.74,293.11,146.56,293.84Z"/><path class="cls-1" d="M306.76,146.56c-4.53,0-9.07-.11-13.61,0-4.15.12-5.47-1.91-5.46-5.83s1.32-5.82,5.48-5.76q14.29.21,28.59,0c4.16-.06,6.88.59,6.87,5.79s-2.74,5.94-6.89,5.82C316.75,146.45,311.75,146.56,306.76,146.56Z"/><path class="cls-1" d="M302.75,170.59c-3.16,0-6.33-.12-9.49,0-4.14.19-5.55-1.84-5.55-5.75,0-3.75,1-6.09,5.3-6,5.43.1,10.86.18,16.28-.05,4.74-.21,7.69.63,7.47,6.5-.2,5.48-3.45,5.38-7.22,5.29C307.28,170.55,305,170.59,302.75,170.59Z"/><path class="cls-1" d="M264.43,146.44c-5.87.76-5.88-2.71-5.95-6.56-.09-4.44,2.38-4.77,5.92-4.94,5.34-.26,5.42,2.88,5.45,6.75C269.88,146,267.74,147.17,264.43,146.44Z"/><path class="cls-1" d="M58.6,53.17c.67,5.19-2.65,5.48-6.63,5.49-4.42,0-4.78-2.49-4.94-6-.23-5.25,2.75-5.53,6.74-5.59C58.33,47,58.85,49.58,58.6,53.17Z"/></g></g></svg>