<svg xmlns="http://www.w3.org/2000/svg" viewBox="0 0 423.37 416.13"><defs><style>.cls-1{fill:#fff;}</style></defs><g id="Layer_2" data-name="Layer 2"><g id="Layer_1-2" data-name="Layer 1"><path class="cls-1" d="M204.35.05V18c0,114-.21,228,.3,342,0,12.31-3,18.71-15.11,22.8-30,10.17-59.56,21.73-91,33.35v-18.2c0-114,.22-228-.32-342-.06-12.51,3.48-18.49,15.35-22.53C143.11,23.42,172.13,12,204.35.05ZM162.51,268.81l14.78-16.41-10.49-9.57-16.06,14.31L135,242.82l-9.48,10L139.25,269l-14.61,16,10.85,9.29,15.77-13.86,15.65,13.94c4.07-2.78,7.54-5.14,11.48-7.81Z"/><path class="cls-1" d="M218.69,0c35,13,67.42,24.62,99.29,37.6,3.74,1.53,6.16,10.68,6.19,16.31.38,89.75.26,179.51.26,269.26v93c-34.34-12.79-67.12-24.79-99.63-37.46-2.91-1.13-5.85-6.64-5.86-10.12C218.64,246.91,218.69,125.27,218.69,0Zm52.75,160.07c9.12,2,14.89,23.36,26,3.23L283.76,148l14.33-16.86-9.92-9.31-16.78,14-15.91-14.12-9,10.38,14,15.24c-5,5.73-9.54,10.92-14.47,16.58l8.8,11Zm-6.55,77c20.68,4.29,14.19-10.32,14.83-19,.91-12.11-6.4-11-14.83-8.48Zm-9.41,23.46c-9.69,4.38-22.28-8-27.78,7.63-.43,1.23,8.08,7.52,12.91,8.23C249.52,277.67,260.9,279,255.48,260.5Zm10-88.34V200c17.45,4.48,13.77-7.41,14.47-16.1C280.8,173.23,277.18,168.29,265.48,172.16Zm.09,75.57v28.14c19,3.57,13.46-9.77,14.25-18.25C280.83,246.61,275,244.67,265.57,247.73Z"/><path class="cls-1" d="M2.07,2.15C27.38,13.7,52.77,25,77.78,37.09c2.75,1.34,4.65,7.24,4.66,11q.27,180.83,0,361.64c0,1-.78,1.93-1.88,4.53-25.33-11.63-50.73-23-75.75-35.17C2,377.78.1,372,.1,368.2Q-.17,187.38.14,6.56C.14,5.63.92,4.71,2.07,2.15Z"/><path class="cls-1" d="M340.36,415.36V341.29c0-95.78.19-191.56-.25-287.34-.05-10.85,2.77-16.84,13.09-21.14,22.67-9.44,44.79-20.19,69-31.26.37,6.46.87,11.1.87,15.74,0,115.05-.12,230.1.28,345.14,0,10.81-2.56,16.78-13.08,21.11C387.57,392.89,365.5,403.8,340.36,415.36Z"/></g></g></svg>