<svg xmlns="http://www.w3.org/2000/svg" viewBox="0 0 94.72 94.74"><defs><style>.cls-1{fill:#fff;}</style></defs><title>mergeit</title><g id="Layer_2" data-name="Layer 2"><g id="Layer_1-2" data-name="Layer 1"><g id="pg_1_front" data-name="pg 1 front"><path class="cls-1" d="M47.37,94.74H12.49c-2.76,0-4-1.23-4-4v-31c0-2.69,1.26-4,3.93-4h70c2.67,0,3.92,1.27,3.92,4v31c0,2.68-1.27,4-3.93,4Zm0-5.12H60.94a1.64,1.64,0,0,0,.2-3.27,6.61,6.61,0,0,0-1.09,0H34.7a2.53,2.53,0,0,0-1.16.1,3,3,0,0,0-1.26,1.21c-.41,1.09.47,2,1.82,2ZM74.49,77.86H68c-1.22,0-1.94.61-2,1.62a1.69,1.69,0,0,0,1.67,1.71l.23,0H80.93a1.67,1.67,0,0,0,1.88-1.44,2.11,2.11,0,0,0,0-.25c0-1-.72-1.61-2-1.62C78.78,77.85,76.64,77.86,74.49,77.86ZM17,69.37H13.74a1.68,1.68,0,1,0-.07,3.36h6.52a1.69,1.69,0,1,0,.36-3.36,2.16,2.16,0,0,0-.36,0C19.1,69.35,18,69.37,17,69.37Zm0,8.49H13.71a1.62,1.62,0,0,0-1.82,1.63,1.6,1.6,0,0,0,1.54,1.67.43.43,0,0,0,.16,0q3.35.06,6.71,0A1.62,1.62,0,0,0,22,79.63v-.16a1.67,1.67,0,0,0-1.73-1.61h0C19.14,77.84,18.05,77.86,17,77.86ZM16,64.24h2.68a1.55,1.55,0,0,0,1.58-1.52v0A1.49,1.49,0,0,0,19,61h-.12c-1.85-.08-3.7-.08-5.54,0a1.53,1.53,0,0,0-1.42,1.64.17.17,0,0,0,0,.07,1.59,1.59,0,0,0,1.63,1.53C14.34,64.27,15.17,64.24,16,64.24Zm62.7,0h2.57a1.6,1.6,0,0,0,1.61-1.55A1.54,1.54,0,0,0,81.47,61h0c-1.85-.08-3.7-.08-5.54,0a1.51,1.51,0,0,0-1.41,1.59s0,.09,0,.13a1.55,1.55,0,0,0,1.59,1.53h0c.89,0,1.72,0,2.58,0ZM25.32,89.61H27.2a1.62,1.62,0,0,0,1.55-1.52,1.54,1.54,0,0,0-1.33-1.7,29.66,29.66,0,0,0-4,0A1.56,1.56,0,0,0,22,88a1.66,1.66,0,0,0,1.62,1.56A16.17,16.17,0,0,0,25.32,89.61Zm44,0H71.1A1.66,1.66,0,0,0,72.74,88a1.57,1.57,0,0,0-1.39-1.66,28.78,28.78,0,0,0-3.94,0A1.57,1.57,0,0,0,66,88.06v0a1.62,1.62,0,0,0,1.66,1.51c.57,0,1.13,0,1.69,0Zm-22-25.37H49.2a1.61,1.61,0,0,0,1.5-1.56A1.43,1.43,0,0,0,49.53,61h-.06a28.6,28.6,0,0,0-4.14,0A1.54,1.54,0,0,0,44,62.71a1.64,1.64,0,0,0,1.56,1.52c.6,0,1.19,0,1.79,0Zm11.91,5.13H57.45A1.63,1.63,0,0,0,55.85,71a1.6,1.6,0,0,0,1.44,1.75h.07a31.92,31.92,0,0,0,3.66,0A1.66,1.66,0,0,0,62.58,71a1.7,1.7,0,0,0-1.64-1.66c-.56,0-1.12,0-1.68,0ZM39,72.74h1.68a1.64,1.64,0,0,0,1.61-1.68V71a1.63,1.63,0,0,0-1.66-1.58H37.34a1.68,1.68,0,0,0,0,3.36C37.83,72.77,38.39,72.74,39,72.74ZM15.2,89.61H17A1.69,1.69,0,0,0,18.61,88a1.56,1.56,0,0,0-1.37-1.68,29.66,29.66,0,0,0-4,0A1.52,1.52,0,0,0,11.92,88h0a1.58,1.58,0,0,0,1.53,1.52A12.42,12.42,0,0,0,15.2,89.61Zm64.29,0h1.88A1.59,1.59,0,0,0,82.86,88a1.43,1.43,0,0,0-1.21-1.62H81.6a25.88,25.88,0,0,0-4.13,0,1.54,1.54,0,0,0-1.32,1.7,1.63,1.63,0,0,0,1.56,1.51C78.3,89.64,78.9,89.61,79.49,89.61Zm.06-20.24H77.87A1.74,1.74,0,0,0,76.14,71a1.71,1.71,0,0,0,1.65,1.66,33.47,33.47,0,0,0,3.47,0A1.66,1.66,0,0,0,82.87,71a1.7,1.7,0,0,0-1.72-1.66h0C80.61,69.35,80.08,69.37,79.55,69.37ZM28.72,81.15a14.74,14.74,0,0,0,1.88,0,1.63,1.63,0,1,0-.1-3.26H27a1.64,1.64,0,0,0-.09,3.27A15.11,15.11,0,0,0,28.72,81.15ZM57.48,64.23h1.88a1.6,1.6,0,0,0,1.51-1.54A1.5,1.5,0,0,0,59.56,61h0a29.66,29.66,0,0,0-4,0A1.54,1.54,0,0,0,54.2,62.7a1.64,1.64,0,0,0,1.54,1.54C56.29,64.27,56.88,64.24,57.48,64.23ZM28.76,72.74h1.68a1.68,1.68,0,1,0-.08-3.36H27.19a1.69,1.69,0,1,0-.26,3.37,1.13,1.13,0,0,0,.26,0C27.7,72.77,28.23,72.74,28.76,72.74Zm8.46-8.5H39a1.65,1.65,0,0,0,1.59-1.58A1.57,1.57,0,0,0,39.2,61a28.78,28.78,0,0,0-3.94,0,1.53,1.53,0,0,0-1.38,1.67.22.22,0,0,0,0,.08,1.57,1.57,0,0,0,1.55,1.49C36,64.27,36.63,64.24,37.22,64.24ZM49,72.73h1.68a1.64,1.64,0,0,0,1.72-1.55V71a1.63,1.63,0,0,0-1.57-1.67H50.7q-1.65-.06-3.27,0a1.61,1.61,0,0,0-1.69,1.53v0a1.65,1.65,0,0,0,1.49,1.78h.11A11.53,11.53,0,0,0,49,72.73Zm20.42-3.36H67.64A1.7,1.7,0,0,0,66,71a1.67,1.67,0,0,0,1.6,1.7,33.47,33.47,0,0,0,3.47,0A1.71,1.71,0,0,0,72.74,71,1.77,1.77,0,0,0,71,69.37c-.5,0-1,0-1.56,0Zm-30.5,8.5H37.07a1.64,1.64,0,0,0-1.5,1.56,1.51,1.51,0,0,0,1.35,1.67,32.54,32.54,0,0,0,3.95,0,1.52,1.52,0,0,0,1.39-1.64.28.28,0,0,1,0-.09,1.57,1.57,0,0,0-1.53-1.51c-.59,0-1.18,0-1.78,0Zm20.3,0H57.34a1.54,1.54,0,0,0-1.48,1.55,1.5,1.5,0,0,0,1.31,1.67h0a33.36,33.36,0,0,0,4,0,1.56,1.56,0,0,0,1.41-1.63A1.65,1.65,0,0,0,61,77.87c-.57,0-1.17,0-1.76,0Zm8.43-13.63h1.78A1.57,1.57,0,0,0,71,62.74,1.51,1.51,0,0,0,69.74,61h-.09a25.91,25.91,0,0,0-3.94,0,1.5,1.5,0,0,0-1.38,1.62.59.59,0,0,0,0,.13,1.55,1.55,0,0,0,1.54,1.49c.59,0,1.19,0,1.78,0ZM49.07,77.87H47.19a1.49,1.49,0,0,0-1.44,1.48,1.44,1.44,0,0,0,1.13,1.71l.12,0a31.62,31.62,0,0,0,4.13,0,1.45,1.45,0,0,0,1.26-1.63s0-.06,0-.09a1.5,1.5,0,0,0-1.44-1.48C50.32,77.82,49.69,77.87,49.07,77.87Zm-22-13.63h1.78a1.59,1.59,0,0,0,1.56-1.49A1.48,1.48,0,0,0,29.2,61l-.14,0a25.91,25.91,0,0,0-3.94,0,1.5,1.5,0,0,0-1.38,1.6.59.59,0,0,0,0,.13,1.56,1.56,0,0,0,1.62,1.52h0c.56,0,1.12,0,1.68,0Z"/><path class="cls-1" d="M45.68,47.37v5.12H12.78a7.31,7.31,0,0,0-6.93,3.68,41,41,0,0,1-3-3.32,15.2,15.2,0,0,1,8.36-23.51c2.24-.61,2.82-1.37,2.45-3.72a11.88,11.88,0,0,1,8.73-13.4,12,12,0,0,1,7.1.35c1.86.65,2.81.28,3.81-1.38C38,3.43,44.91-.33,53.94,0A22,22,0,0,1,74.13,18c.1.59.15,1.18.27,1.76A2.6,2.6,0,0,0,77.09,22,18.26,18.26,0,0,1,91,29.45a18.55,18.55,0,0,1-2.65,25.13c-.09.08-.2.15-.36.27-1.77-2-4.08-2.41-6.64-2.39-10.34.06-20.68,0-31,0H49.11v-5h1c4.52,0,9-.06,13.57,0A7,7,0,0,0,71,40.75c0-.19,0-.38,0-.58-.12-5.35-.13-10.7,0-16A7,7,0,0,0,64.2,17h-.42q-16.45.15-32.91,0A7,7,0,0,0,23.7,23.8a1.71,1.71,0,0,0,0,.32c.14,5.34.14,10.7,0,16a7,7,0,0,0,6.71,7.27H31c4.49-.08,9,0,13.48,0Z"/><path class="cls-1" d="M47.34,44H30.79a3.39,3.39,0,0,1-3.73-3,3.42,3.42,0,0,1,0-.64V24a3.44,3.44,0,0,1,3.13-3.72,3.86,3.86,0,0,1,.68,0h33a3.47,3.47,0,0,1,3.84,3.8V40.25c0,2.45-1.37,3.78-3.82,3.78ZM58.59,32.11c-1.32,1.32-2.55,2.52-3.75,3.74a1.69,1.69,0,1,0,2,2.69,1.88,1.88,0,0,0,.34-.35q2.33-2.3,4.62-4.62a1.74,1.74,0,0,0,.38-2.44,2,2,0,0,0-.38-.39c-1.52-1.55-3.07-3.08-4.62-4.61-.91-.89-1.88-.95-2.6-.18a1.69,1.69,0,0,0,.07,2.39l.18.14C56.08,29.67,57.29,30.83,58.59,32.11Zm-22.41,0c1.25-1.23,2.45-2.39,3.64-3.58.9-.91,1-1.88.26-2.61s-1.69-.67-2.61.24q-2.28,2.25-4.55,4.55a1.77,1.77,0,0,0,0,2.89c1.48,1.5,3,3,4.47,4.48.94.94,2,1.07,2.69.35s.69-1.71-.34-2.75ZM49,25.38a1.74,1.74,0,0,0-1.57,1.23C46.33,30,45.2,33.34,44.1,36.72a1.63,1.63,0,0,0,1,2.07,1.58,1.58,0,0,0,2-.91.36.36,0,0,0,0-.09q1.8-5.15,3.49-10.36a1.69,1.69,0,0,0-1.27-2A1.9,1.9,0,0,0,49,25.38Z"/></g></g></g></svg>