<svg xmlns="http://www.w3.org/2000/svg" viewBox="0 0 86.97 86.91"><defs><style>.cls-1{fill:#fff;}</style></defs><title>mockplacements</title><g id="Layer_2" data-name="Layer 2"><g id="Layer_1-2" data-name="Layer 1"><g id="pg_1_front" data-name="pg 1 front"><path class="cls-1" d="M87,17.2c-.31.93-.53,1.9-.93,2.79a10.38,10.38,0,1,1,.75-6.24,2.72,2.72,0,0,0,.18.55Z"/><path class="cls-1" d="M19.49,54.64H28.1a7.64,7.64,0,0,1,7.38,7.72v21.8A2.57,2.57,0,0,1,33,86.84h-9.6a2.65,2.65,0,0,1-3-3V69.53h-11A8.81,8.81,0,0,1,.71,61.08Q.59,49.41.71,37.75A9.22,9.22,0,0,1,10.2,28.9a9.3,9.3,0,0,1,9.23,9.32c.07,5.08,0,10.16,0,15.24Z"/><path class="cls-1" d="M67.18,54.64V37.86a9.32,9.32,0,0,1,9.66-8.95A9.18,9.18,0,0,1,85.94,38c.11,7.72.09,15.44,0,23.16a8.86,8.86,0,0,1-8.55,8.33H66.24V83.67c0,2.33-.91,3.23-3.26,3.23H54a2.62,2.62,0,0,1-2.86-2.34,2.1,2.1,0,0,1,0-.56V62.62a7.65,7.65,0,0,1,6-7.77,10.41,10.41,0,0,1,2.37-.22h7.62Z"/><path class="cls-1" d="M43.35,43.59c1.3-3.56,2.51-6.87,3.73-10.19,1-2.8,2-5.59,3.05-8.38.45-1.22.79-1.38,2.06-1a14.33,14.33,0,0,1,5.24,2.31,9.22,9.22,0,0,1,3.41,7.39V46.15c0,1.45-.57,2-2,2h-31c-1.39,0-2-.57-2-2,0-4.2-.05-8.41,0-12.61a9.16,9.16,0,0,1,6.71-9l2-.61c1.16-.34,1.51-.17,1.93,1Q39.71,33.77,43,42.58C43.05,42.84,43.16,43.1,43.35,43.59Z"/><path class="cls-1" d="M10,26.09a10.47,10.47,0,1,1,.62,0C10.44,26.1,10.23,26.1,10,26.09Z"/><path class="cls-1" d="M43.33,20.78a10.39,10.39,0,1,1,10.38-10.4v0A10.37,10.37,0,0,1,43.36,20.78Z"/><path class="cls-1" d="M43.45,23.71a10,10,0,0,1,1.43.13,1.12,1.12,0,0,1,1,1.24,1.21,1.21,0,0,1-.16.45v.07c-1.78,1.68-1.23,3.76-.84,5.72s-.54,3.35-1.1,5c0,.12-.31.29-.38.26a1.08,1.08,0,0,1-.45-.45A8.62,8.62,0,0,1,42,30a9.67,9.67,0,0,0,.24-1.85,2.17,2.17,0,0,0-.27-1c-.27-.53-.66-1-.95-1.51a1.13,1.13,0,0,1,.2-1.59,1.2,1.2,0,0,1,.66-.23A11,11,0,0,1,43.45,23.71Z"/></g></g></g></svg>