<svg xmlns="http://www.w3.org/2000/svg" viewBox="0 0 1168.37 990.2"><defs><style>.cls-1{fill:#fff;}</style></defs><g id="Layer_2" data-name="Layer 2"><g id="Layer_1-2" data-name="Layer 1"><path class="cls-1" d="M947.58,219.3c78.58,129.64,62.23,327.13-32.53,443.55C810.19,801.34,637.26,861.41,466.46,814.26,311.22,773.55,184.56,625.4,170.35,465.17,151,295.25,230,140.45,373.64,55.57c110.7-68,281.47-75.84,396.68-11,70,34,140.4,104,177.23,174.68ZM591.81,19.43c1.5,15.5,1.5,37.24,0,54.92.43-2.79,2.73-2.79,4.73-3.88,5.4,1.91,5.4,8.62,3.89,13.14h-1.1c27.79-1.92,54.76,4.93,80.12,12.7,26.69,3.45,50,35.54,76.22,18.51,7.31,8.21,20,.44,23.9,13.14,10.14,1.92,15.5,12,22.4,18.51-.82,9.26,7.75,13.58,10.76,20.45v-1.09a96.76,96.76,0,0,1,38.33-37.89A383.53,383.53,0,0,0,654,27.81C634,23.7,611.57,25,591.78,19.4ZM311.14,129.06l45.64,43.72a315.16,315.16,0,0,1,211.7-90.24c-2.74-19.38-1.92-41.07-.82-61.17C469.45,27,384.21,64,311.16,129.06ZM882.47,34.32,912.17,64c30.12,46.55,72.37,92.6,114.18,121.9-8.82-18.51-10.76-40.25-20-58.79C987.85,75.23,930.14,50,882.52,34.05ZM275.82,40.13c-36.83,14.65-76.67,26.69-104,61.17C150.42,129.09,144,162.46,133,194.39l32.53-27.79C214.81,132.15,228,76.24,275.79,40.65Zm363.52,12.7L611.55,65.32c-2.74,1.5-12.71-3.45-11,4.74,5.4,3.45,10.76,7.31,17.44,8.21,17.45-7.75,38.34,4.93,53-11-4.29-11.86-19.82-12.27-31.43-14.24ZM995.16,88.32c41.13,27.38,38.33,77.1,53,117.59,3.89,17,14.24,32.53,15.5,49.29-22-64-96.49-70.86-123.4-131.43l8.4,35.6c20.89,68.45,102.51,85.07,133.53,147.08-9.69-44.79,7.31-91.72-6.24-135.88-11-37.9-42.44-71.27-80.77-82.47ZM96.7,149.51C65.27,195.59,90.89,259,82.05,313.79,93,291.39,115,270.06,134,254.1c43.73-28.2,82.91-73.21,84.41-123.4-23.27,59.69-99.93,67.41-118.88,130.93H97.58c28.2-52.76,12.26-127,66.12-166-28.2,8.21-52.11,28.86-67,53.66Zm494.2-45.64c2.74,19.38,1.92,42.63.82,61.6,49.09.82,95.61,15.94,133.94,44.58a18.1,18.1,0,0,1-7.31-14.65h1.51c.82-6.9-9.69-10.13-6.24-17,9.25.83,16.42,13.58,21.35,20.46,26.7-.44,11,31.43,31.44,40.9,4.73,2.38-1.51,12.05,5.8,10.95,6.24,4.93,13.69,10.54,12.7,18.51,2.39,13.69,13.58-4.3,19.83,4.74,5.39,4.3-3.89,6.9-2.8,12,3.45,1.5,6.68-3.45,9.26.82,1.09,4.73-2.38,6.68-4.74,9.25-2.38,8.22,7.31,3.45,10.13,7.31,4.3,9.26,7.75,23.27.82,33.6,9.7,10.54-1.5,21.35-3.45,31.43-6.9,6.68-8.21,22-21.35,18.51-2.74,5.39,1.91,11.63-1.1,15.93l23.28,1.1c-13.15-18.51,3.88-36.42,9.25-53,2.79-1.1,6.24-6.9,8.62-1.1l-2.79,22.4c5.81,8.82,3.45,21.36,5.4,31.65l59.68-1.1c-4.3-39.42-12.48-77.32-29.07-111.54-4.3,1.51-9.26,4.74-13.69,1.92-6.68-8.82-12.05-19.83-21.36-27.38-7.75,0-13.14-6.25-19.39-10.13-13.58.43-8.62-19.39-21.73-16.6-6.9-3.45-12.05-6.89-13.69-15.05-.44-9.26-1.1-20.89-10.13-27.79-4.93-2.8-9.7.82-13.15,3.88-7.31,4.74-10.35-3.45-10.13-9.25-8.21-6.24.44-13.14-3.89-20.45-11.63-9.26-6.24-26.7-22-34.45-25.63-12.26-52.57-20-81-25.84-14.42-2.58-30.11-2.74-44.35-6.9Zm177.42,0c-2.74.82-1.91,5.8-.82,7.75,10.13.82,10.13,17.88,22,10.76l-2.79-12C783.93,102.8,773.3,106.66,768.32,103.87ZM370,188.75c15.49,10.76,30.58,27.79,43.26,41.78,40.9-39.84,96.05-64.18,155.24-65a549.68,549.68,0,0,1,0-59.66c-74.94,5.81-142.37,32.94-198.56,82.91Zm496-46.55-40.71,43.73-6.68.82c5.39,0,3.89,6.24,7.31,8.62,17,12,24.78,29.08,39.21,41.78,5.39,13.15,19.38,21.74,19.38,37.9,20,39.2,29.52,85.07,31.65,130.05,20-2.38,43.07-2.74,62.24-2.79l-1.92-1.92C972.71,299.83,931.59,213.88,865.9,142.2Zm-566.81,6.68-1.92-5.8C231.05,215,193.81,305.88,188.86,405.15L252,406c-2.38-20,2.74-39.43,5.39-59.23,13.58-58.37,38.77-113.7,83.57-157.21Zm785,14.65c28.64,41.78,12.27,100.56,10.54,149.49,1.1,23.69,4.93,47.18,3.45,70.86-3.45-9.25-4.29-19.38-6.68-29.08-11.63-53-73.87-79-99.06-123.4,3.89,15.06,6.68,30.12,12.05,44.58,21.74,63,86.79,104.86,95.61,172.93,5.81-65,51.47-116.91,34.44-187.83-9-35.54-23.68-70.42-50.37-97.55ZM74.3,172.15c-22.39,26.7-37.51,58.79-45.23,93.09C14,336.51,56.86,391.19,66.31,456.49c12.48-81.59,98.43-133.06,103-218.38C144.07,284.19,82.9,310.94,71.7,365.43c0,8.81-2.79,17.44-4.74,25.84l-1.91-1.91,2.74-35.6C78.33,290.87,41.5,225.85,74,172.24Zm495.57,13.78-1.91,1.5c-53.39,2.74-98,26.7-139.64,58.79,15.94,10.35,28.64,26.69,43.73,40.71a147.28,147.28,0,0,1,96.48-40.71c-1.28-17.66-2.19-41.07,1.1-60.29Zm22,.82c2.74,18.07,2.38,39.42,1.1,58.37,36,2.79,74.31,17.44,100.12,40.91,13.59-13.69,28.64-32.53,43.73-40.91-42.44-33.59-90-54.76-144.92-58.37ZM354.29,201.4v3.88c-49.09,56.21-76.67,123.84-81.59,199.87,20,.44,42.21-.82,61.16.83l-1.92-2.8c3.89-60.07,25.19-114.55,66.13-157.84a279.46,279.46,0,0,1-43.73-43.73Zm395.36,57.71c-17.88,20.89-41.13,43.07-58.37,63.11C692.37,325,695.57,328,696,327c4.74-5.81,1.1-20.45,13.69-17.44,12.71,4.3,23.9,2.74,37.9,4.73,7.74,4.3,8.81,13.58,15.93,17.45,2.74,3.45-1.09,6.68-2.79,9.25a20,20,0,0,1,3.89,4.74c3.88-3.45,9.25-8.22,16.59-6.25,7.31.44,9.25,10.76,15.93,12.05,2.74,3.89-1.91,7.75-4.73,9.25,1.5,7.32-6.9,9.7-3.89,16.6a8.66,8.66,0,0,0,9.25-3.89c14.65-10.76,2.74-24.78.82-37.89-5.8-12.05-18.07-14.24-27.79-23.28a14.83,14.83,0,0,1,5.81-10.13c-.66-17.25-18.07-28.86-27.38-43.07ZM413.26,261c-13.14,16.43-25.84,34-35.59,53-15.06,27.79-19.39,60.07-25.19,91.72l25.19-.82c-4.3-4.93-3.45-12.05-3.45-18.51,5.8-12.27,8.21-34.44,26.69-33.4,8.82-1.92-.43-8.82,6.68-12.49,13.15-1.92,16.6-14.24,27.8-20,10.54-1.09,12.7-15.93,23.27-17C441,291.28,429,275.76,413,261.11Zm179.61,7.31,1.51,41.78,15.93,5.8c4.74-8.21,13.15-10.13,18.51-17,4.93-2.38,4.93,3.89,7.31,5.8,2.74,18.95-17.88,27.57-29.51,35.6h4.73c12-12.49,18.95,15.49,31.44,2.79,2.38-15.94,24.77-13.69,29.7-29.71-3.88,3.89-5.8-.44-9.25-1.5,1.09-5.4,8.62-8.82,12-12.49a218.73,218.73,0,0,0-82.47-30.8Zm-25,1.29c-32.52,4.73-63.11,16.59-86.35,41.78,7.75,1.5,15.49,4.73,21.35,10.13,1.92,3.89-3.45,4.3-3.88,6.68,4.92,7.31,5.39-1.51,10.54-2.79,4.73,4.73,8.81,8.21,15.49,4.73,3.45,5.81,8.82.44,13.15.82,1.5-4.73,8.21-8.62,5.39-13.69,2.38-4.3,3.45-11,9.25-11-3.45,18.07,13.58,0,18.51,8.63-5.47-13.58-1.28-31.65-3.45-44.8ZM1149.17,314c10.76,63-27.38,109.52-42.63,164.28-8.62,20.89-4.93,47.58-17.88,65.9-.82-10.54,4.93-20.45,5.81-31.65,9.69-70-51-111.54-65-170.77a206.35,206.35,0,0,0,2.79,45.23c3.45,73.87,51.92,133.95,37.9,211,13.69-18.07,24.64-36.83,41.12-54.76,55.77-58.38,70-155.52,37.9-229.77ZM15.11,322.19c-20,46.55-18.95,107.88-3.89,156.07,13.14,50,60.73,84.88,85.51,128.14-4.3-18.08-3.45-41.13-.82-59.69,16.42-64.62,41.78-127,37.89-198.56C124.11,399.62,78,435.77,72.63,489c-3.45,21.74,1.92,43.07,4.74,62.24-4.93-9.7-9.69-20.9-10.54-33.41-7.53-69.35-63.74-120.61-51.69-196Zm551.53,24.65,1.1.82c1.09,5.8,5.39,14.65,0,18.51-6.9,9.25-23.68,7.31-25.85,19.82-18.07,5.39-10.95,27.79-17,41.78-11.64,2.79-7.31-10.95-12.71-15.93l-2.79,3.45c-17.88-13.59-14.43,15.49-25.19,17.87,12.27,2.8,22.84-4.29,35.59-4.73.83,1.5,3.89,2.38,2.8,4.73h1.91c2.8-2.79,2.74-6.24,2.8-10.13,1.09-3.88,5.8-6.24,9.25-3.88-1.09,3.88,1.51,6.9,4.74,8.62L534.64,437c-3.45,3.89.82,14.43-8.22,13.69-1.91.44-3.45-1.09-2.79-2.73h-1.92l4.74,8.62c5.39-.44,4.3-10.13,10.95-11,6.24-1.51,6.9-8.82,6.24-14.65,8.22-6.9,18.08-2.79,27.38-3.89,2.39,2.39,7.75,2.74,6.68,7.31,3.45,6.9-2.38,14.65-6.68,20.46,1.92,3.88-2.79,6.9-2.79,10.95-7.31,7.75-15.5,4.3-25.19,6.68,12.27,8.62,25.63,13.69,41.78,12.7,15.5,1.1,8.22-18.51,19.39-24.78,6.68-.82,12.26.83,19.82-1.09,2.74-5.81,3.45-12.71,4.74-19.39-6.68-2.73-4.3-9.69-4.74-15.05-3.89-4.74-3.45-13.15-10.95-13.69-1.51-4.3,2.74-6.25,2.79-10.13,11.64-4.3-6.24-11,1.1-17.88-13.14-2.39-16.43-23.28-32.53-16.6-3.89-5.39-13.69-7.74-13.69-15.93,1.1-5.81,14.24-3.45,12.7-2.79-.82-1.1-2.38-1.92-1.91-3.45-4.93-.44-10.76,0-13.69,2.57Zm-165.18,50c-14.24,4.74,0,18.07-.82,27.38-1.51,7.31-8.82,1.51-13.14,4.74,1.91,12.05-8.22,14.43-16.59,16.59-2.8,8.22,6.24,12.05,1.91,19.83,10.35,10.54,18.51,23.27,16.59,37.89,7.32,10.54,5.4,26.28,7.32,39.84,6.24,6.24,9.69,15.49,9.25,25.19.44,4.92-4.93,6.68-8.21,8.62-3.89,4.74,2.79,2.38,2.79,6.24l51.91-53.83c-18.07-20.89-32.53-48.68-37.89-77.75l-6.68-3.89c-1.1,7.31-.83,17.88-7.31,20.45-3.45-2.74-10.35-4.74-10.35-11,1.91-4.3,5.39-1.51,8.62-1.92-.44-3.45.44-6.9.82-10.13,1.1-4.3-6.24-7.31-.82-11,4.74-.44,6.68,4.93,10.13,7.31l9.26-4.74c-2.8-8.81,2.38-22.83-.83-32.52-1.28-7.75-9.69-6.25-15.93-6.68Zm380.74,7.75h0Zm-6.46,19.39,10.35,12c-.44,13.58,18.07,17.88,19.39,31.66,3.88-12.71,3.45-27.38,7.31-39.84-11.86-1.29-27.38,2.57-37-3.89Zm138.49.65,1.91,3.89a329.9,329.9,0,0,1-89.36,211.7q23.36,21.3,44.79,44.58C923,625.53,958.36,559,970.63,483.41c4.3-19.39,2.74-40.25,8.62-58.79-18.94,5.4-41.07,1.92-62.23,2.74Zm-79.4,1.29c2.38,7.75-2.39,15.06-1.92,23.27-8.21,13.58,10.54,17,5.39,29.71-3.45,2.79-6.9,2.38-10.95.82-9.69,37.9-28.64,72.83-55.77,103h-2.79c6.9,4.3,12,13.69,19.82,15.93v-5.39c1.51-1.09,2.38-3.89,4.74-2.79,15.06,4.73,16.42,25.63,17.44,35.59,39.42-41.07,64-90.35,76.22-144.07,4.3-17.88,1.92-39.43,9.26-54.92-20.26,1.09-42.22,2.19-61.17-.83ZM353,426.54c4.29,13.69,8.81,29.08,5.39,44.57,0-6.9,15.06-13.69,2.74-20,4.73-6.9,1.09-21.74,10.13-22.4-7.12,1.5-12.49,1.5-18.51-2.19Zm-162.59,1.91c4.3,98.63,40.72,185,104.87,258.19,14.24-15,30.12-32.08,45.64-44.57-7.75-4.93-12.7-13.69-20.45-20.45-9.69-1.92-16.43-11-18.51-19.39.44,1.1-1.1,1.92-1.92,2.8-8.81,4.29-11.63-6.68-17.44-10.13-5.39-2.8-1.09-15.06-10.54-10.55-5.39-8.81-15.5-8.21-19.38-18.5l-3.89,6.68c-6.9-.44-12.05-8.82-15.94-13.15-14.23,4.3-8.62-15.49-16.59-22-2.74-12.49.82-23.91,7.31-33.6,4.3-3.89,12.49-.82,13.69,1.92,7.31,2.79,2.79-5.81,6.68-7.31,10.35-8.82,15.5,3.45,21.36,10.13-8.63-24.78-13.69-53.83-12.71-80.55-20,2.38-42.43,1.72-62.42.43Zm81.6-.65,1.91,2.79c1.92,27.79,9.7,54.92,12.05,81.59,3.45-2.38,1.09-8.62,5.8-8.62,1.51-13.15,3.45-28.2,12-39.84,12.27-.44,12.71-17,25.85-15.94,2.74,2.39,7.31,5.4,8.62,9.26-6.68-7.75-6.9-20-3.89-29.52a242.39,242.39,0,0,1-62.42.22Zm168.38,24.78,3.45,5.8c4.74,19.39,16.43,35.54,25.85,53l17.88-18.51c-.44-2.38.82-4.93-.83-6.68-3.45-4.74-1.09-13.14-5.8-15.93-1.51,4.29,3.45,6.68,1.1,10.13-5.81-2.39-12.05-4.93-15.06-12.05,1.09-8.82-5.4-2.38-10.13-6.68-.22-9.47-12.27-3.23-16.38-9Zm65,15.93c-1.1,5.4-5.4,9.69-8.63,13.69,5.4-2.38,8.63-10.54,14.65-10.13Zm534.06,7.31c-36.82,79.27-10.13,184.54-54.92,260.16l7.31-6.24c87-47.59,191.88-127.7,174.68-244.64-1.5,15.94-6.68,30.12-13.69,43.73-34,53-92.16,96.27-120.82,151.41-.82,1.91-3.45,2.74-4.74,1.09l5.81-7.31c41.12-59.22,4.29-132,6.68-198.12Zm-368.91,6.46c-8.62,12.05,8.22,11,9.26,21.36,1.91,0,4.29.82,5.39-.82-1.1-4.3-.82-8.82-4.74-12.05-6.46.22-6.46-8.4-9.91-8.4Zm-542.66,1.29c4.73,25.63-3.45,48-7.31,71.27-13.15,44.57-6.68,96.7,19.38,133.06-8.62-4.29-13.69-14.23-19.38-23.27C88.46,603,7.47,568.15.62,494.28c-.43,26.69-.43,54.92,7.75,79C30.77,656,122.08,698.66,183.68,740.45,140,665.07,163.23,562.34,127.91,483.52ZM773.47,487c-11-8.41-8.82,7.75-18.51,6.68-3.45-.82-4.3-4.93-4.74-8.62-.82,8.81-7.74,15.49-12.7,22.39-17.88-4.93-13.14,20-31,14.65,2.38,6.9,10.13-1.09,13.69,1.1,2.74-1.51,2.38-4.74,3.89-6.68,1.91-7.32,10.76-10.14,17.88-7.32,3.88,6.25,4.92,13.69,4.73,21.36-4.3,2.74-4.3,8.21-3.89,13.14-5.39,8.82-2.73,27.79-19.38,25.85-17-6.24-35.54-10.76-54.27-11v3.89c12.49,4.73,26.29,4.73,36.42,13.69,10.76-1.1,24.64,1.5,32.52-4.74A39.71,39.71,0,0,1,747.35,551c6.9.82,5.39,10.13,8.62,14.64,20.46-25.84,38.34-50.59,45.23-82.46-10.13-.44-17.44,5.39-28,3.88Zm-248.74-.82L487.49,528c21.35,16.43,46.08,29.08,73.92,33.4-.43-7.31-.43-14.65,3.45-20.45,3.89-2.38,9.7,1.1,13.15-2.79-.44-3.45-2.8-3.45-4.74-6.68-2.38-5.4,0-10.35.82-13.69C575.6,515,571.35,509,576,507c-12,5.8-22.84-2.38-33.41-5.81-5.8-4.52-16.42-5.61-17.66-14.65ZM644.65,528c4.73-6.24,14.65-4.93,16.59-12.05C652.62,514.43,643.36,520.67,644.65,528Zm22,9.25c-4.3,2.39-7.75,2.39-10.13,7.31-4.93,6.69-11-.43-15.94-2.79,1.51,1.92,4.93,6.68.82,9.26-4.93,5.39-9.69-2.39-14.65-3.89-2.79,17-8.81-4.74-17.87-.82-3.89-9.7-10.55,1.91-16.6.82-4.73,3.89-4.93,15.06-13.69,13.69-1.91,5.39-9.25,3.45-10.13,7.31,4.3,4.93,10.13,2.79,14.65,1.91,7.31-6.68,16.59-2.38,25.19-3.44-.82,13.68,15.5,3.44,20.45,12,5.81-.44,5.81-6.24,8.22-10.54,12-1.92,24.64-9.25,31-18.51,1.72-3.23,3.89-10.76-1.1-12.7Zm-197.68,6.68a317.33,317.33,0,0,1-41.79,41.79h2.8c34,29.51,77.1,50,117.37,56.4-14.64-1.92-20.45-16.37-27.38-27.38-3.88-8.82,9.7-10.76,7.31-20,4.93-8.21,12.71-12.7,22.4-13.69A127.5,127.5,0,0,0,536,583.83c-24.56-8.21-49.28-18.94-67-39.83ZM1002.14,593l-33.07,42.35c-43.73,60.29-38.77,142.79-99.5,194.26,31.43-10.13,65.9-14.43,98.21-21.35,73.22-18.51,150.1-90.36,160.67-165.65-13.15,31.43-40.72,54.76-68.45,72.83-48,22.39-96.71,48-137.39,83.56h-4.74l2.79-3.89c70.2-46.54,51.26-136.07,81-202.44Zm-248.06,4.73v.82C725,619,767.77,619.92,768.73,637.77c-4.3,8.63-19.82,17-10.13,27.38,2.74,3.45-1.5,6.24-2.79,9.26l39.84-33.6c-4.93,3.45-11,1.1-13.69-3.45.82-17.88-20.26-25.41-27.57-39.43Zm-589,1.92,11,28.64c10.76,64.18,15.93,135,74.3,175.72l-.82.82c-18.94-8.21-33.4-23.9-50.38-34.44C144.23,734.86,68.44,718.93,37.42,650.89c8.63,50,42.63,94.54,83.56,125.34,49.1,43.26,117.6,39.84,178,57.28-22-17-34.44-36.42-44.57-60.29-21.74-61-41.13-124.47-89.15-173.59Zm260.16,12.7,4.74,5.81Zm6.47,7.31c0,6.68,8.81,6.9,5.39,15.06-13.14,8.22-29.08,2.39-41.78,12-11.64,6.24-21.36-7.31-27.79-6.68,56.4,48.68,122.74,81.18,199,84.88l4.74,2.79c-2.74-18.51-1.92-40.25-.82-59.69-51.91,2.74-98.57-18.51-138.68-48.46Zm380.11,34.45a112,112,0,0,1-32.53,29.7c-40.25,13.69-44.14,58.79-83.56,73.93-15.5,6.24-24.64-13.69-38.33-17-20.89,3.45-42.63,9.26-64,5.81v65l2.79-1.92A401.67,401.67,0,0,0,856.4,700.06c-15.93-15.06-32.94-30.58-44.57-45.64ZM354.59,658l-43.07,44.57C385,768.48,473.06,804,571.68,810.26l-2.79-4.73c.82-19.39-1.51-39.84,1.91-58.38l-.82,1.1c-82.27-2.38-157.43-32.94-215.34-90.24Zm235.6,13.69,3.89,6.68-.82,49.09c14.23-5.4,34-4.93,47.17-7.31-7.75-7.75-19.38-6.9-22.4-18.51-5.39-7.75,2.39-15.94,1.92-22.4-9.25-4.52-23.05.82-29.71-7.53Zm329,46.54c-44.58,29.08-82.91,78.58-123.4,110.26-22.4,17-49.09,22-75.38,29.71,58.16,4.29,106.4,31.65,167.13,27.79a185.93,185.93,0,0,0,155.24-98.43C998,841,925.92,837.94,859.77,844c-22,2.79-43.73,9.25-65.9,9.25.82-.82,1.5-2.38,2.79-1.91,72.14-5.81,92.6-84.42,122.52-133.07Zm-671.68,4.52c29.71,34.88,31,81,72.37,109.63,15.93,13.69,37.23,16.59,54.92,23.9C355,858.21,337,850.05,317.13,849c-66.53-8.22-142.78.44-191.65-53.83,22,38.77,61.16,72.36,102.07,85.51C304.87,910.17,375.07,867,448.94,860.2c-85.51-3.88-132-97.55-201.35-137.39ZM805.12,903.87c-66.12-30.11-142.78-64-220.3-35.59a223.93,223.93,0,0,0-129.23,0c-68,31-161.07,77.76-232.73,25.85,13.58,16.43,28.21,23.9,43.73,35.59,46.55,30.12,113.49,27.38,161.54,2.79,44.14-18.5,77.76-73.87,133.94-56.4-47.58,23.9-91.31,52.57-130.71,93.64l23.9,20.45c34.88-46.08,81.59-84.41,132-106.78C636,907.11,680.54,947.6,717.34,988.29l23.9-20.46c-38.77-37.51-83.56-67.84-130-91.72,12-2.74,26.7-2.38,39-1.09,50.38,22,88.93,66.12,146,72.83,60.29,9.69,114.18-14.65,151.41-58.79L919,904.12c-33.59,14.87-79,11-113.27-.22Z"/></g></g></svg>