<svg id="Layer_1" data-name="Layer 1" xmlns="http://www.w3.org/2000/svg" viewBox="0 0 225.46 211.21"><defs><style>.cls-1{fill:#fff;}</style></defs><title>nft</title><path class="cls-1" d="M842.24,593.15c-.11-6.66-.17-13.31-.35-20-.07-2.84,1.38-3.9,4-3.92,4.5,0,9-.06,13.49-.06h73c0-2.12-1.67-2.19-2.67-2.77-18.43-10.71-36.83-21.48-55.39-32-4.43-2.5-6.43-5.45-6.4-10.67q.3-43.23,0-86.46c0-5,1.82-7.91,6.09-10.34q37.11-21.17,73.94-42.8c5-2.93,8.84-2.85,13.76.06Q998.46,406,1035.61,427c4.31,2.46,6,5.46,6,10.41q-.25,43.21,0,86.45c0,5-1.74,7.94-6,10.38-18.7,10.58-37.25,21.42-55.83,32.2-1,.55-2.23.76-2.86,2.67h90.37c0,6.65-.23,13.31.09,20,.16,3.34-.52,4.16-4,4.15q-78.59-.22-157.18-.1Zm189.6-112.55c0-13-.13-26,.08-39,.06-3.81-1.11-6.05-4.47-8q-34.29-19.51-68.36-39.42c-3.13-1.83-5.62-1.8-8.74,0Q916.48,414,882.43,433.45c-3.42,1.95-4.92,4.11-4.89,8.22.19,26.14.14,52.28,0,78.43,0,3.36.92,5.46,4,7.22,23.52,13.53,46.94,27.22,70.38,40.88a5.17,5.17,0,0,0,5.64,0q35.16-20.51,70.38-40.89c3.07-1.76,4-3.89,4-7.24C1031.76,506.91,1031.84,493.76,1031.84,480.6Z" transform="translate(-841.89 -382.04)"/><path class="cls-1" d="M900.49,489.43q0,12,0,24c0,3.58-.62,7.07-5.08,7.13s-4.93-3.54-4.95-6.75q-.15-30.75,0-61.49c0-3.08.75-6.33,4.59-6.71s5,2.59,5.86,5.64c3.48,12.51,7,25,11.06,37.5V448.25c0-3.5,0-7,.07-10.5.09-2.93,1.2-5.43,4.47-5.64,3.52-.23,5,2.25,5.38,5.35a37.65,37.65,0,0,1,.24,5q0,39.24,0,78.48c0,1.67-.06,3.34-.21,5-.26,3-1.07,5.85-4.57,6.24s-4.87-2.21-5.68-5.13q-2.88-10.35-5.76-20.7l-4.68-16.84Z" transform="translate(-841.89 -382.04)"/><path class="cls-1" d="M930.32,480.63c0-18.32.12-36.65-.07-55-.06-5.45,1.7-9.13,6.67-11.64a150.21,150.21,0,0,0,13.72-8.21c3.2-2.05,6.08-1.95,9.27.07,6.47,4.09,13.08,8,19.64,11.95,3.06,1.85,5.78,4.14,3.38,8-2.25,3.61-5.37,2.27-8.28.49-5.12-3.12-10.31-6.12-15.36-9.36a6.71,6.71,0,0,0-7.85-.16c-10.9,6.28-10.94,6.21-10.94,18.76,0,11.33.18,22.66-.08,34-.1,4.48,1.56,5.82,5.82,5.67,7.49-.25,15-.07,22.49-.06,1.5,0,3,0,4.49.13,3.11.31,5.7,1.6,5.65,5.11s-2.71,4.82-5.82,4.86c-7.82.12-15.65.06-23.48.09-10.14,0-9-.81-9.06,9.19,0,13.83,0,27.66,0,41.48a37.23,37.23,0,0,1-.14,4.49c-.37,2.75-1.73,4.79-4.76,4.82-2.72,0-4.33-1.69-4.78-4.25a37.56,37.56,0,0,1-.48-6.45Q930.28,507.63,930.32,480.63Z" transform="translate(-841.89 -382.04)"/><path class="cls-1" d="M1008.59,488.55c0,11.83,0,23.67,0,35.5,0,3.61-.52,7.18-5,7.05-4.11-.13-4.66-3.55-4.66-7,0-25.33-.12-50.66.12-76,0-5.07-1-8.68-6-10.68a22.6,22.6,0,0,1-5.08-3.17c-2.24-1.73-3-4-1.46-6.59a4.37,4.37,0,0,1,6.14-1.68,327.29,327.29,0,0,1,28.56,17.42,4.07,4.07,0,0,1,1.23,5.77c-1.39,2.38-3.51,2.88-6,2.14a6.74,6.74,0,0,1-.92-.4c-6.91-3-6.92-3-6.92,4.6Z" transform="translate(-841.89 -382.04)"/></svg>