<svg xmlns="http://www.w3.org/2000/svg" viewBox="0 0 76.71 85.76"><defs><style>.cls-1{fill:#fff;}</style></defs><title>optiflow</title><g id="Layer_2" data-name="Layer 2"><g id="Layer_1-2" data-name="Layer 1"><g id="pg_1_front" data-name="pg 1 front"><path class="cls-1" d="M38.86,0a9.68,9.68,0,0,1,1.27,1.29q3.56,5.12,7,10.27l.56.76c1-1.38,1.93-2.66,2.75-4,1.29-2.17,2.77-2,4,0,1.83,2.93,4,5.67,5.75,8.63a8.73,8.73,0,0,1-3.1,11.88,1.25,1.25,0,0,0-.7,1.32,18.15,18.15,0,1,1-32.94-9.77L36.61,1.21A8.87,8.87,0,0,1,37.85,0Zm-.52,4.72L38,5.23l-11.68,17A15,15,0,0,0,23.78,33.1,14.78,14.78,0,0,0,37,45.55c6.35.38,11.21-2.19,14.38-7.72a13.17,13.17,0,0,0,1.72-7.57,27.56,27.56,0,0,1-3.25-.55A8.93,8.93,0,0,1,45.25,16a1,1,0,0,0,0-1.31c-2.16-3.09-4.27-6.2-6.4-9.3C38.71,5.18,38.55,5,38.34,4.72Zm14.17,6.64-4.34,6.32a9,9,0,0,0-.65,1.07,5.54,5.54,0,1,0,9.67-.47C55.75,15.93,54.11,13.71,52.51,11.36Z"/><path class="cls-1" d="M54.25,76.64c-2.07.82-4,1.58-6,2.4a1,1,0,0,0-.43.74v3.85c0,1.54-.62,2.13-2.14,2.13H31c-1.52,0-2.12-.59-2.14-2.13V79.78a1,1,0,0,0-.43-.74c-1.94-.82-3.91-1.58-6-2.4-.94,1-2,2-3,3.06s-1.93,1.1-3,0q-5.2-5.16-10.38-10.34c-1.09-1.09-1.09-1.92,0-3s2.1-2.08,3.07-3c-.83-2.08-1.6-4.08-2.42-6A.92.92,0,0,0,6,57H2.23C.58,56.85,0,56.28,0,54.66V43.27c0-1.47.6-2.06,2.09-2.06H18.67c1.85,0,2.53,1,2.18,2.63a16.71,16.71,0,0,0,.37,8.68,17.83,17.83,0,0,0,10,11.31c.26.12.52.21.77.34a1.66,1.66,0,0,1,.95,2.16.14.14,0,0,1,0,.06,1.68,1.68,0,0,1-2.22.88l-.11,0A20,20,0,0,1,24,63.09a21.14,21.14,0,0,1-6.88-17c0-.47.1-.94.15-1.47H3.4v8.86H7.32c1.44,0,2,.37,2.35,1.75a30,30,0,0,0,2.86,6.93c.74,1.32.66,1.83-.4,2.88s-1.88,1.82-2.77,2.68l8.69,8.68c.87-.9,1.8-1.86,2.74-2.8a1.85,1.85,0,0,1,2.74-.39,30.6,30.6,0,0,0,7,2.9c1.38.37,1.75.9,1.76,2.34v3.92H44.41V78.51c0-1.52.36-2,1.77-2.42a30,30,0,0,0,6.93-2.87c1.31-.73,1.81-.65,2.88.42L58.6,76.3l8.63-8.63L64.75,65.2c-1.28-1.29-1.25-1.61-.51-3.22,1-2.2,1.92-4.44,2.76-6.7.54-1.43.93-1.82,2.49-1.82h3.82V44.61H59.5c0,.91.12,1.82.12,2.72A21.34,21.34,0,0,1,45.07,67.62c-1.65.56-2.79-.56-2.52-1.88.17-.83.83-1.15,1.54-1.38a16.73,16.73,0,0,0,5.41-2.93,17.41,17.41,0,0,0,6.66-15.3,17.41,17.41,0,0,0-.34-2.57c-.25-1.55.41-2.35,2-2.35h16.8c1.5,0,2.09.59,2.09,2.07V54.83c0,1.37-.6,2-2,2h-4a1.11,1.11,0,0,0-.76.52c-.79,1.9-1.53,3.81-2.36,5.89l3,2.93c1.24,1.24,1.24,2,0,3.25L60.42,79.61c-1.24,1.23-2,1.22-3.25,0C56.16,78.58,55.17,77.56,54.25,76.64Z"/><path class="cls-1" d="M40.11,67a1.71,1.71,0,1,1-1.73-1.69h0A1.71,1.71,0,0,1,40.11,67Z"/><path class="cls-1" d="M26.93,30.5a10.63,10.63,0,0,1,1.86-6,1.67,1.67,0,0,1,1.85-.84,1.52,1.52,0,0,1,1.28,1.46,3.58,3.58,0,0,1-.54,1.62A7.72,7.72,0,0,0,31,34a15.7,15.7,0,0,0,2.23,3.08,1.83,1.83,0,0,1,.39,1.79,1.38,1.38,0,0,1-1.37,1,2.45,2.45,0,0,1-1.48-.57A11,11,0,0,1,26.93,30.5Z"/><path class="cls-1" d="M38.33,39a1.68,1.68,0,1,1-1.66,1.85,2.09,2.09,0,0,1,0-.25A1.67,1.67,0,0,1,38.33,39Z"/></g></g></g></svg>