<svg id="Layer_1" data-name="Layer 1" xmlns="http://www.w3.org/2000/svg" viewBox="0 0 392.21 402.06"><defs><style>.cls-1{fill:#fff;}</style></defs><title>planet-b</title><path class="cls-1" d="M373.19,1285.19c11.12,3.31,22.2,6.69,31.95,13.29,5.09,3.45,10.63,7.32,6.34,14.28s-9.93,3.85-15.39.55c-44.69-27-97.93-5-108.67,45.3-4.08,19.09-2.08,37.89,8.61,55,10.19,16.33,23.69,30.66,29.89,49.44,1.27,3.84,4.81,4,8.17,4,15.16,0,30.33-.07,45.5.06,4.36,0,7.42-1.22,8.86-5.67,4.6-14.13,13.59-25.69,22.28-37.37,11.55-15.55,18.2-32.58,17.26-52.22-.28-6,.34-12.11,8.13-12.28,8.27-.18,8.8,6.18,9.11,12.49,1,20.36-4.77,38.71-16,55.56-7.4,11.12-16.17,21.33-22.07,33.47-2.61,5.38-2.75,9,2.43,13.76,12.67,11.61,11.12,30.06-2.95,40-4.48,3.17-6,6.45-6.07,11.72-.15,18.67-9.45,28.61-28.16,29.72a249.84,249.84,0,0,1-31.2,0c-18.7-1.23-27.84-10.79-28.76-29.61-.24-5.13-1.63-8.66-5.82-12.06-14.29-11.58-14.94-28.14-1.58-40.8,3.79-3.6,4.13-6.47,2.2-10.82-4.14-9.34-10.12-17.47-16.11-25.62-12-16.27-20.68-33.53-22.61-54.33-4.11-44.35,22.76-84.41,65.68-96,2.28-.62,4.56-1.28,6.84-1.91Zm-17,217.31h32.88c6,0,10.79-1.9,10.7-8.92-.09-6.56-4.7-8.35-10.32-8.36q-32.88,0-65.76,0c-5.66,0-10.34,1.92-10.34,8.36,0,6.79,4.82,8.9,10.85,8.92C334.86,1502.52,345.53,1502.5,356.19,1502.5Zm.39,36v-.25c6.24,0,12.52.49,18.7-.13,7.4-.74,8.2-6.47,8.14-12.58-.06-6.49-4.61-5.79-8.76-5.8-12.19,0-24.38.18-36.57-.07-5.9-.13-7.88,2.41-7.72,8,.23,7.37,3.64,10.94,11,10.82C346.46,1538.43,351.52,1538.5,356.58,1538.5Z" transform="translate(-129.61 -1285.19)"/><path class="cls-1" d="M129.66,1611.86c0-12.2-.14-24.39,0-36.59.18-12.69,7.32-20.83,20-21.73,10-.72,20.2-.26,30.3,0,5.51.17,11,2.05,14.12,6.63,5.84,8.53,13.34,7.62,21.28,4.79a188.48,188.48,0,0,1,23.87-7.2c24.89-5.3,45.77,3,64,19.18a22.4,22.4,0,0,0,16.85,6.15c9.8-.35,19.63-.05,29.44-.09,5.44,0,11.25.21,15.42,3.51,6.16,4.86,11,3,16.89-.18,15.44-8.33,31.1-16.26,46.83-24,15.2-7.51,30.47-3.69,38.36,9.18s4.08,28.25-9.82,38.25c-30.19,21.69-60.62,43.06-90.8,64.77-17.36,12.49-35.68,15.9-56.5,9.66-27.61-8.27-55.6-15.27-83.44-22.77-5.16-1.39-10.3-2.65-15.76-2.74-6.75-.12-12.1.74-17.09,6.7-8,9.58-49.29,9-58.06.15a20.5,20.5,0,0,1-6-15.3C129.73,1637.44,129.66,1624.65,129.66,1611.86Zm191,10.65v-.08c9.22,0,18.45.07,27.67,0,10.16-.11,15.43-4,15.21-11-.22-6.77-6-11-15.58-11.21-9.82-.17-19.67-.53-29.46.08-10.19.62-18.14-2.52-25.71-9.52-14.41-13.34-31.13-20.31-51.47-15.78-12.43,2.76-23.68,9.87-37,9.36-4-.15-3.82,3.89-3.83,6.84-.05,14.29.14,28.58-.11,42.86-.1,6,2.59,7.93,8.12,7.56a58.77,58.77,0,0,1,19.4,2.25c29,7.9,58.13,15.18,86.91,23.74,15.38,4.58,28.6,2.27,41.27-6.89,11.81-8.54,23.79-16.85,35.66-25.31,18.41-13.13,36.91-26.14,55.13-39.54,7.81-5.75,8.57-15,2-18.35-4.6-2.35-9.29-1.26-13.71,1-15.91,8.1-31.77,16.31-47.75,24.25-4.51,2.24-6.29,5.27-6.73,10.38-1.33,15.5-10.57,24.94-26.33,26.43-21.06,2-42.22.85-63.33.59-5.55-.07-11.19-1.55-11-8.84.14-7.06,5.46-8.64,11.19-8.76C301,1622.36,310.79,1622.51,320.61,1622.51Zm-173.72-10.33c0,11,.27,22-.1,33-.24,7.09,2.72,9.62,9.53,9.24,6.23-.35,12.49-.21,18.73,0,5.64.15,8.15-2.41,8.14-8q-.09-33.45,0-66.91c0-6.11-2.86-8.56-8.77-8.41-6.54.17-13.09.15-19.63,0-5.64-.11-8,2.45-7.95,8.1C147,1590.17,146.91,1601.18,146.89,1612.18Z" transform="translate(-129.61 -1285.19)"/><path class="cls-1" d="M348,1365.77c0-7.13-.2-14.26.06-21.37.21-5.58,2.48-10,8.93-10,6.05,0,8.36,4.33,8.45,9.48.26,15.42.31,30.85,0,46.26-.1,5.2-2.94,9.42-8.76,9.27s-8.34-4.35-8.54-9.59c-.31-8-.08-16-.08-24Z" transform="translate(-129.61 -1285.19)"/><path class="cls-1" d="M216.4,1374.33c5,0,10.13-.39,15.12.11s8.3,3.31,8.19,8.77c-.1,5-3.21,7.6-7.81,8.18a145.42,145.42,0,0,1-32,.18c-5-.48-8.39-3.62-8.29-8.81s3.83-8,8.74-8.39c5.31-.4,10.68-.09,16-.09Z" transform="translate(-129.61 -1285.19)"/><path class="cls-1" d="M497.93,1374.38c5.34,0,10.72-.41,16,.12,4.48.45,7.8,3.16,7.88,8.15s-2.76,8-7.38,8.6a122.7,122.7,0,0,1-33.7,0c-4.73-.66-7.23-4.19-7.05-8.89a7.76,7.76,0,0,1,7.37-7.7c5.58-.54,11.25-.13,16.88-.13Z" transform="translate(-129.61 -1285.19)"/><path class="cls-1" d="M471,1324.91c-5.67,0-8.28-1.67-9.83-4.92-1.8-3.78-.84-7.42,2.25-9.62,9.2-6.53,18.63-12.76,28.14-18.83,3.49-2.23,7-.85,9.65,2,2.41,2.57,3.81,6.17,1.36,8.93C493.31,1312.78,481,1318.75,471,1324.91Z" transform="translate(-129.61 -1285.19)"/><path class="cls-1" d="M253.37,1449.56c-.15,3.21-2.1,5.73-4.92,7.64-7.87,5.33-15.74,10.67-23.7,15.87-4.85,3.17-9.72,3.48-13.14-1.93-3.17-5-.93-9.17,3.48-12.19,8.09-5.54,16.11-11.21,24.52-16.22C246.21,1438.8,253.24,1442.43,253.37,1449.56Z" transform="translate(-129.61 -1285.19)"/><path class="cls-1" d="M494.21,1475.21a18.86,18.86,0,0,1-4.78-1.79c-8.21-5.38-16.38-10.82-24.38-16.5-4.24-3-6.7-7.18-3.2-12.21,3.33-4.8,8-4.85,12.55-1.88,8.47,5.52,16.89,11.12,25.13,17,3.31,2.36,5.13,5.8,3.33,10.13C501.46,1473.32,498.93,1475.05,494.21,1475.21Z" transform="translate(-129.61 -1285.19)"/><path class="cls-1" d="M219.23,1290.47a35.46,35.46,0,0,1,5.41,2.42c8,5.19,15.85,10.45,23.67,15.85,4.34,3,6.77,7.06,3.6,12.14-3.42,5.48-8.34,5-13.13,1.92-8.2-5.33-16.34-10.79-24.35-16.42-3.74-2.63-5.37-6.38-3.36-10.89C212.54,1292.2,215.37,1290.76,219.23,1290.47Z" transform="translate(-129.61 -1285.19)"/></svg>