<svg xmlns="http://www.w3.org/2000/svg" viewBox="0 0 99.71 99.67"><defs><style>.cls-1{fill:#fff;}</style></defs><title>potenza_1</title><g id="Layer_2" data-name="Layer 2"><g id="Layer_1-2" data-name="Layer 1"><g id="pg_1_front" data-name="pg 1 front"><path class="cls-1" d="M26.69,20.69l24-19.11A6.17,6.17,0,0,1,59.4,2c.16.17.3.36.44.54L89.5,39.83c.8,1,.78,1.4-.12,2.3a3.72,3.72,0,0,0,4.69,5.76c1-.61,1.43-.56,2.11.32A33.75,33.75,0,0,1,99,52a6,6,0,0,1-1.6,7.54Q73.11,79,48.79,98.35a6.13,6.13,0,0,1-8.6-1Q25.1,78.54,10.06,59.66a1.25,1.25,0,0,1-.13-1.76,1.61,1.61,0,0,1,.28-.24,3.72,3.72,0,0,0-4.64-5.81,1.23,1.23,0,0,1-1.75,0,1.2,1.2,0,0,1-.25-.34A29.75,29.75,0,0,1,.79,47.82,6,6,0,0,1,2.45,40ZM40.32,55.86l-.7.55c-1.94,1.6-3.86,3.12-5.83,4.6a2.34,2.34,0,0,1-1.32.48c-1.86.11-3.72.13-5.58.2A1.57,1.57,0,0,1,25.43,61c-.81-1.07-1.69-2.09-2.5-3.16a1.14,1.14,0,0,0-1.27-.53,3.61,3.61,0,0,1-3.88-2.07A3.7,3.7,0,0,1,18.56,51a3.76,3.76,0,0,1,4.51-.54,3.46,3.46,0,0,1,1.66,4,2,2,0,0,0,.6,2.42,2.93,2.93,0,0,1,.39.48c.8,1.55,2.05,1.81,3.74,1.79a7.13,7.13,0,0,0,5.21-2c1.26-1.21,2.71-2.21,4.1-3.31L37.21,52c-.92.74-1.79,1.47-2.7,2.14a2.2,2.2,0,0,1-1,.44c-1.36.15-2.72.26-4.09.36a1.24,1.24,0,0,1-1.48-1,.68.68,0,0,1,0-.14c-.08-.76.41-1.3,1.32-1.39,1.1-.11,2.21-.19,3.31-.29a1.59,1.59,0,0,0,.74-.18c.82-.61,1.61-1.27,2.3-1.82-.33-.75-.88-1.42-.81-2S35.51,47,36,46.39A14.64,14.64,0,0,1,34.88,45a1.08,1.08,0,0,0-1.41-.49c-3.2.88-6.44,1.67-9.64,2.55a1.76,1.76,0,0,1-2.21-.71c-.76-1.07-1.64-2.06-2.44-3.11a.92.92,0,0,0-1-.41A3.72,3.72,0,1,1,21,40.59a.85.85,0,0,0,.14,1c.64.75,1.27,1.51,1.84,2.31a1,1,0,0,0,1.21.42c3.24-.87,6.5-1.67,9.73-2.57a1.84,1.84,0,0,1,2.31.8c.56.82,1.23,1.57,1.88,2.38L40,43.38l-.55-.69c-1.55-1.94-3.12-3.87-4.62-5.84a2.31,2.31,0,0,1-.47-1.39c0-2.8.08-5.59.31-8.37A4.77,4.77,0,0,0,33.33,23a30.15,30.15,0,0,1-2.19-2.71l-.81.65L13.73,34.21,4.09,41.9A3.72,3.72,0,0,0,3.17,47c.52.79,1.18,1.5,1.77,2.23q5-1.74,7.76,1.81c1.75,2.22,1.72,4.94-.09,7.76L36.61,89c1.23-1,2.39-2,3.62-2.85a2.42,2.42,0,0,1,1.48-.43c2.67.24,5.34.59,8,.86a2,2,0,0,1,1.42.8c.92,1.2,1.88,2.38,2.83,3.57L58.89,87c-1.72-2.17-3.4-4.29-5.11-6.4a2.22,2.22,0,0,1-.56-1.6c.12-2.45,0-4.92.32-7.36a6.32,6.32,0,0,0-2-5.75A15.42,15.42,0,0,1,50,64c-1.81,1.3-1.81,1.3-3.56-.35-1.46,1.16-3.23,2.12-4.31,3.58-.87,1.18-.93,3-1.31,4.49a1.27,1.27,0,0,0,.19.89c.66.9,1.39,1.74,2.06,2.63a.87.87,0,0,0,1,.4,3.65,3.65,0,0,1,4,2.08,3.73,3.73,0,0,1-5.63,4.55,3.62,3.62,0,0,1-1.16-4.43.87.87,0,0,0-.15-1c-.89-1.08-1.73-2.19-2.63-3.26a1.7,1.7,0,0,1-.37-1.72,17.31,17.31,0,0,0,.71-2.77,6.86,6.86,0,0,1,3.51-5.39,9.14,9.14,0,0,0,1.1-.87L45,61.68l-1.54-1.92-.33.24c-3.36,2.67-6.71,5.36-10.08,8-.4.32-.32.62-.26,1a3.68,3.68,0,0,1-2.17,4,3.73,3.73,0,0,1-4.49-5.65,3.62,3.62,0,0,1,4.36-1.19,1,1,0,0,0,1.22-.22c3.18-2.55,6.38-5.1,9.57-7.64l.62-.5Zm19-12.07.3-.19q5.07-4,10.14-8.07c.36-.29.32-.56.26-.93a3.72,3.72,0,1,1,5.23,2.76,3.74,3.74,0,0,1-3,.06,1,1,0,0,0-1.15.18l-9.7,7.75c-.17.14-.33.3-.5.45l1.49,1.87a.66.66,0,0,0,.19-.09c2.12-1.69,4.25-3.37,6.36-5.08a1.68,1.68,0,0,1,1.65-.34,15.28,15.28,0,0,0,2.48.63A7.3,7.3,0,0,1,79,46.54l0,.06A.81.81,0,0,0,80,47a3.72,3.72,0,1,1-2.77,2.19.94.94,0,0,0-.14-1,5.71,5.71,0,0,0-4.45-2.92c-.61-.07-1.19-.35-1.8-.43a1.52,1.52,0,0,0-1,.2c-1.3,1-2.56,2-3.84,3l-1.85,1.48c.33.77.88,1.45.8,2s-.78,1.11-1.25,1.72c1,1.19,2,2.43,2.94,3.7a.92.92,0,0,0,1,.38c1.78-.27,3.58-.47,5.37-.74a1.76,1.76,0,0,1,1.93.76c.5.72,1.12,1.36,1.63,2.07a1.11,1.11,0,0,0,1.28.51,3.66,3.66,0,0,1,3.84,2,3.76,3.76,0,0,1-.69,4.3,3.68,3.68,0,0,1-4.48.68,3.32,3.32,0,0,1-1.8-3.9,2.46,2.46,0,0,0-.82-2.95c-.14-.15-.23-.37-.4-.47a1.92,1.92,0,0,0-.89-.35c-1.9.21-3.8.47-5.69.74a1.52,1.52,0,0,1-1.55-.63c-1.06-1.37-2.15-2.71-3.23-4.06l-.45-.57-2,1.55.55.68c1.55,1.94,3.11,3.87,4.62,5.84a2.43,2.43,0,0,1,.48,1.39c-.07,3.13-.16,6.26-.33,9.38a3,3,0,0,0,.77,2.31c1,1.09,1.84,2.27,2.78,3.45l.8-.64,17.4-13.89,8.79-7a3.76,3.76,0,0,0,.89-5.18c-.52-.76-1.15-1.45-1.73-2.18C92,51.56,89.4,51.3,87.37,49c-2.32-2.59-2.15-5.41-.29-8.2L63,10.73c-1.23,1-2.39,2-3.62,2.85A2.28,2.28,0,0,1,58,14c-2.68-.24-5.35-.58-8-.86a2,2,0,0,1-1.43-.79c-.92-1.21-1.88-2.38-2.84-3.58l-4.85,3.87c1.72,2.16,3.4,4.29,5.11,6.39a2.24,2.24,0,0,1,.55,1.62c-.11,2.59,0,5.19-.32,7.75A5.71,5.71,0,0,0,48,33.48a24.67,24.67,0,0,1,1.78,2.19c1.82-1.31,1.82-1.31,3.54.34L58,32.18c-1.28-1.61-2.52-3.19-3.81-4.73-.12-.15-.5-.14-.75-.1A3.68,3.68,0,1,1,55,20.69a3.64,3.64,0,0,1,1.16,4.44.86.86,0,0,0,.15,1c1.42,1.75,2.82,3.51,4.22,5.27a1.29,1.29,0,0,1,.16,1.81,1.36,1.36,0,0,1-.38.3l-5,4-.63.5,1.53,1.91c.12-.08.21-.12.28-.18q3.89-3.09,7.76-6.2a1.55,1.55,0,0,0,.43-.77,34.09,34.09,0,0,1,.88-3.69,3.87,3.87,0,0,0-1.11-4.68,1,1,0,0,0-1-.36A3.71,3.71,0,1,1,65,17.41a3.61,3.61,0,0,1,1.19,4.42.88.88,0,0,0,.18,1.09c.63.75,1.21,1.55,1.85,2.3a1.65,1.65,0,0,1,.38,1.57c-.55,2.37-1.06,4.74-1.64,7.1a2.58,2.58,0,0,1-.79,1.25c-2.14,1.76-4.31,3.47-6.48,5.19l-2,1.56ZM37.7,48.47,48.48,62,62,51.21,51.2,37.69ZM33,18.83c1.26,1.59,2.49,3.08,3.66,4.63a2.46,2.46,0,0,1,.44,1.33,70.79,70.79,0,0,1-.3,8,5.57,5.57,0,0,0,1.58,4.73c1.25,1.32,2.3,2.83,3.46,4.28l1.94-1.55c-1.49-1.87-3-3.69-4.4-5.55a2.39,2.39,0,0,1-.46-1.4c.07-3.28.19-6.56.33-9.84a1.93,1.93,0,0,0-.44-1.41c-1.16-1.39-2.27-2.82-3.4-4.23l-.5-.57Zm5.83-4.63L36.9,15.75c1.48,1.85,3,3.65,4.35,5.5a2.66,2.66,0,0,1,.5,1.53c-.06,3.28-.22,6.56-.3,9.84a2.15,2.15,0,0,0,.41,1.25c.8,1.1,1.69,2.15,2.54,3.22l1.32,1.65,1.94-1.55c-1.23-1.55-2.45-3-3.6-4.55a2.56,2.56,0,0,1-.48-1.47c.07-3.3.22-6.61.32-9.91a1.64,1.64,0,0,0-.2-.94c-1.54-2-3.16-4.05-4.82-6.12ZM54,60.94,52,62.49c1.23,1.54,2.45,3,3.59,4.54a2.58,2.58,0,0,1,.49,1.46c0,2.82-.09,5.64-.3,8.44A4.71,4.71,0,0,0,57,80.77c1.35,1.49,2.53,3.12,3.8,4.72l1.94-1.56c-1.49-1.86-3-3.68-4.39-5.54A2.35,2.35,0,0,1,57.91,77c.07-3.31.21-6.61.31-9.91a1.58,1.58,0,0,0-.16-.95C56.73,64.39,55.34,62.69,54,60.94Zm1.91-1.57c1.51,1.88,3,3.68,4.38,5.52a2.6,2.6,0,0,1,.5,1.47c-.07,3.28-.2,6.56-.33,9.83a1.89,1.89,0,0,0,.46,1.41q1.71,2.12,3.39,4.23l.45.56,2-1.55c-1.22-1.52-2.44-3-3.58-4.52a2.7,2.7,0,0,1-.51-1.53c.06-3.28.22-6.56.3-9.84a2.29,2.29,0,0,0-.44-1.31c-1.35-1.77-2.75-3.49-4.14-5.22-.16-.2-.33-.38-.51-.58ZM60,6.84c-.57.45-1.11.84-1.6,1.29a1.82,1.82,0,0,1-1.63.48c-1.51-.2-3-.3-4.54-.54A2.56,2.56,0,0,1,51,7.36,17,17,0,0,1,49.6,5.68l-2,1.55c.88,1.1,1.72,2.18,2.59,3.22a.86.86,0,0,0,.6.25c2.28.28,4.56.53,6.85.77a.87.87,0,0,0,.57-.08c1.1-.85,2.18-1.72,3.29-2.61Zm-20.23,86c.58-.45,1.12-.84,1.61-1.29a2,2,0,0,1,1.7-.48c1.46.19,2.92.35,4.39.49a1.87,1.87,0,0,1,1.42.78c.42.58.88,1.12,1.31,1.65l1.94-1.55c-.87-1.09-1.71-2.17-2.58-3.21a1.13,1.13,0,0,0-.68-.27c-2.23-.27-4.46-.51-6.69-.76-.2,0-.46-.07-.59,0-1.14.87-2.25,1.78-3.37,2.67Zm18.63-88c-1.9-3.14-5.08-2.8-6.79-.72a2.51,2.51,0,0,0,2.57,1.67,3.86,3.86,0,0,1,1.31.15,2.55,2.55,0,0,0,2.86-1.09Zm-17,90c1.76,2.82,4.59,3.13,6.8.73a2.57,2.57,0,0,0-2.49-1.66,3.88,3.88,0,0,1-1.31-.14,2.6,2.6,0,0,0-3,1ZM16.7,38.19a1.24,1.24,0,1,0,1.67.15A1.25,1.25,0,0,0,16.7,38.19ZM53.56,24.65a1.24,1.24,0,1,0-1.74-.21h0A1.3,1.3,0,0,0,53.56,24.65ZM22.1,52.88A1.24,1.24,0,1,0,22,54.62,1.3,1.3,0,0,0,22.1,52.88ZM63.85,19.64a1.23,1.23,0,0,0-1.94,1.52,1.22,1.22,0,0,0,1.72.21A1.29,1.29,0,0,0,63.85,19.64Zm-35.56,49a1.23,1.23,0,1,0,1.59,1.89A1.28,1.28,0,0,0,30,68.79,1.31,1.31,0,0,0,28.29,68.64Zm46.4-35.43a1.26,1.26,0,0,0-2,1.53,1.26,1.26,0,1,0,2-1.53ZM45.53,80.28A1.24,1.24,0,1,0,43.8,80h0A1.28,1.28,0,0,0,45.53,80.28ZM81.44,51.62a1.24,1.24,0,0,0-1.53-1.94,1.24,1.24,0,1,0,1.36,2.08ZM79.31,62.88a1.24,1.24,0,1,0-.23,1.74A1.3,1.3,0,0,0,79.31,62.88Z"/><path class="cls-1" d="M43.12,47.29c.34-.28.67-.58,1-.82a1.18,1.18,0,0,1,1.64.29h0a1.13,1.13,0,0,1-.08,1.59l0,0a21,21,0,0,1-2.15,1.74,1.17,1.17,0,0,1-1.6-.28,1.2,1.2,0,0,1,.1-1.67C42.37,47.85,42.75,47.58,43.12,47.29Z"/><path class="cls-1" d="M49.48,45.37a1.24,1.24,0,1,1,.17-1.74l0,0a1.22,1.22,0,0,1-.17,1.71Z"/></g></g></g></svg>