<svg id="Layer_1" data-name="Layer 1" xmlns="http://www.w3.org/2000/svg" viewBox="0 0 229.11 341.48"><defs><style>.cls-1{fill:#fff;}</style></defs><title>rc</title><path class="cls-1" d="M659.22,271.48c2.38-5.49,6.5-7.31,12.5-7.28,37.33.21,74.66.11,112,.11,1.36,0,2.72,0,4.07,0a3.91,3.91,0,0,1,4,3.82c.3,2.6-.87,4.33-3.4,4.84a26.53,26.53,0,0,1-5.05.35c-16.12,0-32.24.1-48.36-.06-3.43,0-4.9.71-4.61,4.43.32,4.22,0,8.48.09,12.72.06,3.32-1.13,6.05-4.59,6.13s-4.68-2.59-4.58-6c.13-4.41-.15-8.84.09-13.23.17-3.08-.73-4.12-3.94-4.09-15.1.16-30.21.13-45.31,0-2.83,0-3.83.77-3.78,3.72.16,9.5.12,19,0,28.5,0,2.52.57,3.91,3.37,3.58a32.52,32.52,0,0,1,3.56,0H837.16c7.06,0,7.8.72,7.8,7.92q0,43.79,0,87.57a27.44,27.44,0,0,1-.37,5,3.75,3.75,0,0,1-4.11,3.06c-2.12-.07-4-1.06-4.16-3.59-.12-1.69-.13-3.39-.13-5.09,0-26.81-.09-53.62.09-80.43,0-4.07-.8-5.57-5.22-5.47q-20.87.44-41.74,0c-4.17-.09-5.09,1.27-4.95,5.13.29,7.46.07,14.93.09,22.4,0,3.31-.49,6.44-4.65,6.43s-4.55-3.15-4.52-6.47c.05-8-.08-15.95.06-23.92,0-2.63-.72-3.52-3.43-3.51q-50.13.1-100.28,0c-2.31,0-3.31.55-3.3,3.1q.15,23.93,0,47.85c0,2.75,1,3.44,3.56,3.43q24.95-.12,49.89,0c2.6,0,3.59-.83,3.54-3.51-.14-7-.19-13.92,0-20.87.09-3.1-1.24-3.69-3.93-3.64-6.79.13-13.58.05-20.36,0a17,17,0,0,1-4-.22c-2.52-.64-4.44-2.21-4-5a4.24,4.24,0,0,1,4.63-3.8c10.53,0,21,0,31.57,0,4.19,0,4.94,2.89,5,6.21,0,8.66.22,17.32-.07,26-.14,3.93,1.21,4.8,4.91,4.74,14.59-.2,29.18-.09,43.78-.07,1.68,0,3.37-.2,5,.57,2.13,1,3.14,2.61,2.74,4.88a4,4,0,0,1-3.72,3.57c-1.52.14-3,.08-4.58.08-36,0-72,.12-107.92-.13-5.1,0-6.07,1.48-6,6.24.26,21.88.22,43.78,0,65.67,0,3.84,1,4.88,4.81,4.78,10.35-.26,20.7-.1,31-.07a22.23,22.23,0,0,1,4.55.31,4,4,0,0,1,3.55,4.75c-.24,2.65-1.79,3.95-4.36,3.95-13.41,0-26.81.09-40.22-.06-4.51-.05-6.55-3.62-8.45-7.08Z" transform="translate(-659.22 -125.66)"/><path class="cls-1" d="M888.33,459.86c-2.42,5.46-6.54,7.3-12.53,7.27-42.06-.19-84.13-.1-126.19-.1-7.88,0-8.18-.31-8.18-8.44,0-13.74-.12-27.48.07-41.22,0-3.63-1.14-4.59-4.63-4.51-9.49.21-19,.07-28.5.07-3.26,0-6.49-.37-6.55-4.54s3.06-4.56,6.4-4.55q25.95.07,51.9,0c3.43,0,6.61.61,6.61,4.45s-3.15,4.63-6.58,4.7c-9.94.19-9.94.26-9.94,10.21,0,10.18.11,20.36-.06,30.53,0,3.27.88,4.35,4.29,4.34q60.3-.18,120.6,0c3.36,0,4.23-1,4.22-4.3q-.13-88,0-176.06c0-3.76-1.31-4.42-4.67-4.38-14.24.16-28.49.07-42.74.07-1.19,0-2.38.06-3.56,0-2.95-.24-5.48-1.13-5.36-4.73s2.46-4.35,5.57-4.32c9.84.07,19.68,0,29.52,0,5.93,0,11.89.32,17.8-.09s10,1.88,12.49,7.26Z" transform="translate(-659.22 -125.66)"/><path class="cls-1" d="M818.05,391.62c0,12.21,0,24.42,0,36.62,0,5.67-1.53,7.15-7.23,7.16-13.22,0-26.45,0-39.67,0-3.16,0-6-.43-6.19-4.29-.17-4.2,2.85-4.84,6.2-4.84h30c7.65,0,7.65,0,7.65-7.9V356.33c0-1.35,0-2.71.05-4.06.16-2.74,1.49-4.44,4.37-4.6s4.42,1.74,4.69,4.29a89.79,89.79,0,0,1,.13,9.14Z" transform="translate(-659.22 -125.66)"/><path class="cls-1" d="M816.83,196c-2.15-1.52-1.36-1-3.68-.11-2.81,1.1-3.49,3.54-4.2,6a.71.71,0,0,0,.08.72c.24.21.49,0,.68-.12a5.42,5.42,0,0,1,2.64-.64c.35,0,.71,0,.87.36s-.07.62-.34.85a13.53,13.53,0,0,0-2.85,2.6c-.21.31-.51.12-.79,0-.79-.33-1,.06-1.13.79-.39,3.13-.41,6.32-.89,9.42a6.56,6.56,0,0,0,5.75,7.23,13,13,0,0,1,2,.52c1.15.41,1.74-.07,1.77-1.29,0-.41,0-.83,0-1.25a1.41,1.41,0,0,1,1.54-1.58c1.29,0,2.59,0,3.88,0s1.62,1,1.68,2c.24,4.05-.23,8.09-.27,12.14,0,1.3-.71,1.76-2.07,1.77-1,0-2,0-3,0a2.47,2.47,0,0,1-2.73-2.63c0-.73-.46-1.37-.19-2.2.19-.55-.52-.38-.79-.24-2.08,1-4.48,1-6.56,2-.62.29-1.59-.38-1.83.62-.17.67,0,1.43-.1,2.12-.37,2.09-.37,4.21-.68,6.3-.27,1.89.29,2.29,2.15,1.81a29.45,29.45,0,0,0,5.17-1.76c.95-.45,1.63-1.52,2.89-1.28-1.13,1.21-2.81,1.56-4.1,2.61a3.28,3.28,0,0,0,1.86.37c2.69,0,2.68,0,3.3-1.83.13-.41.3-.87.07-1.21s-.73.21-1.12,0c.24-1.26,1.48-1.55,2.32-2.07a15.64,15.64,0,0,1,3.72-1.38c1.29-.38,1.71,0,1.78,1.39.16,3.51-.31,7-.26,10.5,0,.59-.11,1.11-.85,1.13-1.7,0-3.43.37-5.07.32-1.91-.06-3.88-.17-5.81-.42a61.13,61.13,0,0,0-6.63-.12c-.68,0-1.07.59-1.62.87-.78.42-1.53.69-2.17-.23a2.25,2.25,0,0,0,2.82-1.64,9.66,9.66,0,0,0,.72-3.13,14.38,14.38,0,0,1,.12-4.1c.61-2.45.21-4.89.4-7.33,0-.73-.33-1.06-1.06-1.06h-4c-.77,0-1.09.4-.76,1.14a3,3,0,0,1,.25,1.83,41.22,41.22,0,0,0-.19,6c0,.61.4,1.22,0,1.82-.42,0-.83,0-1.25,0-.6,0-1,.22-1,.87,0,1.17,0,2.34,0,3.51s1,.76,1.63.79.93-.5.77-1.1a16.66,16.66,0,0,1-.2-4.11c.24.11.47.29.45.55-.15,2,.49,3.83.83,5.73a4.81,4.81,0,0,0-2.28-.49c-3.08-.07-6.15-.37-9.23-.22a5.8,5.8,0,0,0-1.84.29,2.07,2.07,0,0,1-1.34.08,10.15,10.15,0,0,0-3.83-.37c-.56,0-1.12,0-1.1-.84.09-3.79-.22-7.58.17-11.37.1-.93.5-1,1.23-.79a24.68,24.68,0,0,1,6.65,3.28c1.06.71,2.13,1.4,3.18,2.12a1.15,1.15,0,0,1,.59.78l-.48-.15c-1.49-.5-2.55-1.7-3.92-2.41-.31-.17-.66-.51-1-.21-.5.43.17,2.91.81,2.94a22.74,22.74,0,0,1,4.93.51c.08,0,.2-.1.31-.15-.09-.38-.51-.29-.66-.54a9.12,9.12,0,0,1,3.06.53,5.53,5.53,0,0,0,2.1.17c.57,0,.75-.32.85-.86.6-3-.14-6-.27-9.06a.7.7,0,0,0-.56-.73c-2-.48-3.82-1.42-5.86-1.69a5.6,5.6,0,0,1-2.18-.88c-.57-.35-1-.22-.92.55.12,1.23-.56,2.35-.44,3.58,0,.29.1.83-.63.42-.47-.26-.89.6-1.55.54-1.44-.15-2.91-.17-4.35-.32-.92-.09-1.24-.87-1.24-1.64a62.79,62.79,0,0,1,.13-7.51,38.45,38.45,0,0,0,.09-3.88c0-1.94.65-2.56,2.53-2.56h2.89a1.63,1.63,0,0,1,1.79,1.68c0,.49,0,1,0,1.5,0,1.6.17,1.79,1.63,1.28a52.62,52.62,0,0,0,5.2-1.7,6,6,0,0,0,3-5.83,14,14,0,0,1-.08-2.75c.06-2.14-.12-4.26-.24-6.38,0-.71-.29-1.13-1.05-1.08a1.37,1.37,0,0,1-1.4-.79c-.55-.88-1.74-1.14-2.2-2.15-.16-.35-.58-.66-.23-1.12s.71-.18,1.12-.11a8.77,8.77,0,0,1,2.24.73c.61.28.83,0,.62-.55a21,21,0,0,1-1-3.58,1.57,1.57,0,0,0-.49-.85,15.94,15.94,0,0,0-5.34-3.12,2.16,2.16,0,0,0,.21-2.12,10.49,10.49,0,0,0-1.15-2.47c-.11-.17-.28-.37,0-.54a.38.38,0,0,1,.55.13c.45.91,1.4,1.5,1.59,2.62.08.49.25,1.52.74,1.35.7-.24.34-1.17.22-1.78a5.35,5.35,0,0,0-.65-1.19c-.15-.27-.51-.49-.24-.88,1.4.81,1.84,1.43,2.18,3.59a1.62,1.62,0,0,0,1.79,1.36c.81,0,.46-.89.53-1.42a6,6,0,0,0,0-1.12,40.17,40.17,0,0,1,.61-10c.79-3.64,1.06-7.37,2-11,.26-.95,0-2.13.91-2.86a11,11,0,0,1-.48,3.69c-.46,2.47-1.06,4.92-1.37,7.41-.18,1.48-.76,2.9-.64,4.41,0,.24-.14.6.34.68a37.93,37.93,0,0,0,2-9.07c.13-1.29.39-2.61.61-3.91a29.2,29.2,0,0,0,.84-6.25c0-.22.08-.52-.32-.63l-.94,3.68c-.23-1.27.31-2.44.5-3.66a37.86,37.86,0,0,1,1-4.72c.82-2.85,1.94-5.64,1.71-8.69.55.29.52.81.5,1.31a7.32,7.32,0,0,0,.46,2.49c1-2.08.77-4.16.78-6.21,0-.56-.31-.83-.87-.82s-.83.32-.84.87c0,.79,0,1.58,0,2.37-.68-.61-1-.55-1,.46a8.9,8.9,0,0,1-.22,1.61c-.3,1.62-1.11,3.15-.64,4.91a1,1,0,0,1-.8,1.34c-.39.06-.47.39-.57.74a20.51,20.51,0,0,1-1.89,4.73c-.79,1.42-1.41,2.93-2.26,4.3a3.7,3.7,0,0,0-.25,3.45c.39,1,0,1.42-.83,1.48a2.22,2.22,0,0,0-2,1.79c-.91,2.81-2.4,5.37-3.3,8.19-.76,2.37-1.91,4.61-1.81,7.2a3.47,3.47,0,0,1-.24,1,6.56,6.56,0,0,0,.55,4.82c.94-1,1.59-2,2.72-2.59a6.5,6.5,0,0,1-2,2.79,2,2,0,0,0-.9,2.28c0,.22.24.51-.1.64s-.47-.14-.6-.35a6.23,6.23,0,0,1-.5-4.61,7.69,7.69,0,0,0,.32-2.06,18.56,18.56,0,0,1,.85-5.39,8.82,8.82,0,0,0,.14-1.86c0-.88,0-1.76,0-2.64.09-8.76.16-17.53.29-26.29,0-.83-.33-.87-.94-.91-1.19-.07-2.41.21-3.58-.32a1.63,1.63,0,0,1-1.11-1.61c-.16-4.09.36-8.17.28-12.26a1.27,1.27,0,0,1,1.43-1.38c2,0,3.93,0,5.89,0a1.67,1.67,0,0,1,1.73,1.77c.06.88,0,1.76.06,2.63,0,.33,0,.74.49.74s.46-.41.47-.75c0-.58,0-1.16,0-1.75s-.08-1.44.86-1.71c.43-.13.44-.58.43-1-.17-3.76.39-7.5.24-11.26a4.91,4.91,0,0,0-.42-2.56.48.48,0,0,1,.21-.7c.93,1,.82,2.37.95,3.61a23,23,0,0,1,0,2.63c0,.74.32,1.06,1,1,1,0,1.93,0,2.89,0,4.26-.17,8.5.26,12.76.28,1.17,0,1.63-.32,1.61-1.55,0-1.74-.3-3.51.46-5.19.13-.29.11-.77.57-.62s.1.51,0,.74c-1.12,3.45-.21,7-.32,10.44,0,1.05,0,2.09,0,3.14,0,.6,0,1.17.75,1.4.48.15.55.58.55,1,0,.67,0,1.34,0,2,0,.33-.16.91.37.89s.34-.59.34-.94a15.39,15.39,0,0,1,.28-2.35,1.65,1.65,0,0,1,1.91-1.53h5.39a1.66,1.66,0,0,1,1.79,1.81c.18,4-.19,8.09-.28,12.13,0,1.21-1.19,2-2.62,1.9-3.18-.19-3.18-.19-3.18,3.08,0,2.84.11,5.68,0,8.52-.31,6.43-.17,12.85-.26,19.28h0a7,7,0,0,1-1.27-4.06c.18.15.43.48.52.44.33-.13.21-.51.21-.78,0-5.67.43-11.33.25-17a5.12,5.12,0,0,0,0-.84c-1.35-.13-.63-1.15-.63-1.67a24,24,0,0,0-1.15-5.58,2.64,2.64,0,0,0-.84-1.63c-1.23-.88-1.21-2.18-1.32-3.46,0-.47.13-1-.17-1.39l-4.31,4.25a2.75,2.75,0,0,0-.7,2.75c.28,1.28.9,2.51.68,3.89-.86-1-.86-2.33-1.17-3.53-.08-.33.15-1-.51-.9-.49.09-.62.65-.53,1.13s.25.69.34,1.05c.17.74.78,1.41.37,2.25-.41-.91-.86-1.8-1.21-2.73-.15-.39-.31-.39-.63-.3s-.35.27-.27.55a13.06,13.06,0,0,1,.56,2.17c.33,3.51,1.28,6.92,1.65,10.44.11,1.13.33,2.3.49,3.43.22,1.55.9,3.06.63,4.66a5.82,5.82,0,0,0,.12,1.57c.21,2.09.92,4.11.56,6.29a35.73,35.73,0,0,0-.1,5.38c0,.34,0,.69.46.78a1,1,0,0,0,.89-.35,1.39,1.39,0,0,0,.37-.9,7.55,7.55,0,0,1,1.76-3.54c.19-.25.46-.5.86-.06a4.16,4.16,0,0,0-1.5,3.28c0,.43,0,.92.48,1s.51-.47.65-.83c.41-1.07.38-2.34,1.38-3.14.26-.21.49-.77.9-.4s-.1.58-.29.84a10.13,10.13,0,0,0-.71,1.17c-.79,1.55-.69,2,.6,3.21a1.6,1.6,0,0,1,.66,1Zm-32.56,50.37c1.58-.27,3,.38,4.54.63.39.07.73.2,1-.19s-.1-.74-.35-1.06c-.59-.74-1.53-.81-2.31-1.17-2.63-1.21-2.81-1.08-2.86,1.79-.63.25-.36,1-.68,1.49-.22-.45.06-.88-.31-1.17-.35.17-.15.53-.26.77-.45,1,.1,1.17,1,1.14,1.16,0,2.34,0,3.5,0,.62,0,1.66.31,1.73-.39s-1.09-.61-1.72-.86C786.44,246.9,785.16,247.27,784.27,246.35ZM808.33,154c.36,0,.61.61,1.09.13,1.24-1.26,2.57-2.44,3.69-3.82.18-.23.44-.45.26-.76s-.55-.23-.8-.16a9.8,9.8,0,0,1-2.91.56c-1.38,0-1.72.7-1.51,1.9-.76-.24-.36-1.12-.87-1.64-1.11,1.26-.64,2.68-.56,4,0,.64.24,1.89.79,1.81S808.4,154.82,808.33,154Zm10,90.35c-.16.66-.77.53-1.22.67a4.06,4.06,0,0,0-2.24,1.23c-.3.39-.72.81-.33,1.32a1,1,0,0,0,1.28.13,10.39,10.39,0,0,1,3-.6c1.41-.22,1.79-.88,1.22-2.17-.39-.87-1.16-.41-1.75-.58.13-.81,1.11-.43,1.47-1.08-1.09-.33-2.11.25-3.05.15-2.74-.27-5.37.75-8.08.49-.93-.08-1.4.35-1.35,1.34s0,1.75,0,2.63.36,1.22,1.2,1.2c1.42,0,2.84,0,4.26,0s1.69-.27,1-1.65c-.28-.55-.7-.49-1.15-.53a4.82,4.82,0,0,1-2.07-.22,1.26,1.26,0,0,1,1.27-.35,4.54,4.54,0,0,0,3.11-.95A4.81,4.81,0,0,1,818.38,244.34Zm-26.66-18.62a1.94,1.94,0,0,0,1.3.68c1.66.07,3.3.35,5,.5,1.34.12,1.44.73,1.42,1.78,0,1.28-.73,1.16-1.59.94-.13,0-.35,0-.34.27.85.27,1.8.4,2,1.53.07.33.45.36.74.36a24.17,24.17,0,0,1,4,.26c1.09.14,1.63-.23,1.59-1.43a34.2,34.2,0,0,1,.07-4.64,89.5,89.5,0,0,0,.71-10.21,9.59,9.59,0,0,1,.08-2.63c.77-2.76.29-5.61.81-8.41a38.32,38.32,0,0,1,1.82-8,7.66,7.66,0,0,0,.48-3.49c-.23.73-.18,1.58-1.11,1.33-1.15-.32-1.26.3-1.26,1.19a47.31,47.31,0,0,1-.31,7.24c-.23,1.47-.61,1.92-2.07,2-1.21,0-2.42.05-3.63,0a2.48,2.48,0,0,1-2.51-2.8c.25-1.8.08-3.58.17-5.37.05-1.09.05-2.05-1.49-1.94-.29,0-.62-.31-.92-.47a1.77,1.77,0,0,0,.17,2.11,3.11,3.11,0,0,1,.55,1.26,52.2,52.2,0,0,1,1.41,9.77c0,4.27.33,8.51.36,12.77,0,1.5-1.59,3.86-3,4.06S793.31,225.48,791.72,225.72Zm-3-60.88a.77.77,0,0,1-.21-.84c.33-1.76.12-3.59.8-5.3.17-.44.45-1.2-.42-1.26s-.6.67-.6,1.13c.1,7.22-.45,14.43-.27,21.64a12.58,12.58,0,0,1-.19,3.62c0,.16-.08.43.2.46,1.45-2.59,2.14-5.48,3.42-8.14a111.67,111.67,0,0,0,4.5-11.3,63.68,63.68,0,0,0,1.71-6.62,2.82,2.82,0,0,0-1-3.23c-.24-.17-.36-.47-.59-.65-1.2-.92-1.72-2.51-3.13-3.32a6.25,6.25,0,0,0-.61,2,4.11,4.11,0,0,1-1.23,3,2.58,2.58,0,0,0-.55.95c-.76,2.36-1.77,4.67-1.5,7.24A.53.53,0,0,1,788.76,164.84Zm14.13-9.68c.1,1.41-.46,2.59-.51,3.84-.13,2.91-.82,5.75-1.18,8.63a40.24,40.24,0,0,1-.52,4.06,30.92,30.92,0,0,0-.8,4.76,18.7,18.7,0,0,1-.76,4.14,75,75,0,0,0-2.35,7.46,11,11,0,0,0,.4,5.54,1,1,0,0,0,1.23.79c.72-.13.61-.69.62-1.18,0-1.75,0-3.51,0-5.27s.75-2.54,2.63-2.58c.88,0,1.76,0,2.63,0,2.59,0,3.15.81,3.1,3,0,1.63,0,3.26,0,4.89,0,.46.09.85.65.88.4,0,.78,0,.91-.47a14.53,14.53,0,0,0,.27-7.38c-.3-1.44-1.15-2.69-1.4-4.11a27.78,27.78,0,0,1-.9-5.89,9.7,9.7,0,0,0-.26-2.74c-.77-3-.52-6.19-1.11-9.26-.51-2.68-.6-5.44-.88-8.17,0-.21-.09-.41-.55-.48-.12,1.94-.15,3.88-.24,5.8-.24,5.38.15,10.77-.28,16.15-.12,1.57-.41,2.15,1.92,2.08,1.21,0,1.49.45,1.51,2.07,0,2.69-.13,3.11-1.42,3.16-1.54.06-3.09,0-4.64,0a1.27,1.27,0,0,1-1.28-.63,6.39,6.39,0,0,1,.25-4.05c.27-1,1.37-.55,2.11-.57s1.24-.28,1.21-1.17c-.2-7.31.28-14.61.24-21.92C803.55,156.07,803.68,155.52,802.89,155.16ZM800,137.77h-2c-2.88,0-2.88,0-3.15,2.87s-.21,2.86,2.71,2.87c1.63,0,3.26,0,4.89,0,3.17.08,6.35-.23,9.52.17.55.07.89-.12.93-.71l.27-3.87c.06-.82-.37-1.12-1.14-1.09C808,138.21,804,137.69,800,137.77Zm3.16-4.26h-5.9c-2.56,0-2.54,0-2.41,2.57,0,.78.3,1.18,1.11,1.13,2.71-.17,5.4.28,8.11.26,2.25,0,4.5,0,6.76,0,2.46,0,2.43,0,2.35-2.52,0-.84-.34-1.1-1.18-1.2C808.87,133.38,805.79,133.58,803.11,133.51Zm-9.46,112.9a7.4,7.4,0,0,1-2.59.23c-.78.06-.73.68-.85,1.19s.14.65.59.73a26.45,26.45,0,0,0,5.11.25c.65,0,.86-.36.87-1A11,11,0,0,1,797,245c.12-.46-.11-.76-.61-.9a8.06,8.06,0,0,0-2.8-.5,7.1,7.1,0,0,1-2.61-.14c-1.88-.63-3.89,0-5.74-.75l-.24.48c3.14.12,5,3.37,8.33,2.95C793.35,246.13,793.42,246.23,793.65,246.41Zm27.61.51a7,7,0,0,0-.13-2.88,5.76,5.76,0,0,1,.16-4.26c.15-.29.29-.74.69-.57s0,.58-.07.82c-.27.66-.72,1.33-.42,2,.81,1.89-.1,4,.69,5.85.13.31-.13.89.36.93s.44-.53.53-.87a2.64,2.64,0,0,0,0-.63c0-2.83,0-5.67,0-8.51,0-.45.18-1.18-.61-1.1s-1.74,0-1.77,1.12C820.65,241.48,820,244.14,821.26,246.92Zm-11.72-62.81a218.68,218.68,0,0,0-3.22-21.76,4.17,4.17,0,0,0-.11,2.47c.55,1.67.22,3.42.63,5.11a30.17,30.17,0,0,1,.48,5,62.83,62.83,0,0,0,1.09,6.73A5.28,5.28,0,0,0,809.54,184.11Zm4.2,42.3c-.57-.93-1.4-.95-2-1.28-1.39-.7-3.25-.5-4.14-2.23-.22-.43-.65-.15-.86.25-.58,1.15-.29,2.37-.26,3.56,0,.26.24.29.47.26A56.69,56.69,0,0,1,813.74,226.41ZM795,149.09c-.42,0-.73-.08-.87.16s.2.47.36.68a12.25,12.25,0,0,0,.78,1c.93,1,1.5,2.29,2.74,3,.47.28.73.26.75-.27a12.19,12.19,0,0,1,.49-2.17,1.13,1.13,0,0,0-.81-1.54C797.25,149.52,796,149.58,795,149.09Zm-11.19,90.3c.46-1-.2-1.32-.67-1.76-.29-.27-.44-.84-1-.65s-.36.78-.37,1.2c0,1.59,0,3.17,0,4.76v5.13h.36c.47-3.11,1.51-6.17.38-9.6Zm12.7-93.92h0c.75,0,1.5.06,2.24,0,.55-.05,1.5.35,1.46-.62s-1-.54-1.53-.58c-.82,0-1.66,0-2.49,0-2,0-2,0-2.38-2,0-.25,0-.55-.36-.57s-.38.28-.46.51a7.42,7.42,0,0,0-.15,2.35c0,.63.32.9.93.89Zm14.36.24h1.5c2.35,0,2.44-.1,2.22-2.5a.49.49,0,0,0,0-.12c0-.25,0-.57-.3-.61s-.39.27-.4.52c-.06,1.31-.92,1.52-2,1.5s-2.42,0-3.63,0c-.4,0-.79.1-.8.6s.38.59.78.59Zm-5,103.09c.72.06.94-.34.94-1,0-1,0-2,.08-3,0-.44.16-.85-.47-.92s-.92,0-1,.64c-.16,1.11-.35,2.21-.5,3.32C804.81,248.56,805.19,248.86,805.87,248.8Zm-6.72-94a.81.81,0,0,0,.63,1c.48.1.64-.4.73-.82.26-1.21.44-2.43.8-3.6.22-.71-.17-.78-.6-1-.58-.24-.82.12-.81.58C800,152.3,799.33,153.48,799.15,154.76Zm6.08-4.85c-.49,2.48-.58,5,.76,7.33C806.67,154.69,806,152.25,805.23,149.91Zm9.94,98.63c.18.63.62.53,1,.53,1.25,0,2.49,0,3.74,0,.36,0,1,.11.82-.56-.12-.46-.27-1.23-1-1A28.58,28.58,0,0,1,815.17,248.54Zm-18.24-84.31c1.53-1.74,1.82-3.74,2.43-5.61.17-.52-.2-.77-.56-1s-.39,0-.41.26C798.19,160,797.24,161.93,796.93,164.23Z" transform="translate(-659.22 -125.66)"/><path class="cls-1" d="M818.89,187.4a16.78,16.78,0,0,1,1,5.2,12.32,12.32,0,0,0,.37,3.06,6.39,6.39,0,0,1-1.14,4.63c.38-1.42-.42-2.08-1.37-2.76a1.88,1.88,0,0,1-.93-1.55l.09-.09c.64.25.74,1,1.25,1.35s.87.47,1-.22a10.55,10.55,0,0,0,.19-4.52c-.33-1.65-.9-3.34-.51-5.09Z" transform="translate(-659.22 -125.66)"/><path class="cls-1" d="M804.09,209.47v1.75c0,.63-.24,1-.93,1.07s-1.21-.23-1.24-.92a37.75,37.75,0,0,1,0-4.12,1,1,0,0,1,1.1-1,1.09,1.09,0,0,1,1,1.08c.05.7,0,1.42,0,2.12Z" transform="translate(-659.22 -125.66)"/><path class="cls-1" d="M808.6,162.32c.71.24.66,1.11,1.28,1.51.38-.47.12-1,.23-1.51a40.26,40.26,0,0,1,1.4,4.36c.49,1.86,1.36,3.62,2,5.46.51,1.6,1.58,3,1.7,4.74-.56-.11-.61-.65-.79-1-.42-.89-.68-1.83-2-1.88a.84.84,0,0,1-.67-1.15c1.13-2.38-.55-4.11-1.32-6C809.81,165.28,808.74,164,808.6,162.32Z" transform="translate(-659.22 -125.66)"/></svg>