<svg id="Layer_1" data-name="Layer 1" xmlns="http://www.w3.org/2000/svg" viewBox="0 0 265.03 161.72"><defs><style>.cls-1{fill:#fff;}</style></defs><title>sandbox</title><path class="cls-1" d="M1009.53,577.42c-5,0-10.09.63-15-.11-14.55-2.2-27.34,3.89-40.62,7.81-2.85.84-4,3.4-5.34,5.65-8.26,13.46-17.9,25.71-30.69,35.2a46,46,0,0,1-12.7,6.87c-13,4.38-22.84-.9-26.31-14.18-2.78-10.6-1.53-21.16.57-31.68a133.48,133.48,0,0,1,10.92-32.07,12.8,12.8,0,0,0,.84-9.57c-9.3-34.64,11.65-66.69,47.16-72,12.26-1.82,23.88,1.05,34.65,7a17.59,17.59,0,0,0,9,2.34c18.83-.07,37.66-.1,56.49.07,3.63,0,6.35-1.65,9.28-3.18,32.55-16.93,71.15-.21,81,35.14a53.82,53.82,0,0,1-.36,30.57,12.5,12.5,0,0,0,.82,9.57c7,15.22,12,31,13,47.93a44.72,44.72,0,0,1-2.7,19.14c-4.23,10.8-13.73,15.09-24.73,11.06-11.8-4.32-20.59-12.68-28.78-21.81A137.2,137.2,0,0,1,1069.89,589a8.48,8.48,0,0,0-6.17-4.47c-2.44-.47-5.07-.88-7.17-2.08-9.91-5.7-20.69-5.38-31.52-5.1C1019.86,577.52,1014.7,577.41,1009.53,577.42ZM968,537c14.51.11,12.76.89,12.91-10.29,0-1.83,0-3.66-.07-5.5s-1.09-2.88-2.86-2.59c-4.34.7-8.65-.41-13,0-5.85.5-9.32,7.72-7.1,13C960.56,537.8,965.51,537,968,537Zm-47.06.12c4.7.94,9.51-.22,12-6.67,1.7-4.47-3.09-12.24-7.79-11.78a53.7,53.7,0,0,1-10.46-.17c-3.76-.37-5.78.88-5.34,5a33.83,33.83,0,0,1,0,3.49C909.53,538,908,536.91,921,537.09Zm33,16.79v-4.47c0-5.21-4.55-10.07-9.22-9.92-4.28.14-8.36,4.85-8.42,9.75,0,2.32,0,4.64,0,7-.05,7.64-.05,7.7,7.52,7.71C955.45,563.93,953.87,564.88,954,553.88Zm0-50.38v-7.85a3.07,3.07,0,0,0-2.74-3.47c-11.92-2.56-14.91-.23-14.94,11.84a15.89,15.89,0,0,1,0,2.49c-.8,4.69,2.3,6.68,5.62,8.9s5.45.06,8.13-1.12C955.75,511.78,953.52,506.78,954,503.5ZM1046.68,539c6.13.09,10.38-4.13,10.35-10.28a10.24,10.24,0,0,0-20.47-.16C1036.43,534.87,1040.33,538.89,1046.68,539Zm38.53,18.15a10.29,10.29,0,0,0-9.85-10.43,10.47,10.47,0,1,0,9.85,10.43ZM1074.89,511a10.23,10.23,0,0,0,10.37-9.9,10.33,10.33,0,1,0-10.37,9.9ZM1103,539c5.94.09,10.09-3.85,10.27-9.75a10.13,10.13,0,0,0-10-10.73A10.4,10.4,0,0,0,1092.87,529,10.15,10.15,0,0,0,1103,539Z" transform="translate(-877.28 -472.83)"/></svg>