<svg xmlns="http://www.w3.org/2000/svg" viewBox="0 0 105.71 105.49"><defs><style>.cls-1{fill:#fff;}</style></defs><title>shark tank</title><g id="Layer_2" data-name="Layer 2"><g id="Layer_1-2" data-name="Layer 1"><g id="pg_1_front" data-name="pg 1 front"><path class="cls-1" d="M86.86,30.39c-10.27,5.55-20.6,11-30.79,16.7A65.09,65.09,0,0,0,40.91,58.47c-3.09,3.17-5.76,6.65-6.19,11.24-.54,5.87,1.46,9.73,6.6,11.22a25.61,25.61,0,0,0,11.38.64,89.08,89.08,0,0,0,18-5.34c5.5-2.15,10.93-4.5,16.38-6.78.71-.3,1.39-.54,1.93.22a1.62,1.62,0,0,1-.28,2.08,5.05,5.05,0,0,1-1.19.85c-4.57,2.77-9.2,5.45-13.69,8.34a32,32,0,0,0-8.28,7.42,7.94,7.94,0,0,0-1.76,6,11.45,11.45,0,0,0,4.67,8.26,1.37,1.37,0,0,1,.58,1.85v0a2.31,2.31,0,0,1-1.66,1,6.24,6.24,0,0,1-2.89-.83c-2.55-1.58-5.08-3.2-7.45-5C52.28,96,48.61,91.38,45.23,86.48A2.6,2.6,0,0,0,44,85.6c-2.28-.68-4.64-1.12-6.88-1.92A40.76,40.76,0,0,1,19.46,72c-5.84-6.76-8.32-14.74-8.58-23.55a20.09,20.09,0,0,1,2.7-10.65l4.16,6.72L35.49,26.77,28.6,22.62c.43-.31.79-.57,1.16-.81A95,95,0,0,1,52.29,11.12a73.33,73.33,0,0,1,25.94-4c1.86.08,3.72.12,5.58.24a60.35,60.35,0,0,1,14,2.26,14.92,14.92,0,0,1,6.44,3.46c1.88,1.91,1.94,3.7.21,5.72a7.92,7.92,0,0,1-1.54,1.52q-5.33,3.63-10.72,7.1a1.39,1.39,0,0,1-1.14-.17,53.46,53.46,0,0,0-4.66-3,38.82,38.82,0,0,0-13.71-3.86c-2.32-.26-4.66-.36-7-.54v3.66c8,.29,15.77,1.23,22.67,6.09Zm-32.24-7a38.81,38.81,0,0,0-4.44,1C42,27,36,32.39,31.58,39.6a51.51,51.51,0,0,0-7,20.73C24.09,64,24,67.8,23.67,71.55v1.18h3.56c.11-2.23.16-4.43.33-6.61.68-9.14,2.66-17.92,7.73-25.73,3.68-5.69,8.5-10.07,15-12.32,1.35-.46,2.78-.7,4.32-1.08Zm20.13-9h5.32V10.93H74.75Z"/><path class="cls-1" d="M18.49,38.74,29.83,27.39c-2.79-1.34-5.53-2.78-8.35-4a64.7,64.7,0,0,0-17.78-5,25.1,25.1,0,0,0-2.6-.23A3.6,3.6,0,0,0,0,18.5a5,5,0,0,0,.63,1c3,2.61,6,5.08,8.88,7.81A59.4,59.4,0,0,1,18.49,38.74Z"/><path class="cls-1" d="M32.26,0c2.39,5,3,9.91,1.49,14.92L50.39,7.7A35.6,35.6,0,0,0,32.26,0Z"/><path class="cls-1" d="M71.29,42.53,57.6,50.23a34.6,34.6,0,0,0,16.05,6c-1.92-4.42-3.38-8.75-2.08-13.49Z"/></g></g></g></svg>