<svg xmlns="http://www.w3.org/2000/svg" viewBox="0 0 83.73 83.67"><defs><style>.cls-1{fill:#fff;}</style></defs><title>symposium</title><g id="Layer_2" data-name="Layer 2"><g id="Layer_1-2" data-name="Layer 1"><g id="pg_1_front" data-name="pg 1 front"><path class="cls-1" d="M34.67,83.67c.69-2.15,1.35-4.3,2.06-6.44q2-6.23,4.12-12.45c.08-.26.15-.52.24-.86H36.84a22,22,0,0,0-2.78-9.85H83.73V59h-4.9V83.67Z"/><path class="cls-1" d="M4.91,83.67,0,68.84H34.35L29.44,83.67Z"/><path class="cls-1" d="M44.12,0V37.85c-.28-.27-.5-.45-.7-.65l-12-12a1.78,1.78,0,0,0-1.36-.55H5V0ZM14.75,14.77H34.28V10H14.75Z"/><path class="cls-1" d="M73.8,49.12H44.14A14.24,14.24,0,0,1,49.93,37.6c5-3.76,10.49-4.3,16-1.38C71,38.89,73.49,43.33,73.8,49.12Z"/><path class="cls-1" d="M2.5,63.82a14.68,14.68,0,0,1,29.35,0Z"/><path class="cls-1" d="M59.07,14.83a7.36,7.36,0,1,1-7.39,7.33v-.05A7.38,7.38,0,0,1,59.07,14.83Z"/><path class="cls-1" d="M24.53,36.9a7.36,7.36,0,1,1-7.36-7.36h0A7.38,7.38,0,0,1,24.53,36.9Z"/></g></g></g></svg>