<svg xmlns="http://www.w3.org/2000/svg" viewBox="0 0 112.26 107.42"><defs><style>.cls-1{fill:#fff;}</style></defs><title>trace space</title><g id="Layer_2" data-name="Layer 2"><g id="Layer_1-2" data-name="Layer 1"><g id="pg_1_front" data-name="pg 1 front"><path class="cls-1" d="M105.72,55l1.81,2.28a1.47,1.47,0,0,1,0,2.09,1.44,1.44,0,0,1-.27.22q-2.25,1.83-4.53,3.61a1.5,1.5,0,0,1-2.12,0,1.48,1.48,0,0,1-.25-.31c-.58-.71-1.14-1.43-1.74-2.18l-2.38,1.9c.54.68,1.11,1.38,1.66,2.09a1.53,1.53,0,0,1,.21,2.16,1.57,1.57,0,0,1-.51.41q-2.1,1.7-4.23,3.38a1.56,1.56,0,0,1-2.58-.26l-1.68-2.11-2.38,1.9c.55.69,1.12,1.39,1.67,2.1a1.56,1.56,0,0,1,.18,2.2,1.79,1.79,0,0,1-.48.38L83.8,78.3a1.52,1.52,0,0,1-2.15.09,1.57,1.57,0,0,1-.3-.38l-1.68-2h-.21l-.81.64L57.42,93.51c-1.18,1-1.69.92-2.74-.15A4.56,4.56,0,0,0,47.57,99c.79,1.23.71,1.76-.4,2.65l-6.53,5.21a1.57,1.57,0,0,1-2.2.19,1.58,1.58,0,0,1-.38-.48Q19.31,83.12.58,59.62C-.28,58.55-.19,57.84.89,57q3.3-2.64,6.61-5.27a1.53,1.53,0,0,1,2.16-.17,1.27,1.27,0,0,1,.3.35,4.56,4.56,0,0,0,7.12-5.68,1.53,1.53,0,0,1,0-2.17,1.41,1.41,0,0,1,.37-.27L71.64.55A1.53,1.53,0,0,1,73.8.36a1.59,1.59,0,0,1,.36.45Q93,24.37,111.75,48a1.49,1.49,0,0,1,.13,2.11,1.6,1.6,0,0,1-.4.33Zm2.78-6.15L72.55,3.75,20.26,45.45c1.33,3.64.76,6.87-1.55,9a7.7,7.7,0,0,1-10.16.41L3.76,58.64l36,45.08,4.77-3.81c-1.45-4-.71-7.17,2.14-9.44s6.12-2.19,9.57.06l2.46-2C56,85.26,53.42,82,50.79,78.75a1.59,1.59,0,0,0-1-.38c-4.24-.5-8.49-1-12.73-1.46a1.09,1.09,0,0,0-1.24.53,4.47,4.47,0,0,1-5.28,1.66,4.57,4.57,0,0,1,.91-8.8,4.46,4.46,0,0,1,4.87,2.8,1.09,1.09,0,0,0,1.09.78q6.8.74,13.59,1.51a2.43,2.43,0,0,1,1.83,1c2.5,3.19,5,6.35,7.57,9.51l.61.77,4.73-3.77-.19-.3c-1.07-1.33-2.15-2.66-3.19-4a1,1,0,0,0-1.18-.46,4.56,4.56,0,1,1,3.36-2.71,1.1,1.1,0,0,0,.21,1.34c1,1.19,1.94,2.41,2.91,3.62.17.21.37.4.54.59l9.47-7.55c-.6-.74-1.18-1.45-1.73-2.17a1.52,1.52,0,0,1-.1-2.14,1.45,1.45,0,0,1,.39-.3c1.42-1.15,2.86-2.3,4.3-3.44a1.56,1.56,0,0,1,2.2-.21,1.79,1.79,0,0,1,.38.48l1.68,2.1,2.28-1.82v-.16c-.54-.7-1.09-1.39-1.63-2.1a1.5,1.5,0,0,1-.09-2.12,1.59,1.59,0,0,1,.32-.26c1.5-1.21,3-2.42,4.53-3.61a1.48,1.48,0,0,1,2.09,0,1.42,1.42,0,0,1,.22.28c.6.72,1.18,1.47,1.79,2.23l2.38-1.9c-.62-.78-1.22-1.51-1.8-2.26a1.47,1.47,0,0,1,0-2.07,1.84,1.84,0,0,1,.22-.17c1.52-1.24,3.06-2.46,4.6-3.67a1.48,1.48,0,0,1,2.09,0,1.42,1.42,0,0,1,.22.28c.6.73,1.18,1.47,1.79,2.24Zm-6.62,11.06,2.32-1.84-3.7-4.64-2.32,1.84Zm-9.47,7.59,2.31-1.84L91,61l-2.31,1.84Zm-7.19,5.74-3.73-4.67L79.21,70.4l3.73,4.68Zm-26,1.38a1.51,1.51,0,1,0,.25-2.13,1.59,1.59,0,0,0-.29,2.11ZM31,75.79A1.51,1.51,0,0,0,33.4,74l-.09-.11a1.56,1.56,0,0,0-2.13-.19A1.59,1.59,0,0,0,31,75.79Z"/><path class="cls-1" d="M53.68,36,50,31.47l2.34-1.86L56,34.24l2.39-1.9-3.71-4.65,2.36-1.88,3.72,4.66,2.39-1.91-3.67-4.65L61.91,22l3.71,4.66L68,24.79l-3.74-4.68,2.36-1.88,3.76,4.71c.81-.65,1.53-1.24,2.27-1.82A1.5,1.5,0,0,1,75,21.4c.58.7,1.14,1.42,1.77,2.22l4.72-3.76,1.88,2.36-4.67,3.72,1.91,2.39,4.65-3.71L87.18,27l-4.65,3.7,1.91,2.39,4.65-3.71L91,31.72l-4.67,3.72,1.91,2.39,4.65-3.71,1.88,2.36-4.7,3.75L91.8,42.4A1.56,1.56,0,0,1,91.47,45c-.66.54-1.33,1.07-2.08,1.67l3.75,4.7-2.39,1.9-3.7-4.65-2.39,1.91,3.71,4.66L86,57l-3.73-4.67-2.36,1.89,3.72,4.66-2.39,1.9-3.7-4.65-2.39,1.91,3.71,4.66L76.5,64.59l-3.75-4.68-2,1.58c-1.25,1-1.88.92-2.86-.29l-1.57-2L61.65,63l-1.9-2.38,4.65-3.72-1.88-2.4-4.67,3.72L56,55.87l4.65-3.71-1.9-2.38c-.23.16-.46.31-.68.48-4,3.15-7.91,6.32-11.88,9.46A1.15,1.15,0,0,0,45.64,61a4.55,4.55,0,1,1-8.1-2A4.49,4.49,0,0,1,42.9,57.6c.43.17.74.3,1.19-.06,4.11-3.32,8.25-6.61,12.38-9.9l.31-.3L54.91,45l-.82.65-9.5,7.58c-1.14.91-1.81.83-2.71-.29-1.39-1.73-2.78-3.46-4.14-5.21a1,1,0,0,0-1.18-.47,4.56,4.56,0,1,1,3.33-2.64A1,1,0,0,0,40,45.78c1.17,1.41,2.3,2.85,3.48,4.33L53,42.53c-.59-.75-1.19-1.48-1.76-2.22a1.49,1.49,0,0,1,0-2.12A1,1,0,0,1,51.5,38l2.13-1.74S53.65,36.19,53.68,36ZM73.5,24.41,54.58,39.5,69.67,58.42,88.59,43.33ZM40.2,60.62a1.51,1.51,0,1,0,2.13.19A1.58,1.58,0,0,0,40.2,60.62ZM36.69,44a1.51,1.51,0,1,0-2.13-.22A1.6,1.6,0,0,0,36.69,44Z"/><path class="cls-1" d="M20.73,60.53l2.38-1.9c-.31-.39-.61-.74-.89-1.12a1.45,1.45,0,0,1,.08-2,.79.79,0,0,1,.15-.12c1.57-1.28,3.15-2.55,4.75-3.79a1.42,1.42,0,0,1,2,.12.64.64,0,0,1,.1.13c1.28,1.57,2.55,3.15,3.79,4.75a1.44,1.44,0,0,1-.1,2l-.18.14-4.46,3.55c-1,.82-1.74.73-2.57-.3l-.7-.87L22.7,63c.26.33.56.69.83,1.05a1.47,1.47,0,0,1,0,2.08,1.2,1.2,0,0,1-.21.17c-1.55,1.25-3.1,2.5-4.68,3.72a1.43,1.43,0,0,1-2-.07.84.84,0,0,1-.15-.18q-1.89-2.31-3.73-4.68A1.47,1.47,0,0,1,12.8,63l.22-.16c1.45-1.18,2.91-2.34,4.37-3.5,1.08-.85,1.78-.77,2.65.31Zm9-3.25L27.88,55l-2.27,1.81,1.84,2.31Zm-9.5,7.58-1.84-2.31-2.27,1.81L18,66.67Z"/><path class="cls-1" d="M65.94,34.25l5.65-4.5c1-.82,1.74-.73,2.57.3l9.06,11.36A1.55,1.55,0,0,1,83,44L71.52,53.11a1.53,1.53,0,0,1-2.16.16,1.43,1.43,0,0,1-.36-.45L59.88,41.38c-.81-1-.71-1.74.34-2.57Zm14.11,8.13L72.53,33l-9.41,7.51,7.51,9.42Z"/></g></g></g></svg>