<svg id="Layer_1" data-name="Layer 1" xmlns="http://www.w3.org/2000/svg" viewBox="0 0 270.8 179.09"><defs><style>.cls-1{fill:#fff;}</style></defs><title>valo</title><path class="cls-1" d="M-334.17,325.06c7.18.23,7.19.23,7.21,7.37,0,5.59,0,11.18,0,18.24,6.32-7.87,11.72-14.57,17.07-21.29,1.69-2.12,3.33-4.26,6.39-4.22,1.61,0,3.68-.66,4.56,1.08.77,1.52-.92,2.7-1.8,3.8-7.36,9.25-15,18.3-22.08,27.74-3.05,4.06-6.35,6.14-11.35,5.28Z" transform="translate(334.17 -184.93)"/><path class="cls-1" d="M-270.41,212c0-7.33-.07-14.66,0-22,0-1.69-1-4.24,1.16-4.87,1.93-.56,2.87,1.92,3.95,3.27q29.28,36.39,58.45,72.87c7.71,9.62,15.46,19.2,23.11,28.86,1,1.21,2.8,2.47,1.86,4.26-.78,1.49-2.7.91-4.14.91-11.66,0-23.32,0-35,.06a8.1,8.1,0,0,1-6.91-3.22q-20.28-25.35-40.65-50.64a9.65,9.65,0,0,1-1.92-6.53C-270.39,227.33-270.41,219.66-270.41,212Z" transform="translate(334.17 -184.93)"/><path class="cls-1" d="M-134.25,212v8.48c0,18.9,0,18.86-12.13,33.48a10.54,10.54,0,0,1-9,4.31c-11.31-.18-22.62,0-33.93-.08-1.44,0-3.28.5-4.09-1.09s.79-2.75,1.66-3.85q26.31-32.94,52.69-65.81c.9-1.11,1.74-3,3.43-2.38s1.28,2.53,1.29,4c0,7.65,0,15.3,0,22.95Z" transform="translate(334.17 -184.93)"/><path class="cls-1" d="M-227.94,324.54c10.89.12,19.9,9.16,19.73,19.78s-9.53,19.78-20.06,19.69a20.25,20.25,0,0,1-19.67-20A19.78,19.78,0,0,1-227.94,324.54Zm11.73,19.74c.06-7.28-4.49-12.11-11.54-12.25-7.24-.15-12.28,4.79-12.3,12.05,0,7,5.48,12.74,12.08,12.61A12.27,12.27,0,0,0-216.21,344.28Z" transform="translate(334.17 -184.93)"/><path class="cls-1" d="M-202.48,343.78c0-4.49.17-9-.06-13.47-.21-4,1.54-5.34,5.3-5.25,6,.13,12-.05,18,.06,2.38.05,5.56-.93,6.68,1.95a9.57,9.57,0,0,1-.82,9.1,56.34,56.34,0,0,1-5.24,6.67c-2.33,2.48-1.95,4.51.13,6.89,2.73,3.13,5.23,6.46,7.8,9.73,1.94,2.46,1,3.57-1.83,3.64-1.66,0-3.54.35-4.83-.79-4.87-4.33-8.57-9.7-12.37-14.94-1.22-1.69.36-3.14,1.34-4.42,2-2.64,4.16-5.19,6.23-7.8,1.41-1.78.88-2.47-1.31-2.79-10.23-1.5-11.52-.45-11.52,9.77,0,5.49,0,11,0,16.47,0,2.7-.72,4.55-3.92,4.47-2.94-.08-3.56-1.84-3.55-4.31C-202.45,353.77-202.48,348.78-202.48,343.78Z" transform="translate(334.17 -184.93)"/><path class="cls-1" d="M-279,344.24c0,4.49.06,9,0,13.46,0,1.91.55,4.31-2,5.08s-5,.52-6.86-1.65c-2.27-2.65-4.58-5.28-6.63-8.09-1.62-2.21-2.82-2.42-4.48-.08s-3.69,4.7-5.56,7c-1.27,1.59-2.69,3-4.9,3-1.76,0-4,.84-5-1-.92-1.7,1-3,2-4.21q11.47-14.44,23-28.82c1.25-1.57,2.55-3.07,4.67-3.5,3.52-.71,5.93,0,5.84,4.3C-279.08,334.6-279,339.42-279,344.24Z" transform="translate(334.17 -184.93)"/><path class="cls-1" d="M-163.41,344c0-4.33-.08-8.65,0-13,0-2-.73-4.6,2.16-5.46a6.15,6.15,0,0,1,7.14,2.13c3.71,4.69,7.48,9.35,11.22,14,4.57,5.72,9.16,11.41,13.68,17.17.75,1,2.16,2,1.18,3.45-.71,1.06-2.1.73-3.23.85-4,.44-6-2.21-8.05-4.9-6.38-8.17-6.41-8.15-12.9,0a28.74,28.74,0,0,1-2.93,3.39,6.07,6.07,0,0,1-6.55,1c-2.26-.81-1.56-3-1.75-4.75,0-.17,0-.33,0-.5Z" transform="translate(334.17 -184.93)"/><path class="cls-1" d="M-104.5,350.61c0-7.79,0-14.24,0-20.7,0-2.55.31-4.72,3.63-4.69,3.12,0,3.86,1.94,3.85,4.61,0,9.32,0,18.63,0,27.94,0,1.92.49,4.3-2.09,5a6.37,6.37,0,0,1-7.2-2.1q-7.2-8.93-14.41-17.84c-1-1.26-1.78-2.77-4.2-3.87,0,3.42,0,6.32,0,9.23,0,1,.26,2.22-.76,2.7-1.39.67-2-.79-2.76-1.55a13.08,13.08,0,0,1-4-11.29c.23-2.47-.05-5,.07-7.48.09-1.87-.72-4.3,1.9-5.1s5.21-.44,7.16,2c5.49,6.89,11,13.73,16.58,20.58C-106.36,348.61-105.9,349.07-104.5,350.61Z" transform="translate(334.17 -184.93)"/><path class="cls-1" d="M-75,348c0,3.83,0,7.66,0,11.5,0,2.55-1.32,3.58-3.74,3.58s-3.71-1.09-3.71-3.61c0-7.17-.18-14.34,0-21.5.11-3.91-.85-6-5.24-5.63-2.42.22-5.34.51-5.39-3.34-.06-4,2.89-3.85,5.59-3.87,5.17-.05,10.33,0,15.5,0,2,0,4.1.05,5.56,1.71,1.17,1.34,3.4,2.61,2.9,4.36-.63,2.21-3.16,1.09-4.83,1.13-6.62.19-6.62.12-6.64,6.66,0,3,0,6,0,9Z" transform="translate(334.17 -184.93)"/><path class="cls-1" d="M-271.37,344.2c0-4.16-.06-8.31,0-12.47.06-2.85-.84-6.49,3.9-6.47,4.58,0,3.48,3.59,3.52,6.19.11,6.65.14,13.3,0,19.94-.06,3.18,1.09,4.6,4.35,4.43,2.82-.15,5.65,0,8.48,0,2.4,0,3,1.1,1.55,3.1-1.71,2.34-3.63,4.22-6.9,4.19-18.2-.16-14.52,2.11-14.93-14C-271.4,347.52-271.37,345.86-271.37,344.2Z" transform="translate(334.17 -184.93)"/></svg>