<svg xmlns="http://www.w3.org/2000/svg" viewBox="0 0 408.79 408.87"><defs><style>.cls-1{fill:#fff;}</style></defs><g id="Layer_2" data-name="Layer 2"><g id="Layer_1-2" data-name="Layer 1"><path class="cls-1" d="M297,0c4.38,2.33,5.91,6,5.64,10.89-.3,5.44,0,10.91-.09,16.36s-3.21,8.58-8.74,8.65c-5.7.08-11.4,0-17.34,0V65.5c2.33,0,4.56,0,6.78,0,5.76.11,8.87,3.15,8.92,8.89.07,7.55,0,15.1,0,23,3.79,0,7.22-.07,10.64,0,5.28.13,8.37,3.21,8.5,8.49.09,3.42,0,6.85,0,10.66,7.54,0,14.69,0,21.83,0,7.31,0,10.08,2.8,10.11,10.11,0,1.83,0,3.65,0,5.67h29.58c0-5.39,0-10.79,0-16.19,0-7.12,2.81-9.94,9.84-10,5.73,0,11.45-.06,17.17,0,5.43.06,9,3.36,8.86,8.13-.1,4.59-3.56,7.69-8.8,7.78-3.57.06-7.13,0-11.13,0,0,5.75,0,11.16,0,16.58,0,6.84-2.89,9.75-9.64,9.77-10.51,0-21,0-31.54,0h-4.33c0,2.42,0,4.51,0,6.6-.07,6.29-3,9.32-9.25,9.36-7.42,0-14.84,0-22.47,0v16c5.45,0,11,.16,16.49,0,11.92-.44,16.14.55,15.26,14.62a12.09,12.09,0,0,0,.22,1.41h4.08q25.35,0,50.7,0a17.77,17.77,0,0,1,4.73.49,7.86,7.86,0,0,1-1.56,15.39c-1.45.14-2.92.11-4.39.11H343.33c0,2.23,0,4,0,5.88,0,7.12-2.81,10-9.83,10-7.17,0-14.34,0-21.81,0v16q10.28,0,20.58,0c8.71,0,11.05,2.37,11.06,11.16v4.81H355c8.25,0,16.5,0,24.75,0,6,0,9,3.12,9,9.16.06,5.56,0,11.13,0,17.18,3.83,0,7.37,0,10.92,0,5.5.07,9,3.22,9,8s-3.53,7.89-9,7.93q-9,.09-18,0c-5.73-.07-8.78-3.17-8.85-8.95-.06-5.59,0-11.17,0-17.07H343.33c0,2.24.05,4.59,0,6.93-.13,5.51-3.19,8.64-8.69,8.7-7.57.08-15.13,0-23.24,0,0,3.65.06,7.05,0,10.46-.12,5.5-3.2,8.58-8.7,8.7-3.31.07-6.62,0-10.45,0V331.5c0,9.86-2,11.86-11.92,11.9h-3.79V373c5.63,0,11.18,0,16.72,0,6.29,0,9.31,3,9.36,9.25,0,6,.07,12,0,18-.07,5.18-3.32,8.64-7.93,8.65s-7.86-3.45-8-8.62c-.08-3.58,0-7.16,0-11.32-5.58,0-11,0-16.38,0-7.12,0-10-2.81-10-9.85,0-11.7,0-23.4,0-35.67-2.4,0-4.6,0-6.81,0-6-.09-9.1-3.08-9.14-9.06-.06-7.43,0-14.87,0-22.59h-16v19.83c0,9.67-2.08,11.79-11.59,11.84-1.3,0-2.59.1-4.28.18v4.52q0,25.15,0,50.31a17,17,0,0,1-.64,5.49,7.77,7.77,0,0,1-8.68,4.84c-4-.7-6.62-4-6.64-8.71-.06-15.44,0-30.88,0-46.32V343.4c-2.29,0-4.25,0-6.2,0-6.85,0-9.75-2.89-9.78-9.64,0-7.29,0-14.58,0-22.09h-16v12.09c0,3.73.07,7.46,0,11.18-.14,5.26-3.25,8.29-8.55,8.44-2.26.07-4.52,0-7.4,0v4.34c0,10.52,0,21,0,31.55,0,6.75-2.93,9.6-9.77,9.64-5.32,0-10.63,0-16.57,0,0,3.68,0,7.21,0,10.73-.06,5.59-3.06,9.11-7.79,9.21s-8.09-3.52-8.13-9.26,0-11.72,0-17.57,3.12-9,9.16-9c5.56-.05,11.13,0,16.93,0V343.39c-2.49,0-4.85.06-7.21,0-5.27-.16-8.42-3.22-8.49-8.5-.09-7.68,0-15.36,0-23.43-3.82,0-7.24.07-10.66,0-5.28-.13-8.34-3.22-8.49-8.5-.1-3.33-.1-6.65-.16-10,0-.09-.18-.18-.71-.66H76c-7.86,0-10.47-2.64-10.49-10.53v-5.11H35.92c0,5.27,0,10.67,0,16.07,0,7.12-2.8,9.92-9.86,10-5.06,0-10.13-.23-15.17.07S2.33,301.47,0,297.09V292.3c2.33-4.38,6-6.05,10.88-5.62,3,.26,6,0,8.85,0,.14-.9.22-1.16.22-1.42,0-5.19,0-10.37,0-15.56.06-6.29,3-9.33,9.25-9.36,10.64,0,21.28,0,31.92,0h4.21c.06-1.27.16-1.93.12-2.59-.78-11.2,2.66-14.11,13.63-13.39.53,0,1.06,0,1.59,0H97.23v-16c-7.88,0-15.56.07-23.24,0-5.26-.06-8.33-3.21-8.48-8.49-.07-2.34,0-4.69,0-7.35H60.67c-16.62,0-33.25-.13-49.87.07-4.89.06-8.55-1.28-10.8-5.74v-4.8c2.52-4.42,6.36-5.7,11.34-5.63,15.83.22,31.66.08,47.48.08H65.5c0-2.87-.08-5.36,0-7.85.2-4.83,3.25-7.94,8.06-8.1,4.12-.14,8.24,0,12.37,0H97.2v-16c-7.5,0-14.79,0-22.07,0-6.75,0-9.59-2.94-9.64-9.78,0-1.95,0-3.9,0-6.19H61.15c-10.5,0-21,0-31.52,0-6.75,0-9.62-2.93-9.65-9.75,0-5.42,0-10.83,0-16.59-3.32,0-6.23-.21-9.1,0C6,122.66,2.33,121,0,116.6v-4.79c2.33-4.37,6-5.93,10.87-5.64,5.16.3,10.36,0,15.54.07,6.54,0,9.46,3,9.5,9.5,0,5.53,0,11.06,0,16.56H65.49v-3.43c.06-10.4,1.93-12.25,12.34-12.25h19.6c0-3.85-.06-7.16,0-10.46.11-5.5,3.19-8.58,8.69-8.7,3.4-.07,6.8,0,10.46,0,0-8.21-.08-15.9,0-23.59.07-5.06,3.2-8.14,8.22-8.33,2.48-.09,5,0,7.44,0V35.92c-6,0-11.67.07-17.37,0-5.5-.08-8.6-3.19-8.69-8.68s.22-10.92-.09-16.35C105.87,6,107.42,2.33,111.79,0h4.79c4.38,2.33,6,6,5.62,10.89-.26,3,0,6,0,8.86.91.13,1.18.2,1.44.2l15.17,0c6.8,0,9.72,2.92,9.74,9.68,0,10.52,0,21,0,31.55v4.31c3.05,0,5.44-.09,7.83,0,4.84.21,7.95,3.25,8.1,8.07.14,4.39,0,8.78,0,13.17V97.21h16V76.3c0-8.24,2.51-10.78,10.62-10.8h5.37c0-1.89,0-3.33,0-4.76,0-6.92-.14-13.85.07-20.76a8,8,0,0,1,7.89-8c4.27-.06,7.67,3.21,8,7.79.12,1.85.07,3.72.07,5.59,0,6.6,0,13.21,0,20.1,2.5,0,4.47,0,6.45,0,6.33.07,9.32,3,9.42,9.2,0,1.73,0,3.46,0,5.19V97.25h16c0-7.75,0-15.3,0-22.86,0-5.73,3.16-8.77,8.92-8.88,2.22,0,4.45,0,7,0V61.21c0-10.65,0-21.3,0-31.95,0-6.24,3.06-9.22,9.34-9.27,5.54,0,11.09,0,17,0,0-3.31.21-6.22-.05-9.09C286.19,6,287.86,2.34,292.24,0ZM113.72,113.53v181.7H295.11V113.53ZM148.3,97.25V81.71H132.83V97.25Zm48.31,0h15.53V81.75H196.61Zm63.92-15.56V97.17H276V81.65ZM97.18,148.34V132.85H81.75v15.49Zm230,0V132.85H311.72v15.49ZM81.6,212.12H97.2V196.71H81.6Zm230.06-15.57v15.6h15.4v-15.6Zm-230,64v15.51H97.11V260.55Zm245.44,15.7v-15.6H311.74v15.6Zm-178.83,51V311.73H132.85v15.52Zm48.46-15.63v15.6h15.39v-15.6Zm79.3,15.63V311.73H260.6v15.52Z"/><path class="cls-1" d="M206.81,0c2.63,1.8,5.35,3.49,5.58,7.21a7.91,7.91,0,0,1-14.93,4.39,7.81,7.81,0,0,1,2-9.73C200.3,1.2,201.17.62,202,0Z"/><path class="cls-1" d="M204,279.55H139.74c-7.61,0-10.41-2.76-10.41-10.31q0-64.88,0-129.77c0-7.24,2.9-10.1,10.21-10.1q64.88,0,129.75,0c7.3,0,10.2,2.87,10.2,10.11q0,65.09,0,130.17c0,7-2.94,9.9-10,9.9Q236.75,279.57,204,279.55Zm-58.42-134V263.24H263.3V145.52Z"/><path class="cls-1" d="M202.27,212.42c-10.76,0-21.52,0-32.29,0-6,0-9.46-2.87-9.55-7.77-.1-5.13,3.39-8.15,9.58-8.15q32.28,0,64.57,0c5.78,0,9.57,3.09,9.71,7.77s-3.79,8.14-9.73,8.15C223.79,212.44,213,212.42,202.27,212.42Z"/><path class="cls-1" d="M219.6,180.47c-5,0-10.11.08-15.16,0-5.47-.1-8.92-3.37-8.81-8.16.1-4.6,3.5-7.7,8.82-7.74q15.56-.12,31.11,0c5.09.05,8.73,3.52,8.73,7.95s-3.65,7.84-8.74,7.94C230.24,180.56,224.92,180.47,219.6,180.47Z"/><path class="cls-1" d="M201.14,244.33a7.94,7.94,0,0,1-.06-15.87,7.94,7.94,0,1,1,.06,15.87Z"/><path class="cls-1" d="M160.44,172.41a7.92,7.92,0,0,1,7.87-7.84,7.94,7.94,0,0,1-.19,15.88A7.92,7.92,0,0,1,160.44,172.41Z"/><path class="cls-1" d="M160.44,236.29a7.92,7.92,0,0,1,7.88-7.83,7.94,7.94,0,0,1-.21,15.88A7.92,7.92,0,0,1,160.44,236.29Z"/><path class="cls-1" d="M244.28,236.53a7.93,7.93,0,1,1-7.8-8.07A8.31,8.31,0,0,1,244.28,236.53Z"/></g></g></svg>